# MagicaVoxel @ ephtracy

# material
mtllib gift top.mtl
usemtl palette

# normals
vn -1 0 0
vn 1 0 0
vn 0 0 1
vn 0 0 -1
vn 0 -1 0
vn 0 1 0

# texcoords
vt 0.0488281 0.5
vt 0.138672 0.5

# verts
v -22 0 3
v -22 0 -3
v -22 14 3
v -22 14 -3
v -21 1 21
v -21 1 3
v -21 1 -3
v -21 1 -21
v -21 13 21
v -21 13 3
v -21 13 -3
v -21 13 -21
v -14 14 4
v -14 14 3
v -14 14 -3
v -14 14 -4
v -14 19 4
v -14 19 -4
v -5 15 4
v -5 15 -4
v -5 18 4
v -5 18 -4
v -4 13 4
v -4 13 3
v -4 13 -3
v -4 13 -4
v -4 14 15
v -4 14 4
v -4 14 3
v -4 14 -3
v -4 14 -4
v -4 14 -14
v -4 15 14
v -4 15 5
v -4 15 -5
v -4 15 -13
v -4 18 14
v -4 18 5
v -4 18 -5
v -4 18 -13
v -4 19 15
v -4 19 4
v -4 19 -4
v -4 19 -14
v -3 0 22
v -3 0 19
v -3 0 -19
v -3 0 -22
v -3 1 21
v -3 1 19
v -3 1 -19
v -3 1 -21
v -3 13 21
v -3 13 4
v -3 13 -4
v -3 13 -21
v -3 14 22
v -3 14 15
v -3 14 4
v -3 14 -4
v -3 14 -14
v -3 14 -22
v 4 14 4
v 4 14 -4
v 4 19 4
v 4 19 -4
v 13 15 4
v 13 15 -4
v 13 18 4
v 13 18 -4
v 19 0 3
v 19 0 -3
v 19 1 19
v 19 1 3
v 19 1 -3
v 19 1 -19
v 19 12 19
v 19 12 3
v 19 12 -3
v 19 12 -19
v -19 0 3
v -19 0 -3
v -19 1 19
v -19 1 3
v -19 1 -3
v -19 1 -19
v -19 12 19
v -19 12 3
v -19 12 -3
v -19 12 -19
v -13 15 4
v -13 15 -4
v -13 18 4
v -13 18 -4
v -4 14 4
v -4 14 -4
v -4 19 4
v -4 19 -4
v 3 0 22
v 3 0 19
v 3 0 -19
v 3 0 -22
v 3 1 21
v 3 1 19
v 3 1 -19
v 3 1 -21
v 3 13 21
v 3 13 4
v 3 13 -4
v 3 13 -21
v 3 14 22
v 3 14 15
v 3 14 4
v 3 14 -4
v 3 14 -14
v 3 14 -22
v 4 13 4
v 4 13 3
v 4 13 -3
v 4 13 -4
v 4 14 15
v 4 14 4
v 4 14 3
v 4 14 -3
v 4 14 -4
v 4 14 -14
v 4 15 14
v 4 15 5
v 4 15 -5
v 4 15 -13
v 4 18 14
v 4 18 5
v 4 18 -5
v 4 18 -13
v 4 19 15
v 4 19 4
v 4 19 -4
v 4 19 -14
v 5 15 4
v 5 15 -4
v 5 18 4
v 5 18 -4
v 14 14 4
v 14 14 3
v 14 14 -3
v 14 14 -4
v 14 19 4
v 14 19 -4
v 21 1 21
v 21 1 3
v 21 1 -3
v 21 1 -21
v 21 13 21
v 21 13 3
v 21 13 -3
v 21 13 -21
v 22 0 3
v 22 0 -3
v 22 14 3
v 22 14 -3
v -3 0 22
v -3 14 22
v 3 0 22
v 3 14 22
v -21 1 21
v -21 13 21
v -3 1 21
v -3 13 21
v 3 1 21
v 3 13 21
v 21 1 21
v 21 13 21
v -4 14 15
v -4 19 15
v -3 14 15
v 3 14 15
v 4 14 15
v 4 19 15
v -4 15 5
v -4 18 5
v 4 15 5
v 4 18 5
v -14 14 4
v -14 19 4
v -13 15 4
v -13 18 4
v -5 15 4
v -5 18 4
v -4 13 4
v -4 14 4
v -4 19 4
v -3 13 4
v -3 14 4
v 3 13 4
v 3 14 4
v 4 13 4
v 4 14 4
v 4 19 4
v 5 15 4
v 5 18 4
v 13 15 4
v 13 18 4
v 14 14 4
v 14 19 4
v -22 0 3
v -22 14 3
v -21 1 3
v -21 13 3
v -19 0 3
v -19 1 3
v -14 14 3
v -4 13 3
v -4 14 3
v 4 13 3
v 4 14 3
v 14 14 3
v 19 0 3
v 19 1 3
v 21 1 3
v 21 13 3
v 22 0 3
v 22 14 3
v -4 14 -4
v -4 19 -4
v 4 14 -4
v 4 19 -4
v -4 15 -13
v -4 18 -13
v 4 15 -13
v 4 18 -13
v -19 1 -19
v -19 12 -19
v -3 0 -19
v -3 1 -19
v -3 12 -19
v 3 0 -19
v 3 1 -19
v 3 12 -19
v 19 1 -19
v 19 12 -19
v -19 1 19
v -19 12 19
v -3 0 19
v -3 1 19
v -3 12 19
v 3 0 19
v 3 1 19
v 3 12 19
v 19 1 19
v 19 12 19
v -4 15 14
v -4 18 14
v 4 15 14
v 4 18 14
v -4 14 4
v -4 19 4
v 4 14 4
v 4 19 4
v -22 0 -3
v -22 14 -3
v -21 1 -3
v -21 13 -3
v -19 0 -3
v -19 1 -3
v -14 14 -3
v -4 13 -3
v -4 14 -3
v 4 13 -3
v 4 14 -3
v 14 14 -3
v 19 0 -3
v 19 1 -3
v 21 1 -3
v 21 13 -3
v 22 0 -3
v 22 14 -3
v -14 14 -4
v -14 19 -4
v -13 15 -4
v -13 18 -4
v -5 15 -4
v -5 18 -4
v -4 13 -4
v -4 14 -4
v -4 19 -4
v -3 13 -4
v -3 14 -4
v 3 13 -4
v 3 14 -4
v 4 13 -4
v 4 14 -4
v 4 19 -4
v 5 15 -4
v 5 18 -4
v 13 15 -4
v 13 18 -4
v 14 14 -4
v 14 19 -4
v -4 15 -5
v -4 18 -5
v 4 15 -5
v 4 18 -5
v -4 14 -14
v -4 19 -14
v -3 14 -14
v 3 14 -14
v 4 14 -14
v 4 19 -14
v -21 1 -21
v -21 13 -21
v -3 1 -21
v -3 13 -21
v 3 1 -21
v 3 13 -21
v 21 1 -21
v 21 13 -21
v -3 0 -22
v -3 14 -22
v 3 0 -22
v 3 14 -22
v -3 0 22
v 3 0 22
v -3 0 19
v 3 0 19
v -22 0 3
v -19 0 3
v 19 0 3
v 22 0 3
v -22 0 -3
v -19 0 -3
v 19 0 -3
v 22 0 -3
v -3 0 -19
v 3 0 -19
v -3 0 -22
v 3 0 -22
v -21 1 21
v -3 1 21
v 3 1 21
v 21 1 21
v -19 1 19
v -3 1 19
v 3 1 19
v 19 1 19
v -21 1 3
v -19 1 3
v 19 1 3
v 21 1 3
v -21 1 -3
v -19 1 -3
v 19 1 -3
v 21 1 -3
v -19 1 -19
v -3 1 -19
v 3 1 -19
v 19 1 -19
v -21 1 -21
v -3 1 -21
v 3 1 -21
v 21 1 -21
v -19 12 19
v -3 12 19
v 3 12 19
v 19 12 19
v -19 12 3
v 19 12 3
v -19 12 -3
v 19 12 -3
v -19 12 -19
v -3 12 -19
v 3 12 -19
v 19 12 -19
v -4 14 15
v -3 14 15
v 3 14 15
v 4 14 15
v -14 14 4
v -4 14 4
v -3 14 4
v 3 14 4
v 4 14 4
v 14 14 4
v -14 14 3
v -4 14 3
v 4 14 3
v 14 14 3
v -14 14 -3
v -4 14 -3
v 4 14 -3
v 14 14 -3
v -14 14 -4
v -4 14 -4
v -3 14 -4
v 3 14 -4
v 4 14 -4
v 14 14 -4
v -4 14 -14
v -3 14 -14
v 3 14 -14
v 4 14 -14
v -4 18 14
v 4 18 14
v -4 18 5
v 4 18 5
v -13 18 4
v -5 18 4
v 5 18 4
v 13 18 4
v -13 18 -4
v -5 18 -4
v 5 18 -4
v 13 18 -4
v -4 18 -5
v 4 18 -5
v -4 18 -13
v 4 18 -13
v -21 13 21
v -3 13 21
v 3 13 21
v 21 13 21
v -4 13 4
v -3 13 4
v 3 13 4
v 4 13 4
v -21 13 3
v -4 13 3
v 4 13 3
v 21 13 3
v -21 13 -3
v -4 13 -3
v 4 13 -3
v 21 13 -3
v -4 13 -4
v -3 13 -4
v 3 13 -4
v 4 13 -4
v -21 13 -21
v -3 13 -21
v 3 13 -21
v 21 13 -21
v -3 14 22
v 3 14 22
v -3 14 15
v 3 14 15
v -4 14 4
v 4 14 4
v -22 14 3
v -14 14 3
v 14 14 3
v 22 14 3
v -22 14 -3
v -14 14 -3
v 14 14 -3
v 22 14 -3
v -4 14 -4
v 4 14 -4
v -3 14 -14
v 3 14 -14
v -3 14 -22
v 3 14 -22
v -4 15 14
v 4 15 14
v -4 15 5
v 4 15 5
v -13 15 4
v -5 15 4
v 5 15 4
v 13 15 4
v -13 15 -4
v -5 15 -4
v 5 15 -4
v 13 15 -4
v -4 15 -5
v 4 15 -5
v -4 15 -13
v 4 15 -13
v -4 19 15
v 4 19 15
v -14 19 4
v -4 19 4
v 4 19 4
v 14 19 4
v -14 19 -4
v -4 19 -4
v 4 19 -4
v 14 19 -4
v -4 19 -14
v 4 19 -14

# faces
f 3/2/1 2/2/1 1/2/1
f 4/2/1 2/2/1 3/2/1
f 9/1/1 6/1/1 5/1/1
f 10/1/1 6/1/1 9/1/1
f 11/1/1 8/1/1 7/1/1
f 12/1/1 8/1/1 11/1/1
f 17/2/1 14/2/1 13/2/1
f 17/2/1 16/2/1 15/2/1
f 17/2/1 15/2/1 14/2/1
f 18/2/1 16/2/1 17/2/1
f 21/2/1 20/2/1 19/2/1
f 22/2/1 20/2/1 21/2/1
f 28/2/1 24/2/1 23/2/1
f 29/2/1 24/2/1 28/2/1
f 30/2/1 26/2/1 25/2/1
f 31/2/1 26/2/1 30/2/1
f 33/2/1 28/2/1 27/2/1
f 34/2/1 28/2/1 33/2/1
f 35/2/1 32/2/1 31/2/1
f 36/2/1 32/2/1 35/2/1
f 37/2/1 33/2/1 27/2/1
f 38/2/1 28/2/1 34/2/1
f 39/2/1 35/2/1 31/2/1
f 40/2/1 32/2/1 36/2/1
f 41/2/1 37/2/1 27/2/1
f 41/2/1 38/2/1 37/2/1
f 42/2/1 28/2/1 38/2/1
f 42/2/1 38/2/1 41/2/1
f 43/2/1 40/2/1 39/2/1
f 43/2/1 39/2/1 31/2/1
f 44/2/1 32/2/1 40/2/1
f 44/2/1 40/2/1 43/2/1
f 49/2/1 46/2/1 45/2/1
f 50/2/1 46/2/1 49/2/1
f 51/2/1 48/2/1 47/2/1
f 52/2/1 48/2/1 51/2/1
f 53/2/1 49/2/1 45/2/1
f 56/2/1 48/2/1 52/2/1
f 57/2/1 54/2/1 53/2/1
f 57/2/1 53/2/1 45/2/1
f 58/2/1 54/2/1 57/2/1
f 59/2/1 54/2/1 58/2/1
f 60/2/1 56/2/1 55/2/1
f 61/2/1 56/2/1 60/2/1
f 62/2/1 48/2/1 56/2/1
f 62/2/1 56/2/1 61/2/1
f 65/2/1 64/2/1 63/2/1
f 66/2/1 64/2/1 65/2/1
f 69/2/1 68/2/1 67/2/1
f 70/2/1 68/2/1 69/2/1
f 74/2/1 72/2/1 71/2/1
f 75/2/1 72/2/1 74/2/1
f 77/1/1 74/1/1 73/1/1
f 78/2/1 75/2/1 74/2/1
f 78/1/1 74/1/1 77/1/1
f 79/1/1 76/1/1 75/1/1
f 79/2/1 75/2/1 78/2/1
f 80/1/1 76/1/1 79/1/1
f 81/2/2 82/2/2 84/2/2
f 84/2/2 82/2/2 85/2/2
f 83/1/2 84/1/2 87/1/2
f 84/2/2 85/2/2 88/2/2
f 87/1/2 84/1/2 88/1/2
f 85/1/2 86/1/2 89/1/2
f 88/2/2 85/2/2 89/2/2
f 89/1/2 86/1/2 90/1/2
f 91/2/2 92/2/2 93/2/2
f 93/2/2 92/2/2 94/2/2
f 95/2/2 96/2/2 97/2/2
f 97/2/2 96/2/2 98/2/2
f 99/2/2 100/2/2 103/2/2
f 103/2/2 100/2/2 104/2/2
f 101/2/2 102/2/2 105/2/2
f 105/2/2 102/2/2 106/2/2
f 99/2/2 103/2/2 107/2/2
f 106/2/2 102/2/2 110/2/2
f 107/2/2 108/2/2 111/2/2
f 99/2/2 107/2/2 111/2/2
f 111/2/2 108/2/2 112/2/2
f 112/2/2 108/2/2 113/2/2
f 109/2/2 110/2/2 114/2/2
f 114/2/2 110/2/2 115/2/2
f 110/2/2 102/2/2 116/2/2
f 115/2/2 110/2/2 116/2/2
f 117/2/2 118/2/2 122/2/2
f 122/2/2 118/2/2 123/2/2
f 119/2/2 120/2/2 124/2/2
f 124/2/2 120/2/2 125/2/2
f 121/2/2 122/2/2 127/2/2
f 127/2/2 122/2/2 128/2/2
f 125/2/2 126/2/2 129/2/2
f 129/2/2 126/2/2 130/2/2
f 121/2/2 127/2/2 131/2/2
f 128/2/2 122/2/2 132/2/2
f 125/2/2 129/2/2 133/2/2
f 130/2/2 126/2/2 134/2/2
f 121/2/2 131/2/2 135/2/2
f 131/2/2 132/2/2 135/2/2
f 132/2/2 122/2/2 136/2/2
f 135/2/2 132/2/2 136/2/2
f 133/2/2 134/2/2 137/2/2
f 125/2/2 133/2/2 137/2/2
f 134/2/2 126/2/2 138/2/2
f 137/2/2 134/2/2 138/2/2
f 139/2/2 140/2/2 141/2/2
f 141/2/2 140/2/2 142/2/2
f 143/2/2 144/2/2 147/2/2
f 145/2/2 146/2/2 147/2/2
f 144/2/2 145/2/2 147/2/2
f 147/2/2 146/2/2 148/2/2
f 149/1/2 150/1/2 153/1/2
f 153/1/2 150/1/2 154/1/2
f 151/1/2 152/1/2 155/1/2
f 155/1/2 152/1/2 156/1/2
f 157/2/2 158/2/2 159/2/2
f 159/2/2 158/2/2 160/2/2
f 163/2/3 162/2/3 161/2/3
f 164/2/3 162/2/3 163/2/3
f 167/1/3 166/1/3 165/1/3
f 168/1/3 166/1/3 167/1/3
f 171/1/3 170/1/3 169/1/3
f 172/1/3 170/1/3 171/1/3
f 175/2/3 174/2/3 173/2/3
f 176/2/3 174/2/3 175/2/3
f 177/2/3 174/2/3 176/2/3
f 178/2/3 174/2/3 177/2/3
f 181/2/3 180/2/3 179/2/3
f 182/2/3 180/2/3 181/2/3
f 185/2/3 184/2/3 183/2/3
f 186/2/3 184/2/3 185/2/3
f 187/2/3 185/2/3 183/2/3
f 188/2/3 184/2/3 186/2/3
f 190/2/3 187/2/3 183/2/3
f 190/2/3 188/2/3 187/2/3
f 191/2/3 184/2/3 188/2/3
f 191/2/3 188/2/3 190/2/3
f 192/2/3 190/2/3 189/2/3
f 193/2/3 190/2/3 192/2/3
f 196/2/3 195/2/3 194/2/3
f 197/2/3 195/2/3 196/2/3
f 199/2/3 198/2/3 197/2/3
f 200/2/3 198/2/3 199/2/3
f 201/2/3 199/2/3 197/2/3
f 202/2/3 198/2/3 200/2/3
f 203/2/3 201/2/3 197/2/3
f 203/2/3 202/2/3 201/2/3
f 204/2/3 198/2/3 202/2/3
f 204/2/3 202/2/3 203/2/3
f 207/2/3 206/2/3 205/2/3
f 208/2/3 206/2/3 207/2/3
f 209/2/3 207/2/3 205/2/3
f 210/2/3 207/2/3 209/2/3
f 211/2/3 206/2/3 208/2/3
f 212/2/3 211/2/3 208/2/3
f 213/2/3 211/2/3 212/2/3
f 216/2/3 215/2/3 214/2/3
f 219/2/3 218/2/3 217/2/3
f 220/2/3 216/2/3 214/2/3
f 221/2/3 219/2/3 217/2/3
f 221/2/3 220/2/3 219/2/3
f 222/2/3 216/2/3 220/2/3
f 222/2/3 220/2/3 221/2/3
f 225/2/3 224/2/3 223/2/3
f 226/2/3 224/2/3 225/2/3
f 229/2/3 228/2/3 227/2/3
f 230/2/3 228/2/3 229/2/3
f 234/1/3 232/1/3 231/1/3
f 235/1/3 232/1/3 234/1/3
f 236/2/3 234/2/3 233/2/3
f 236/2/3 235/2/3 234/2/3
f 237/2/3 235/2/3 236/2/3
f 238/2/3 235/2/3 237/2/3
f 239/1/3 238/1/3 237/1/3
f 240/1/3 238/1/3 239/1/3
f 241/1/4 242/1/4 244/1/4
f 244/1/4 242/1/4 245/1/4
f 243/2/4 244/2/4 246/2/4
f 244/2/4 245/2/4 246/2/4
f 246/2/4 245/2/4 247/2/4
f 247/2/4 245/2/4 248/2/4
f 247/1/4 248/1/4 249/1/4
f 249/1/4 248/1/4 250/1/4
f 251/2/4 252/2/4 253/2/4
f 253/2/4 252/2/4 254/2/4
f 255/2/4 256/2/4 257/2/4
f 257/2/4 256/2/4 258/2/4
f 259/2/4 260/2/4 261/2/4
f 261/2/4 260/2/4 262/2/4
f 259/2/4 261/2/4 263/2/4
f 263/2/4 261/2/4 264/2/4
f 262/2/4 260/2/4 265/2/4
f 262/2/4 265/2/4 266/2/4
f 266/2/4 265/2/4 267/2/4
f 268/2/4 269/2/4 270/2/4
f 271/2/4 272/2/4 273/2/4
f 268/2/4 270/2/4 274/2/4
f 271/2/4 273/2/4 275/2/4
f 273/2/4 274/2/4 275/2/4
f 274/2/4 270/2/4 276/2/4
f 275/2/4 274/2/4 276/2/4
f 277/2/4 278/2/4 279/2/4
f 279/2/4 278/2/4 280/2/4
f 277/2/4 279/2/4 281/2/4
f 280/2/4 278/2/4 282/2/4
f 277/2/4 281/2/4 284/2/4
f 281/2/4 282/2/4 284/2/4
f 282/2/4 278/2/4 285/2/4
f 284/2/4 282/2/4 285/2/4
f 283/2/4 284/2/4 286/2/4
f 286/2/4 284/2/4 287/2/4
f 288/2/4 289/2/4 290/2/4
f 290/2/4 289/2/4 291/2/4
f 291/2/4 292/2/4 293/2/4
f 293/2/4 292/2/4 294/2/4
f 291/2/4 293/2/4 295/2/4
f 294/2/4 292/2/4 296/2/4
f 291/2/4 295/2/4 297/2/4
f 295/2/4 296/2/4 297/2/4
f 296/2/4 292/2/4 298/2/4
f 297/2/4 296/2/4 298/2/4
f 299/2/4 300/2/4 301/2/4
f 301/2/4 300/2/4 302/2/4
f 303/2/4 304/2/4 305/2/4
f 305/2/4 304/2/4 306/2/4
f 306/2/4 304/2/4 307/2/4
f 307/2/4 304/2/4 308/2/4
f 309/1/4 310/1/4 311/1/4
f 311/1/4 310/1/4 312/1/4
f 313/1/4 314/1/4 315/1/4
f 315/1/4 314/1/4 316/1/4
f 317/2/4 318/2/4 319/2/4
f 319/2/4 318/2/4 320/2/4
f 323/2/5 322/2/5 321/2/5
f 324/2/5 322/2/5 323/2/5
f 329/2/5 326/2/5 325/2/5
f 330/2/5 326/2/5 329/2/5
f 331/2/5 328/2/5 327/2/5
f 332/2/5 328/2/5 331/2/5
f 335/2/5 334/2/5 333/2/5
f 336/2/5 334/2/5 335/2/5
f 341/1/5 338/1/5 337/1/5
f 342/1/5 338/1/5 341/1/5
f 343/1/5 340/1/5 339/1/5
f 344/1/5 340/1/5 343/1/5
f 345/1/5 341/1/5 337/1/5
f 346/1/5 341/1/5 345/1/5
f 347/1/5 340/1/5 344/1/5
f 348/1/5 340/1/5 347/1/5
f 353/1/5 350/1/5 349/1/5
f 356/1/5 352/1/5 351/1/5
f 357/1/5 354/1/5 353/1/5
f 357/1/5 353/1/5 349/1/5
f 358/1/5 354/1/5 357/1/5
f 359/1/5 356/1/5 355/1/5
f 360/1/5 352/1/5 356/1/5
f 360/1/5 356/1/5 359/1/5
f 365/1/5 362/1/5 361/1/5
f 365/1/5 364/1/5 363/1/5
f 365/1/5 363/1/5 362/1/5
f 366/1/5 364/1/5 365/1/5
f 367/1/5 366/1/5 365/1/5
f 368/1/5 366/1/5 367/1/5
f 369/1/5 368/1/5 367/1/5
f 370/1/5 368/1/5 369/1/5
f 371/1/5 368/1/5 370/1/5
f 372/1/5 368/1/5 371/1/5
f 378/2/5 374/2/5 373/2/5
f 379/2/5 374/2/5 378/2/5
f 380/2/5 376/2/5 375/2/5
f 381/2/5 376/2/5 380/2/5
f 383/2/5 378/2/5 377/2/5
f 384/2/5 378/2/5 383/2/5
f 385/2/5 382/2/5 381/2/5
f 386/2/5 382/2/5 385/2/5
f 391/2/5 388/2/5 387/2/5
f 392/2/5 388/2/5 391/2/5
f 395/2/5 390/2/5 389/2/5
f 396/2/5 390/2/5 395/2/5
f 397/2/5 393/2/5 392/2/5
f 398/2/5 393/2/5 397/2/5
f 399/2/5 395/2/5 394/2/5
f 400/2/5 395/2/5 399/2/5
f 403/2/5 402/2/5 401/2/5
f 404/2/5 402/2/5 403/2/5
f 409/2/5 406/2/5 405/2/5
f 410/2/5 406/2/5 409/2/5
f 411/2/5 408/2/5 407/2/5
f 412/2/5 408/2/5 411/2/5
f 415/2/5 414/2/5 413/2/5
f 416/2/5 414/2/5 415/2/5
f 417/1/6 418/1/6 421/1/6
f 421/1/6 418/1/6 422/1/6
f 419/1/6 420/1/6 423/1/6
f 423/1/6 420/1/6 424/1/6
f 417/1/6 421/1/6 425/1/6
f 425/1/6 421/1/6 426/1/6
f 424/1/6 420/1/6 427/1/6
f 427/1/6 420/1/6 428/1/6
f 429/1/6 430/1/6 433/1/6
f 431/1/6 432/1/6 436/1/6
f 433/1/6 434/1/6 437/1/6
f 429/1/6 433/1/6 437/1/6
f 437/1/6 434/1/6 438/1/6
f 435/1/6 436/1/6 439/1/6
f 436/1/6 432/1/6 440/1/6
f 439/1/6 436/1/6 440/1/6
f 441/2/6 442/2/6 443/2/6
f 443/2/6 442/2/6 444/2/6
f 447/2/6 448/2/6 451/2/6
f 451/2/6 448/2/6 452/2/6
f 449/2/6 450/2/6 453/2/6
f 453/2/6 450/2/6 454/2/6
f 445/2/6 446/2/6 455/2/6
f 455/2/6 446/2/6 456/2/6
f 457/2/6 458/2/6 459/2/6
f 459/2/6 458/2/6 460/2/6
f 461/2/6 462/2/6 463/2/6
f 463/2/6 462/2/6 464/2/6
f 465/2/6 466/2/6 469/2/6
f 469/2/6 466/2/6 470/2/6
f 467/2/6 468/2/6 471/2/6
f 471/2/6 468/2/6 472/2/6
f 473/2/6 474/2/6 475/2/6
f 475/2/6 474/2/6 476/2/6
f 477/2/6 478/2/6 480/2/6
f 480/2/6 478/2/6 481/2/6
f 479/2/6 480/2/6 483/2/6
f 483/2/6 480/2/6 484/2/6
f 481/2/6 482/2/6 485/2/6
f 485/2/6 482/2/6 486/2/6
f 484/2/6 485/2/6 487/2/6
f 487/2/6 485/2/6 488/2/6
