# MagicaVoxel @ Ephtracy

# material
mtllib iso_pigbank.mtl
usemtl palette

# normals
vn -1 0 0
vn 1 0 0
vn 0 0 1
vn 0 0 -1
vn 0 -1 0
vn 0 1 0

# texcoords
vt 0.0566406 0.5
vt 0.0605469 0.5
vt 0.974609 0.5
vt 0.978516 0.5
vt 0.994141 0.5

# verts
v -5 8 -0
v -5 8 -1
v -5 10 1
v -5 10 -0
v -5 11 1
v -5 11 -1
v -3 6 5
v -3 6 -5
v -3 8 -0
v -3 8 -1
v -3 9 -0
v -3 9 -1
v -3 18 3
v -3 18 -3
v -3 19 3
v -3 19 -3
v -3 23 3
v -3 23 -3
v -3 25 5
v -3 25 3
v -3 25 -3
v -3 25 -5
v -2 18 3
v -2 18 -3
v -2 19 3
v -2 19 -3
v -1 0 5
v -1 0 3
v -1 0 -3
v -1 0 -5
v -1 2 5
v -1 2 3
v -1 2 -3
v -1 2 -5
v -1 6 7
v -1 6 5
v -1 6 3
v -1 6 -3
v -1 6 -5
v -1 6 -7
v -1 8 7
v -1 8 5
v -1 8 -5
v -1 8 -7
v -1 16 7
v -1 16 5
v -1 16 -5
v -1 16 -7
v 0 22 4
v 0 22 3
v 0 22 -3
v 0 22 -4
v 0 23 4
v 0 23 3
v 0 23 -3
v 0 23 -4
v 1 6 5
v 1 6 3
v 1 6 -3
v 1 6 -5
v 1 7 3
v 1 7 -3
v 1 8 5
v 1 8 -5
v 1 16 5
v 1 16 4
v 1 16 -4
v 1 16 -5
v 1 17 4
v 1 17 -4
v 2 17 4
v 2 17 -4
v 2 18 3
v 2 18 -3
v 2 21 3
v 2 21 -3
v 2 22 4
v 2 22 -4
v 3 18 3
v 3 18 1
v 3 18 -1
v 3 18 -3
v 3 20 1
v 3 20 -1
v 3 21 3
v 3 21 -3
v 4 18 1
v 4 18 -1
v 4 20 1
v 4 20 -1
v -4 9 -0
v -4 9 -1
v -4 10 1
v -4 10 -0
v -4 11 1
v -4 11 -1
v -3 8 -0
v -3 8 -1
v -3 9 -0
v -3 9 -1
v -2 7 4
v -2 7 -4
v -2 8 -0
v -2 8 -1
v -2 9 -0
v -2 9 -1
v -2 18 3
v -2 18 -3
v -2 19 3
v -2 19 -3
v -2 22 3
v -2 22 -3
v -2 23 4
v -2 23 3
v -2 23 -3
v -2 23 -4
v -1 6 5
v -1 6 3
v -1 6 -3
v -1 6 -5
v -1 7 4
v -1 7 3
v -1 7 -3
v -1 7 -4
v -1 8 5
v -1 8 -5
v -1 16 5
v -1 16 4
v -1 16 -4
v -1 16 -5
v -1 18 3
v -1 18 -3
v -1 19 3
v -1 19 -3
v 0 23 5
v 0 23 3
v 0 23 -3
v 0 23 -5
v 0 25 5
v 0 25 3
v 0 25 -3
v 0 25 -5
v 1 0 5
v 1 0 3
v 1 0 -3
v 1 0 -5
v 1 2 5
v 1 2 3
v 1 2 -3
v 1 2 -5
v 1 6 7
v 1 6 5
v 1 6 3
v 1 6 -3
v 1 6 -5
v 1 6 -7
v 1 8 7
v 1 8 5
v 1 8 -5
v 1 8 -7
v 1 16 7
v 1 16 5
v 1 16 -5
v 1 16 -7
v 2 6 5
v 2 6 -5
v 2 17 5
v 2 17 -5
v 3 17 5
v 3 17 3
v 3 17 -3
v 3 17 -5
v 3 21 3
v 3 21 -3
v 3 23 5
v 3 23 -5
v 4 18 2
v 4 18 1
v 4 18 -1
v 4 18 -2
v 4 20 2
v 4 20 1
v 4 20 -1
v 4 20 -2
v 5 17 3
v 5 17 -3
v 5 18 2
v 5 18 1
v 5 18 -1
v 5 18 -2
v 5 20 2
v 5 20 1
v 5 20 -1
v 5 20 -2
v 5 21 3
v 5 21 -3
v -1 6 7
v -1 8 7
v -1 16 7
v 1 6 7
v 1 8 7
v 1 16 7
v -3 6 5
v -3 25 5
v -1 0 5
v -1 2 5
v -1 6 5
v -1 8 5
v -1 16 5
v 0 20 5
v 0 21 5
v 0 23 5
v 0 25 5
v 1 0 5
v 1 2 5
v 1 6 5
v 1 8 5
v 1 16 5
v 1 20 5
v 1 21 5
v 2 6 5
v 2 17 5
v 3 17 5
v 3 23 5
v -2 18 3
v -2 19 3
v -2 22 3
v -2 23 3
v -1 6 3
v -1 7 3
v -1 18 3
v -1 19 3
v 0 22 3
v 0 23 3
v 1 6 3
v 1 7 3
v 3 17 3
v 3 21 3
v 5 17 3
v 5 21 3
v -5 10 1
v -5 11 1
v -4 10 1
v -4 11 1
v 4 18 1
v 4 20 1
v 5 18 1
v 5 20 1
v -5 8 -0
v -5 10 -0
v -4 9 -0
v -4 10 -0
v -3 8 -0
v -3 9 -0
v -3 8 -1
v -3 9 -1
v -2 8 -1
v -2 9 -1
v 3 18 -1
v 3 20 -1
v 4 18 -1
v 4 20 -1
v 4 18 -2
v 4 20 -2
v 5 18 -2
v 5 20 -2
v -3 18 -3
v -3 19 -3
v -3 23 -3
v -3 25 -3
v -2 18 -3
v -2 19 -3
v -1 0 -3
v -1 2 -3
v -1 6 -3
v 0 23 -3
v 0 25 -3
v 1 0 -3
v 1 2 -3
v 1 6 -3
v 2 18 -3
v 2 21 -3
v 3 18 -3
v 3 21 -3
v -2 7 -4
v -2 23 -4
v -1 7 -4
v -1 16 -4
v 0 20 -4
v 0 21 -4
v 0 22 -4
v 0 23 -4
v 1 16 -4
v 1 17 -4
v 1 20 -4
v 1 21 -4
v 2 17 -4
v 2 22 -4
v -1 6 -5
v -1 8 -5
v -1 16 -5
v 1 6 -5
v 1 8 -5
v 1 16 -5
v -1 6 5
v -1 8 5
v -1 16 5
v 1 6 5
v 1 8 5
v 1 16 5
v -2 7 4
v -2 23 4
v -1 7 4
v -1 16 4
v 0 20 4
v 0 21 4
v 0 22 4
v 0 23 4
v 1 16 4
v 1 17 4
v 1 20 4
v 1 21 4
v 2 17 4
v 2 22 4
v -3 18 3
v -3 19 3
v -3 23 3
v -3 25 3
v -2 18 3
v -2 19 3
v -1 0 3
v -1 2 3
v -1 6 3
v 0 23 3
v 0 25 3
v 1 0 3
v 1 2 3
v 1 6 3
v 2 18 3
v 2 21 3
v 3 18 3
v 3 21 3
v 4 18 2
v 4 20 2
v 5 18 2
v 5 20 2
v 3 18 1
v 3 20 1
v 4 18 1
v 4 20 1
v -3 8 -0
v -3 9 -0
v -2 8 -0
v -2 9 -0
v -5 8 -1
v -5 11 -1
v -4 9 -1
v -4 11 -1
v -3 8 -1
v -3 9 -1
v 4 18 -1
v 4 20 -1
v 5 18 -1
v 5 20 -1
v -2 18 -3
v -2 19 -3
v -2 22 -3
v -2 23 -3
v -1 6 -3
v -1 7 -3
v -1 18 -3
v -1 19 -3
v 0 22 -3
v 0 23 -3
v 1 6 -3
v 1 7 -3
v 3 17 -3
v 3 21 -3
v 5 17 -3
v 5 21 -3
v -3 6 -5
v -3 25 -5
v -1 0 -5
v -1 2 -5
v -1 6 -5
v -1 8 -5
v -1 16 -5
v 0 20 -5
v 0 21 -5
v 0 23 -5
v 0 25 -5
v 1 0 -5
v 1 2 -5
v 1 6 -5
v 1 8 -5
v 1 16 -5
v 1 20 -5
v 1 21 -5
v 2 6 -5
v 2 17 -5
v 3 17 -5
v 3 23 -5
v -1 6 -7
v -1 8 -7
v -1 16 -7
v 1 6 -7
v 1 8 -7
v 1 16 -7
v -1 0 5
v 1 0 5
v -1 0 3
v 1 0 3
v -1 0 -3
v 1 0 -3
v -1 0 -5
v 1 0 -5
v -1 6 7
v 1 6 7
v -3 6 5
v -1 6 5
v 1 6 5
v 2 6 5
v -1 6 3
v 1 6 3
v -1 6 -3
v 1 6 -3
v -3 6 -5
v -1 6 -5
v 1 6 -5
v 2 6 -5
v -1 6 -7
v 1 6 -7
v -5 8 -0
v -3 8 -0
v -5 8 -1
v -3 8 -1
v -3 9 -0
v -2 9 -0
v -3 9 -1
v -2 9 -1
v -5 10 1
v -4 10 1
v -5 10 -0
v -4 10 -0
v -1 16 5
v 1 16 5
v -1 16 4
v 1 16 4
v -1 16 -4
v 1 16 -4
v -1 16 -5
v 1 16 -5
v 2 17 5
v 3 17 5
v 3 17 3
v 5 17 3
v 3 17 -3
v 5 17 -3
v 2 17 -5
v 3 17 -5
v -2 18 3
v -1 18 3
v -2 18 -3
v -1 18 -3
v -3 19 3
v -2 19 3
v -3 19 -3
v -2 19 -3
v 4 20 2
v 5 20 2
v 3 20 1
v 4 20 1
v 5 20 1
v 3 20 -1
v 4 20 -1
v 5 20 -1
v 4 20 -2
v 5 20 -2
v 2 21 3
v 3 21 3
v 2 21 -3
v 3 21 -3
v 0 22 4
v 2 22 4
v -2 22 3
v 0 22 3
v -2 22 -3
v 0 22 -3
v 0 22 -4
v 2 22 -4
v -2 23 4
v 0 23 4
v -2 23 3
v 0 23 3
v -2 23 -3
v 0 23 -3
v -2 23 -4
v 0 23 -4
v -1 6 5
v 1 6 5
v -1 6 3
v 1 6 3
v -1 6 -3
v 1 6 -3
v -1 6 -5
v 1 6 -5
v -2 7 4
v -1 7 4
v -1 7 3
v 1 7 3
v -1 7 -3
v 1 7 -3
v -2 7 -4
v -1 7 -4
v -3 8 -0
v -2 8 -0
v -3 8 -1
v -2 8 -1
v -4 9 -0
v -3 9 -0
v -4 9 -1
v -3 9 -1
v -5 11 1
v -4 11 1
v -5 11 -1
v -4 11 -1
v -1 16 7
v 1 16 7
v -1 16 5
v 1 16 5
v -1 16 -5
v 1 16 -5
v -1 16 -7
v 1 16 -7
v 1 17 4
v 2 17 4
v 1 17 -4
v 2 17 -4
v -3 18 3
v -2 18 3
v 2 18 3
v 3 18 3
v 4 18 2
v 5 18 2
v 3 18 1
v 4 18 1
v 5 18 1
v 3 18 -1
v 4 18 -1
v 5 18 -1
v 4 18 -2
v 5 18 -2
v -3 18 -3
v -2 18 -3
v 2 18 -3
v 3 18 -3
v -2 19 3
v -1 19 3
v -2 19 -3
v -1 19 -3
v 3 21 3
v 5 21 3
v 3 21 -3
v 5 21 -3
v 0 23 5
v 3 23 5
v -3 23 3
v 0 23 3
v -3 23 -3
v 0 23 -3
v 0 23 -5
v 3 23 -5
v -3 25 5
v 0 25 5
v -3 25 3
v 0 25 3
v -3 25 -3
v 0 25 -3
v -3 25 -5
v 0 25 -5

# faces
f 4/1/1 2/1/1 1/1/1
f 5/1/1 4/1/1 3/1/1
f 6/1/1 2/1/1 4/1/1
f 6/1/1 4/1/1 5/1/1
f 9/2/1 8/2/1 7/2/1
f 10/2/1 8/2/1 9/2/1
f 11/2/1 9/2/1 7/2/1
f 12/2/1 8/2/1 10/2/1
f 13/2/1 11/2/1 7/2/1
f 13/2/1 12/2/1 11/2/1
f 14/2/1 8/2/1 12/2/1
f 14/2/1 12/2/1 13/2/1
f 15/2/1 13/2/1 7/2/1
f 16/2/1 8/2/1 14/2/1
f 17/2/1 15/2/1 7/2/1
f 17/2/1 16/2/1 15/2/1
f 18/2/1 8/2/1 16/2/1
f 18/2/1 16/2/1 17/2/1
f 19/2/1 17/2/1 7/2/1
f 20/2/1 17/2/1 19/2/1
f 21/2/1 8/2/1 18/2/1
f 22/2/1 8/2/1 21/2/1
f 25/4/1 24/4/1 23/4/1
f 26/4/1 24/4/1 25/4/1
f 31/3/1 28/3/1 27/3/1
f 32/3/1 28/3/1 31/3/1
f 33/3/1 30/3/1 29/3/1
f 34/3/1 30/3/1 33/3/1
f 36/2/1 32/2/1 31/2/1
f 37/2/1 32/2/1 36/2/1
f 38/2/1 34/2/1 33/2/1
f 39/2/1 34/2/1 38/2/1
f 41/3/1 36/3/1 35/3/1
f 42/3/1 36/3/1 41/3/1
f 43/3/1 40/3/1 39/3/1
f 44/3/1 40/3/1 43/3/1
f 45/2/1 42/2/1 41/2/1
f 46/2/1 42/2/1 45/2/1
f 47/2/1 44/2/1 43/2/1
f 48/2/1 44/2/1 47/2/1
f 53/2/1 50/2/1 49/2/1
f 54/2/1 50/2/1 53/2/1
f 55/2/1 52/2/1 51/2/1
f 56/2/1 52/2/1 55/2/1
f 61/2/1 58/2/1 57/2/1
f 62/2/1 60/2/1 59/2/1
f 63/2/1 61/2/1 57/2/1
f 63/2/1 62/2/1 61/2/1
f 64/2/1 60/2/1 62/2/1
f 64/2/1 62/2/1 63/2/1
f 65/2/1 64/2/1 63/2/1
f 66/2/1 64/2/1 65/2/1
f 67/2/1 64/2/1 66/2/1
f 68/2/1 64/2/1 67/2/1
f 69/2/1 67/2/1 66/2/1
f 70/2/1 67/2/1 69/2/1
f 73/2/1 72/2/1 71/2/1
f 74/2/1 72/2/1 73/2/1
f 75/2/1 73/2/1 71/2/1
f 76/2/1 72/2/1 74/2/1
f 77/2/1 75/2/1 71/2/1
f 77/2/1 76/2/1 75/2/1
f 78/2/1 72/2/1 76/2/1
f 78/2/1 76/2/1 77/2/1
f 83/1/1 80/1/1 79/1/1
f 84/1/1 82/1/1 81/1/1
f 85/1/1 83/1/1 79/1/1
f 85/1/1 84/1/1 83/1/1
f 86/1/1 82/1/1 84/1/1
f 86/1/1 84/1/1 85/1/1
f 89/1/1 88/1/1 87/1/1
f 90/1/1 88/1/1 89/1/1
f 91/1/2 92/1/2 94/1/2
f 93/1/2 94/1/2 95/1/2
f 94/1/2 92/1/2 96/1/2
f 95/1/2 94/1/2 96/1/2
f 97/1/2 98/1/2 99/1/2
f 99/1/2 98/1/2 100/1/2
f 101/2/2 102/2/2 103/2/2
f 103/2/2 102/2/2 104/2/2
f 101/2/2 103/2/2 105/2/2
f 104/2/2 102/2/2 106/2/2
f 101/2/2 105/2/2 107/2/2
f 105/2/2 106/2/2 107/2/2
f 106/2/2 102/2/2 108/2/2
f 107/2/2 106/2/2 108/2/2
f 101/2/2 107/2/2 109/2/2
f 108/2/2 102/2/2 110/2/2
f 101/2/2 109/2/2 111/2/2
f 109/2/2 110/2/2 111/2/2
f 110/2/2 102/2/2 112/2/2
f 111/2/2 110/2/2 112/2/2
f 101/2/2 111/2/2 113/2/2
f 113/2/2 111/2/2 114/2/2
f 112/2/2 102/2/2 115/2/2
f 115/2/2 102/2/2 116/2/2
f 117/2/2 118/2/2 121/2/2
f 121/2/2 118/2/2 122/2/2
f 119/2/2 120/2/2 123/2/2
f 123/2/2 120/2/2 124/2/2
f 117/2/2 121/2/2 125/2/2
f 124/2/2 120/2/2 126/2/2
f 125/2/2 121/2/2 127/2/2
f 127/2/2 121/2/2 128/2/2
f 124/2/2 126/2/2 129/2/2
f 129/2/2 126/2/2 130/2/2
f 131/4/2 132/4/2 133/4/2
f 133/4/2 132/4/2 134/4/2
f 135/2/2 136/2/2 139/2/2
f 139/2/2 136/2/2 140/2/2
f 137/2/2 138/2/2 141/2/2
f 141/2/2 138/2/2 142/2/2
f 143/3/2 144/3/2 147/3/2
f 147/3/2 144/3/2 148/3/2
f 145/3/2 146/3/2 149/3/2
f 149/3/2 146/3/2 150/3/2
f 147/2/2 148/2/2 152/2/2
f 152/2/2 148/2/2 153/2/2
f 149/2/2 150/2/2 154/2/2
f 154/2/2 150/2/2 155/2/2
f 151/3/2 152/3/2 157/3/2
f 157/3/2 152/3/2 158/3/2
f 155/3/2 156/3/2 159/3/2
f 159/3/2 156/3/2 160/3/2
f 157/2/2 158/2/2 161/2/2
f 161/2/2 158/2/2 162/2/2
f 159/2/2 160/2/2 163/2/2
f 163/2/2 160/2/2 164/2/2
f 165/2/2 166/2/2 167/2/2
f 167/2/2 166/2/2 168/2/2
f 169/2/2 170/2/2 173/2/2
f 171/2/2 172/2/2 174/2/2
f 169/2/2 173/2/2 175/2/2
f 173/2/2 174/2/2 175/2/2
f 174/2/2 172/2/2 176/2/2
f 175/2/2 174/2/2 176/2/2
f 177/1/2 178/1/2 181/1/2
f 181/1/2 178/1/2 182/1/2
f 179/1/2 180/1/2 183/1/2
f 183/1/2 180/1/2 184/1/2
f 185/1/2 186/1/2 187/1/2
f 187/1/2 186/1/2 188/1/2
f 188/1/2 186/1/2 189/1/2
f 189/1/2 186/1/2 190/1/2
f 185/1/2 187/1/2 191/1/2
f 188/1/2 189/1/2 192/1/2
f 192/1/2 189/1/2 193/1/2
f 190/1/2 186/1/2 194/1/2
f 192/1/2 193/1/2 195/1/2
f 193/1/2 194/1/2 195/1/2
f 185/1/2 191/1/2 195/1/2
f 191/1/2 192/1/2 195/1/2
f 194/1/2 186/1/2 196/1/2
f 195/1/2 194/1/2 196/1/2
f 200/3/3 198/3/3 197/3/3
f 201/2/3 199/2/3 198/2/3
f 201/3/3 198/3/3 200/3/3
f 202/2/3 199/2/3 201/2/3
f 207/2/3 204/2/3 203/2/3
f 208/2/3 204/2/3 207/2/3
f 209/2/3 204/2/3 208/2/3
f 210/2/3 204/2/3 209/2/3
f 211/2/3 204/2/3 210/2/3
f 212/2/3 204/2/3 211/2/3
f 213/2/3 204/2/3 212/2/3
f 214/3/3 206/3/3 205/3/3
f 215/2/3 207/2/3 206/2/3
f 215/3/3 206/3/3 214/3/3
f 216/2/3 207/2/3 215/2/3
f 218/2/3 210/2/3 209/2/3
f 219/5/3 211/5/3 210/5/3
f 219/2/3 210/2/3 218/2/3
f 220/2/3 212/2/3 211/2/3
f 220/5/3 211/5/3 219/5/3
f 221/2/3 217/2/3 216/2/3
f 221/2/3 218/2/3 217/2/3
f 221/2/3 220/2/3 219/2/3
f 221/2/3 219/2/3 218/2/3
f 222/2/3 220/2/3 221/2/3
f 223/2/3 220/2/3 222/2/3
f 224/2/3 212/2/3 220/2/3
f 224/2/3 220/2/3 223/2/3
f 231/4/3 226/4/3 225/4/3
f 232/4/3 226/4/3 231/4/3
f 233/2/3 228/2/3 227/2/3
f 234/2/3 228/2/3 233/2/3
f 235/2/3 230/2/3 229/2/3
f 236/2/3 230/2/3 235/2/3
f 239/1/3 238/1/3 237/1/3
f 240/1/3 238/1/3 239/1/3
f 243/1/3 242/1/3 241/1/3
f 244/1/3 242/1/3 243/1/3
f 247/1/3 246/1/3 245/1/3
f 248/1/3 246/1/3 247/1/3
f 251/1/3 250/1/3 249/1/3
f 252/1/3 250/1/3 251/1/3
f 253/1/3 251/1/3 249/1/3
f 254/1/3 251/1/3 253/1/3
f 257/2/3 256/2/3 255/2/3
f 258/2/3 256/2/3 257/2/3
f 261/1/3 260/1/3 259/1/3
f 262/1/3 260/1/3 261/1/3
f 265/1/3 264/1/3 263/1/3
f 266/1/3 264/1/3 265/1/3
f 271/2/3 268/2/3 267/2/3
f 272/2/3 268/2/3 271/2/3
f 276/2/3 270/2/3 269/2/3
f 277/2/3 270/2/3 276/2/3
f 278/3/3 274/3/3 273/3/3
f 279/2/3 275/2/3 274/2/3
f 279/3/3 274/3/3 278/3/3
f 280/2/3 275/2/3 279/2/3
f 283/2/3 282/2/3 281/2/3
f 284/2/3 282/2/3 283/2/3
f 287/2/3 286/2/3 285/2/3
f 288/2/3 286/2/3 287/2/3
f 289/2/3 286/2/3 288/2/3
f 290/2/3 286/2/3 289/2/3
f 291/2/3 286/2/3 290/2/3
f 292/2/3 286/2/3 291/2/3
f 293/2/3 289/2/3 288/2/3
f 294/2/3 289/2/3 293/2/3
f 295/5/3 290/5/3 289/5/3
f 295/2/3 289/2/3 294/2/3
f 296/2/3 291/2/3 290/2/3
f 296/5/3 290/5/3 295/5/3
f 297/2/3 295/2/3 294/2/3
f 297/2/3 296/2/3 295/2/3
f 298/2/3 291/2/3 296/2/3
f 298/2/3 296/2/3 297/2/3
f 302/3/3 300/3/3 299/3/3
f 303/2/3 301/2/3 300/2/3
f 303/3/3 300/3/3 302/3/3
f 304/2/3 301/2/3 303/2/3
f 305/3/4 306/3/4 308/3/4
f 306/2/4 307/2/4 309/2/4
f 308/3/4 306/3/4 309/3/4
f 309/2/4 307/2/4 310/2/4
f 311/2/4 312/2/4 313/2/4
f 313/2/4 312/2/4 314/2/4
f 314/2/4 312/2/4 315/2/4
f 315/2/4 312/2/4 316/2/4
f 316/2/4 312/2/4 317/2/4
f 317/2/4 312/2/4 318/2/4
f 314/2/4 315/2/4 319/2/4
f 319/2/4 315/2/4 320/2/4
f 315/5/4 316/5/4 321/5/4
f 320/2/4 315/2/4 321/2/4
f 316/2/4 317/2/4 322/2/4
f 321/5/4 316/5/4 322/5/4
f 320/2/4 321/2/4 323/2/4
f 321/2/4 322/2/4 323/2/4
f 322/2/4 317/2/4 324/2/4
f 323/2/4 322/2/4 324/2/4
f 325/2/4 326/2/4 329/2/4
f 329/2/4 326/2/4 330/2/4
f 327/2/4 328/2/4 334/2/4
f 334/2/4 328/2/4 335/2/4
f 331/3/4 332/3/4 336/3/4
f 332/2/4 333/2/4 337/2/4
f 336/3/4 332/3/4 337/3/4
f 337/2/4 333/2/4 338/2/4
f 339/2/4 340/2/4 341/2/4
f 341/2/4 340/2/4 342/2/4
f 343/1/4 344/1/4 345/1/4
f 345/1/4 344/1/4 346/1/4
f 347/1/4 348/1/4 349/1/4
f 349/1/4 348/1/4 350/1/4
f 351/2/4 352/2/4 353/2/4
f 353/2/4 352/2/4 354/2/4
f 355/1/4 356/1/4 357/1/4
f 357/1/4 356/1/4 358/1/4
f 355/1/4 357/1/4 359/1/4
f 359/1/4 357/1/4 360/1/4
f 361/1/4 362/1/4 363/1/4
f 363/1/4 362/1/4 364/1/4
f 365/4/4 366/4/4 371/4/4
f 371/4/4 366/4/4 372/4/4
f 367/2/4 368/2/4 373/2/4
f 373/2/4 368/2/4 374/2/4
f 369/2/4 370/2/4 375/2/4
f 375/2/4 370/2/4 376/2/4
f 377/1/4 378/1/4 379/1/4
f 379/1/4 378/1/4 380/1/4
f 381/2/4 382/2/4 385/2/4
f 385/2/4 382/2/4 386/2/4
f 386/2/4 382/2/4 387/2/4
f 387/2/4 382/2/4 388/2/4
f 388/2/4 382/2/4 389/2/4
f 389/2/4 382/2/4 390/2/4
f 390/2/4 382/2/4 391/2/4
f 383/3/4 384/3/4 392/3/4
f 384/2/4 385/2/4 393/2/4
f 392/3/4 384/3/4 393/3/4
f 393/2/4 385/2/4 394/2/4
f 387/2/4 388/2/4 396/2/4
f 388/5/4 389/5/4 397/5/4
f 396/2/4 388/2/4 397/2/4
f 389/2/4 390/2/4 398/2/4
f 397/5/4 389/5/4 398/5/4
f 394/2/4 395/2/4 399/2/4
f 395/2/4 396/2/4 399/2/4
f 397/2/4 398/2/4 399/2/4
f 396/2/4 397/2/4 399/2/4
f 399/2/4 398/2/4 400/2/4
f 400/2/4 398/2/4 401/2/4
f 398/2/4 390/2/4 402/2/4
f 401/2/4 398/2/4 402/2/4
f 403/3/4 404/3/4 406/3/4
f 404/2/4 405/2/4 407/2/4
f 406/3/4 404/3/4 407/3/4
f 407/2/4 405/2/4 408/2/4
f 411/3/5 410/3/5 409/3/5
f 412/3/5 410/3/5 411/3/5
f 415/3/5 414/3/5 413/3/5
f 416/3/5 414/3/5 415/3/5
f 420/3/5 418/3/5 417/3/5
f 421/3/5 418/3/5 420/3/5
f 423/2/5 420/2/5 419/2/5
f 424/2/5 422/2/5 421/2/5
f 425/2/5 423/2/5 419/2/5
f 425/2/5 424/2/5 423/2/5
f 426/2/5 422/2/5 424/2/5
f 426/2/5 424/2/5 425/2/5
f 427/2/5 425/2/5 419/2/5
f 428/2/5 425/2/5 427/2/5
f 429/2/5 422/2/5 426/2/5
f 430/2/5 422/2/5 429/2/5
f 431/3/5 429/3/5 428/3/5
f 432/3/5 429/3/5 431/3/5
f 435/1/5 434/1/5 433/1/5
f 436/1/5 434/1/5 435/1/5
f 439/2/5 438/2/5 437/2/5
f 440/2/5 438/2/5 439/2/5
f 443/1/5 442/1/5 441/1/5
f 444/1/5 442/1/5 443/1/5
f 447/2/5 446/2/5 445/2/5
f 448/2/5 446/2/5 447/2/5
f 451/2/5 450/2/5 449/2/5
f 452/2/5 450/2/5 451/2/5
f 455/2/5 454/2/5 453/2/5
f 457/2/5 455/2/5 453/2/5
f 457/1/5 456/1/5 455/1/5
f 458/1/5 456/1/5 457/1/5
f 459/2/5 457/2/5 453/2/5
f 460/2/5 457/2/5 459/2/5
f 463/4/5 462/4/5 461/4/5
f 464/4/5 462/4/5 463/4/5
f 467/2/5 466/2/5 465/2/5
f 468/2/5 466/2/5 467/2/5
f 472/1/5 470/1/5 469/1/5
f 473/1/5 470/1/5 472/1/5
f 474/1/5 472/1/5 471/1/5
f 475/1/5 472/1/5 474/1/5
f 477/1/5 476/1/5 475/1/5
f 478/1/5 476/1/5 477/1/5
f 481/2/5 480/2/5 479/2/5
f 482/2/5 480/2/5 481/2/5
f 486/2/5 484/2/5 483/2/5
f 487/2/5 486/2/5 485/2/5
f 488/2/5 484/2/5 486/2/5
f 488/2/5 486/2/5 487/2/5
f 489/2/5 484/2/5 488/2/5
f 490/2/5 484/2/5 489/2/5
f 493/2/5 492/2/5 491/2/5
f 494/2/5 492/2/5 493/2/5
f 497/2/5 496/2/5 495/2/5
f 498/2/5 496/2/5 497/2/5
f 499/2/6 500/2/6 501/2/6
f 501/2/6 500/2/6 502/2/6
f 503/2/6 504/2/6 505/2/6
f 505/2/6 504/2/6 506/2/6
f 507/2/6 508/2/6 509/2/6
f 507/2/6 509/2/6 511/2/6
f 509/2/6 510/2/6 511/2/6
f 511/2/6 510/2/6 512/2/6
f 507/2/6 511/2/6 513/2/6
f 513/2/6 511/2/6 514/2/6
f 515/2/6 516/2/6 517/2/6
f 517/2/6 516/2/6 518/2/6
f 519/1/6 520/1/6 521/1/6
f 521/1/6 520/1/6 522/1/6
f 523/1/6 524/1/6 525/1/6
f 525/1/6 524/1/6 526/1/6
f 527/2/6 528/2/6 529/2/6
f 529/2/6 528/2/6 530/2/6
f 531/2/6 532/2/6 533/2/6
f 533/2/6 532/2/6 534/2/6
f 535/2/6 536/2/6 537/2/6
f 537/2/6 536/2/6 538/2/6
f 541/2/6 542/2/6 545/2/6
f 543/1/6 544/1/6 546/1/6
f 546/1/6 544/1/6 547/1/6
f 541/2/6 545/2/6 548/2/6
f 545/1/6 546/1/6 548/1/6
f 548/1/6 546/1/6 549/1/6
f 549/1/6 550/1/6 551/1/6
f 551/1/6 550/1/6 552/1/6
f 539/2/6 540/2/6 553/2/6
f 553/2/6 540/2/6 554/2/6
f 541/2/6 548/2/6 555/2/6
f 555/2/6 548/2/6 556/2/6
f 557/4/6 558/4/6 559/4/6
f 559/4/6 558/4/6 560/4/6
f 561/1/6 562/1/6 563/1/6
f 563/1/6 562/1/6 564/1/6
f 565/2/6 566/2/6 568/2/6
f 567/2/6 568/2/6 569/2/6
f 568/2/6 566/2/6 570/2/6
f 569/2/6 568/2/6 570/2/6
f 570/2/6 566/2/6 571/2/6
f 571/2/6 566/2/6 572/2/6
f 573/2/6 574/2/6 575/2/6
f 575/2/6 574/2/6 576/2/6
f 577/2/6 578/2/6 579/2/6
f 579/2/6 578/2/6 580/2/6
