# MagicaVoxel @ Ephtracy

# material
mtllib iso_model.mtl
usemtl palette

# normals
vn -1 0 0
vn 1 0 0
vn 0 0 1
vn 0 0 -1
vn 0 -1 0
vn 0 1 0

# texcoords
vt 0.0332031 0.5
vt 0.0488281 0.5
vt 0.0722656 0.5
vt 0.400391 0.5
vt 0.650391 0.5
vt 0.994141 0.5

# verts
v -2.5 10 2
v -2.5 10 -0
v -2.5 12 -0
v -2.5 12 -2
v -2.5 14 -2
v -2.5 14 -3
v -2.5 22 -2
v -2.5 22 -3
v -2.5 24 2
v -2.5 24 -2
v -1.5 8 4
v -1.5 8 -4
v -1.5 10 2
v -1.5 10 -0
v -1.5 12 4
v -1.5 12 2
v -1.5 12 -0
v -1.5 12 -2
v -1.5 12 -4
v -1.5 14 4
v -1.5 14 2
v -1.5 14 -3
v -1.5 14 -4
v -1.5 18 4
v -1.5 18 2
v -1.5 18 -3
v -1.5 18 -4
v -1.5 22 -2
v -1.5 22 -3
v -1.5 24 2
v -1.5 24 -2
v -1.5 25 2
v -1.5 25 -3
v -0.5 0 3
v -0.5 0 2
v -0.5 0 -2
v -0.5 0 -3
v -0.5 4 3
v -0.5 4 2
v -0.5 4 -2
v -0.5 4 -3
v -0.5 8 5
v -0.5 8 4
v -0.5 8 3
v -0.5 8 2
v -0.5 8 -2
v -0.5 8 -3
v -0.5 8 -4
v -0.5 8 -5
v -0.5 12 4
v -0.5 12 -4
v -0.5 14 4
v -0.5 14 -4
v -0.5 18 5
v -0.5 18 4
v -0.5 18 -4
v -0.5 18 -5
v 0.5 2 3
v 0.5 2 2
v 0.5 2 -2
v 0.5 2 -3
v 0.5 4 3
v 0.5 4 2
v 0.5 4 -2
v 0.5 4 -3
v 0.5 8 5
v 0.5 8 4
v 0.5 8 3
v 0.5 8 2
v 0.5 8 -2
v 0.5 8 -3
v 0.5 8 -4
v 0.5 8 -5
v 0.5 12 4
v 0.5 12 -4
v 0.5 14 4
v 0.5 14 -4
v 0.5 18 5
v 0.5 18 4
v 0.5 18 2
v 0.5 18 1
v 0.5 18 -1
v 0.5 18 -2
v 0.5 18 -4
v 0.5 18 -5
v 0.5 19 2
v 0.5 19 1
v 0.5 19 -1
v 0.5 19 -2
v 1.5 8 4
v 1.5 8 -4
v 1.5 12 4
v 1.5 12 2
v 1.5 12 -2
v 1.5 12 -4
v 1.5 14 2
v 1.5 14 -2
v 1.5 18 1
v 1.5 18 -1
v 1.5 19 1
v 1.5 19 -1
v 2.5 0 3
v 2.5 0 2
v 2.5 0 -2
v 2.5 0 -3
v 2.5 2 3
v 2.5 2 2
v 2.5 2 -2
v 2.5 2 -3
v 2.5 14 4
v 2.5 14 -4
v 2.5 18 4
v 2.5 18 -2
v 2.5 18 -3
v 2.5 18 -4
v 2.5 19 2
v 2.5 19 -2
v 2.5 23 2
v 2.5 23 -2
v 2.5 25 2
v 2.5 25 -3
v -0.5 8 5
v -0.5 18 5
v 0.5 8 5
v 0.5 18 5
v -1.5 8 4
v -1.5 12 4
v -1.5 14 4
v -1.5 18 4
v -0.5 8 4
v -0.5 12 4
v -0.5 14 4
v -0.5 18 4
v 0.5 8 4
v 0.5 12 4
v 0.5 14 4
v 0.5 18 4
v 1.5 8 4
v 1.5 12 4
v 2.5 14 4
v 2.5 18 4
v -0.5 0 3
v -0.5 4 3
v -0.5 8 3
v 0.5 2 3
v 0.5 4 3
v 0.5 8 3
v 2.5 0 3
v 2.5 2 3
v -2.5 10 2
v -2.5 24 2
v -1.5 10 2
v -1.5 12 2
v -1.5 14 2
v -1.5 18 2
v -1.5 24 2
v -1.5 25 2
v 0.5 18 2
v 0.5 19 2
v 0.5 23 2
v 1.5 12 2
v 1.5 14 2
v 2.5 19 2
v 2.5 23 2
v 2.5 25 2
v 0.5 18 1
v 0.5 19 1
v 1.5 18 1
v 1.5 19 1
v -0.5 0 -2
v -0.5 4 -2
v -0.5 8 -2
v 0.5 2 -2
v 0.5 4 -2
v 0.5 8 -2
v 0.5 18 -2
v 0.5 19 -2
v 2.5 0 -2
v 2.5 2 -2
v 2.5 18 -2
v 2.5 19 -2
v -0.5 12 -4
v -0.5 14 -4
v 0.5 12 -4
v 0.5 14 -4
v -0.5 12 4
v -0.5 14 4
v 0.5 12 4
v 0.5 14 4
v -0.5 0 2
v -0.5 4 2
v -0.5 8 2
v 0.5 2 2
v 0.5 4 2
v 0.5 8 2
v 2.5 0 2
v 2.5 2 2
v -2.5 10 -0
v -2.5 12 -0
v -1.5 10 -0
v -1.5 12 -0
v 0.5 18 -1
v 0.5 19 -1
v 1.5 18 -1
v 1.5 19 -1
v -2.5 12 -2
v -2.5 14 -2
v -2.5 22 -2
v -2.5 24 -2
v -1.5 12 -2
v -1.5 14 -2
v -1.5 22 -2
v -1.5 24 -2
v 1.5 12 -2
v 1.5 14 -2
v -2.5 14 -3
v -2.5 22 -3
v -1.5 14 -3
v -1.5 18 -3
v -1.5 22 -3
v -1.5 25 -3
v -0.5 0 -3
v -0.5 4 -3
v -0.5 8 -3
v 0.5 2 -3
v 0.5 4 -3
v 0.5 8 -3
v 2.5 0 -3
v 2.5 2 -3
v 2.5 18 -3
v 2.5 25 -3
v -1.5 8 -4
v -1.5 12 -4
v -1.5 14 -4
v -1.5 18 -4
v -0.5 8 -4
v -0.5 12 -4
v -0.5 14 -4
v -0.5 18 -4
v 0.5 8 -4
v 0.5 12 -4
v 0.5 14 -4
v 0.5 18 -4
v 1.5 8 -4
v 1.5 12 -4
v 2.5 14 -4
v 2.5 18 -4
v -0.5 8 -5
v -0.5 18 -5
v 0.5 8 -5
v 0.5 18 -5
v -0.5 0 3
v 2.5 0 3
v -0.5 0 2
v 2.5 0 2
v -0.5 0 -2
v 2.5 0 -2
v -0.5 0 -3
v 2.5 0 -3
v -0.5 8 5
v 0.5 8 5
v -1.5 8 4
v -0.5 8 4
v 0.5 8 4
v 1.5 8 4
v -0.5 8 3
v 0.5 8 3
v -0.5 8 2
v 0.5 8 2
v -0.5 8 -2
v 0.5 8 -2
v -0.5 8 -3
v 0.5 8 -3
v -1.5 8 -4
v -0.5 8 -4
v 0.5 8 -4
v 1.5 8 -4
v -0.5 8 -5
v 0.5 8 -5
v -2.5 10 2
v -1.5 10 2
v -2.5 10 -0
v -1.5 10 -0
v -2.5 12 -0
v -1.5 12 -0
v -2.5 12 -2
v -1.5 12 -2
v -1.5 14 4
v -0.5 14 4
v 0.5 14 4
v 2.5 14 4
v -1.5 14 2
v 1.5 14 2
v -2.5 14 -2
v -1.5 14 -2
v 1.5 14 -2
v -2.5 14 -3
v -1.5 14 -3
v -1.5 14 -4
v -0.5 14 -4
v 0.5 14 -4
v 2.5 14 -4
v 0.5 19 2
v 2.5 19 2
v 0.5 19 1
v 1.5 19 1
v 0.5 19 -1
v 1.5 19 -1
v 0.5 19 -2
v 2.5 19 -2
v 0.5 2 3
v 2.5 2 3
v 0.5 2 2
v 2.5 2 2
v 0.5 2 -2
v 2.5 2 -2
v 0.5 2 -3
v 2.5 2 -3
v -1.5 12 4
v -0.5 12 4
v 0.5 12 4
v 1.5 12 4
v -1.5 12 2
v 1.5 12 2
v -1.5 12 -2
v 1.5 12 -2
v -1.5 12 -4
v -0.5 12 -4
v 0.5 12 -4
v 1.5 12 -4
v -0.5 18 5
v 0.5 18 5
v -1.5 18 4
v -0.5 18 4
v 0.5 18 4
v 2.5 18 4
v -1.5 18 2
v 0.5 18 2
v 0.5 18 1
v 1.5 18 1
v 0.5 18 -1
v 1.5 18 -1
v 0.5 18 -2
v 2.5 18 -2
v -1.5 18 -3
v 2.5 18 -3
v -1.5 18 -4
v -0.5 18 -4
v 0.5 18 -4
v 2.5 18 -4
v -0.5 18 -5
v 0.5 18 -5
v -2.5 22 -2
v -1.5 22 -2
v -2.5 22 -3
v -1.5 22 -3
v -2.5 24 2
v -1.5 24 2
v -2.5 24 -2
v -1.5 24 -2
v -1.5 25 2
v 2.5 25 2
v -1.5 25 -3
v 2.5 25 -3

# faces
f 3/2/1 2/2/1 1/2/1
f 5/2/1 4/2/1 3/2/1
f 7/2/1 5/2/1 3/2/1
f 7/2/1 6/2/1 5/2/1
f 8/2/1 6/2/1 7/2/1
f 9/2/1 3/2/1 1/2/1
f 9/2/1 7/2/1 3/2/1
f 10/2/1 7/2/1 9/2/1
f 13/4/1 12/4/1 11/4/1
f 14/4/1 12/4/1 13/4/1
f 15/4/1 13/4/1 11/4/1
f 16/4/1 13/4/1 15/4/1
f 17/4/1 12/4/1 14/4/1
f 18/4/1 12/4/1 17/4/1
f 19/4/1 12/4/1 18/4/1
f 24/4/1 21/4/1 20/4/1
f 25/4/1 21/4/1 24/4/1
f 26/4/1 23/4/1 22/4/1
f 27/4/1 23/4/1 26/4/1
f 31/2/1 29/2/1 28/2/1
f 32/2/1 31/2/1 30/2/1
f 33/2/1 29/2/1 31/2/1
f 33/2/1 31/2/1 32/2/1
f 38/3/1 35/3/1 34/3/1
f 39/3/1 35/3/1 38/3/1
f 40/3/1 37/3/1 36/3/1
f 41/3/1 37/3/1 40/3/1
f 44/1/1 39/1/1 38/1/1
f 45/1/1 39/1/1 44/1/1
f 46/1/1 41/1/1 40/1/1
f 47/1/1 41/1/1 46/1/1
f 50/1/1 43/1/1 42/1/1
f 51/1/1 49/1/1 48/1/1
f 52/1/1 50/1/1 42/1/1
f 53/1/1 49/1/1 51/1/1
f 54/1/1 52/1/1 42/1/1
f 55/1/1 52/1/1 54/1/1
f 56/1/1 49/1/1 53/1/1
f 57/1/1 49/1/1 56/1/1
f 58/3/2 59/3/2 62/3/2
f 62/3/2 59/3/2 63/3/2
f 60/3/2 61/3/2 64/3/2
f 64/3/2 61/3/2 65/3/2
f 62/1/2 63/1/2 68/1/2
f 68/1/2 63/1/2 69/1/2
f 64/1/2 65/1/2 70/1/2
f 70/1/2 65/1/2 71/1/2
f 66/1/2 67/1/2 74/1/2
f 72/1/2 73/1/2 75/1/2
f 66/1/2 74/1/2 76/1/2
f 75/1/2 73/1/2 77/1/2
f 66/1/2 76/1/2 78/1/2
f 78/1/2 76/1/2 79/1/2
f 77/1/2 73/1/2 84/1/2
f 84/1/2 73/1/2 85/1/2
f 80/2/2 81/2/2 86/2/2
f 86/2/2 81/2/2 87/2/2
f 82/2/2 83/2/2 88/2/2
f 88/2/2 83/2/2 89/2/2
f 90/4/2 91/4/2 92/4/2
f 92/4/2 91/4/2 93/4/2
f 93/4/2 91/4/2 94/4/2
f 94/4/2 91/4/2 95/4/2
f 93/1/2 94/1/2 96/1/2
f 96/1/2 94/1/2 97/1/2
f 98/1/2 99/1/2 100/1/2
f 100/1/2 99/1/2 101/1/2
f 102/3/2 103/3/2 106/3/2
f 106/3/2 103/3/2 107/3/2
f 104/3/2 105/3/2 108/3/2
f 108/3/2 105/3/2 109/3/2
f 110/4/2 111/4/2 112/4/2
f 112/4/2 111/4/2 113/4/2
f 113/4/2 111/4/2 114/4/2
f 114/4/2 111/4/2 115/4/2
f 113/2/2 114/2/2 117/2/2
f 116/1/2 117/1/2 118/1/2
f 117/2/2 114/2/2 119/2/2
f 118/1/2 117/1/2 119/1/2
f 118/2/2 119/2/2 120/2/2
f 119/2/2 114/2/2 121/2/2
f 120/2/2 119/2/2 121/2/2
f 124/1/3 123/1/3 122/1/3
f 125/1/3 123/1/3 124/1/3
f 130/4/3 127/4/3 126/4/3
f 131/4/3 127/4/3 130/4/3
f 132/4/3 129/4/3 128/4/3
f 133/4/3 129/4/3 132/4/3
f 138/4/3 135/4/3 134/4/3
f 139/4/3 135/4/3 138/4/3
f 140/4/3 137/4/3 136/4/3
f 141/4/3 137/4/3 140/4/3
f 145/3/3 143/3/3 142/3/3
f 146/1/3 144/1/3 143/1/3
f 146/3/3 143/3/3 145/3/3
f 147/1/3 144/1/3 146/1/3
f 148/3/3 145/3/3 142/3/3
f 149/3/3 145/3/3 148/3/3
f 152/2/3 151/2/3 150/2/3
f 153/2/3 151/2/3 152/2/3
f 154/2/3 151/2/3 153/2/3
f 155/2/3 151/2/3 154/2/3
f 156/2/3 151/2/3 155/2/3
f 158/2/3 157/2/3 156/2/3
f 158/2/3 156/2/3 155/2/3
f 159/2/3 157/2/3 158/2/3
f 160/2/3 157/2/3 159/2/3
f 161/1/3 154/1/3 153/1/3
f 162/1/3 154/1/3 161/1/3
f 163/1/3 160/1/3 159/1/3
f 164/2/3 157/2/3 160/2/3
f 164/1/3 160/1/3 163/1/3
f 165/2/3 157/2/3 164/2/3
f 168/1/3 167/1/3 166/1/3
f 169/1/3 167/1/3 168/1/3
f 173/3/3 171/3/3 170/3/3
f 174/1/3 172/1/3 171/1/3
f 174/3/3 171/3/3 173/3/3
f 175/1/3 172/1/3 174/1/3
f 178/3/3 173/3/3 170/3/3
f 179/3/3 173/3/3 178/3/3
f 180/2/3 177/2/3 176/2/3
f 181/2/3 177/2/3 180/2/3
f 184/1/3 183/1/3 182/1/3
f 185/1/3 183/1/3 184/1/3
f 186/1/4 187/1/4 188/1/4
f 188/1/4 187/1/4 189/1/4
f 190/3/4 191/3/4 193/3/4
f 191/1/4 192/1/4 194/1/4
f 193/3/4 191/3/4 194/3/4
f 194/1/4 192/1/4 195/1/4
f 190/3/4 193/3/4 196/3/4
f 196/3/4 193/3/4 197/3/4
f 198/2/4 199/2/4 200/2/4
f 200/2/4 199/2/4 201/2/4
f 202/1/4 203/1/4 204/1/4
f 204/1/4 203/1/4 205/1/4
f 206/2/4 207/2/4 210/2/4
f 210/2/4 207/2/4 211/2/4
f 208/2/4 209/2/4 212/2/4
f 212/2/4 209/2/4 213/2/4
f 210/1/4 211/1/4 214/1/4
f 214/1/4 211/1/4 215/1/4
f 216/2/4 217/2/4 218/2/4
f 218/2/4 217/2/4 219/2/4
f 219/2/4 217/2/4 220/2/4
f 222/3/4 223/3/4 225/3/4
f 223/1/4 224/1/4 226/1/4
f 225/3/4 223/3/4 226/3/4
f 226/1/4 224/1/4 227/1/4
f 222/3/4 225/3/4 228/3/4
f 228/3/4 225/3/4 229/3/4
f 220/2/4 221/2/4 230/2/4
f 219/2/4 220/2/4 230/2/4
f 230/2/4 221/2/4 231/2/4
f 232/4/4 233/4/4 236/4/4
f 236/4/4 233/4/4 237/4/4
f 234/4/4 235/4/4 238/4/4
f 238/4/4 235/4/4 239/4/4
f 240/4/4 241/4/4 244/4/4
f 244/4/4 241/4/4 245/4/4
f 242/4/4 243/4/4 246/4/4
f 246/4/4 243/4/4 247/4/4
f 248/1/4 249/1/4 250/1/4
f 250/1/4 249/1/4 251/1/4
f 254/3/5 253/3/5 252/3/5
f 255/3/5 253/3/5 254/3/5
f 258/3/5 257/3/5 256/3/5
f 259/3/5 257/3/5 258/3/5
f 263/1/5 261/1/5 260/1/5
f 264/1/5 261/1/5 263/1/5
f 266/4/5 263/4/5 262/4/5
f 266/4/5 265/4/5 264/4/5
f 266/4/5 264/4/5 263/4/5
f 267/4/5 265/4/5 266/4/5
f 268/4/5 266/4/5 262/4/5
f 269/4/5 265/4/5 267/4/5
f 270/4/5 268/4/5 262/4/5
f 270/4/5 269/4/5 268/4/5
f 271/4/5 265/4/5 269/4/5
f 271/4/5 269/4/5 270/4/5
f 272/4/5 270/4/5 262/4/5
f 273/4/5 265/4/5 271/4/5
f 274/4/5 272/4/5 262/4/5
f 274/4/5 273/4/5 272/4/5
f 275/4/5 273/4/5 274/4/5
f 276/4/5 265/4/5 273/4/5
f 276/4/5 273/4/5 275/4/5
f 277/4/5 265/4/5 276/4/5
f 278/1/5 276/1/5 275/1/5
f 279/1/5 276/1/5 278/1/5
f 282/2/5 281/2/5 280/2/5
f 283/2/5 281/2/5 282/2/5
f 286/2/5 285/2/5 284/2/5
f 287/2/5 285/2/5 286/2/5
f 292/4/5 289/4/5 288/4/5
f 292/4/5 291/4/5 290/4/5
f 292/4/5 290/4/5 289/4/5
f 293/4/5 291/4/5 292/4/5
f 296/4/5 291/4/5 293/4/5
f 297/2/5 295/2/5 294/2/5
f 298/4/5 296/4/5 295/4/5
f 298/2/5 295/2/5 297/2/5
f 299/4/5 296/4/5 298/4/5
f 300/4/5 296/4/5 299/4/5
f 301/4/5 296/4/5 300/4/5
f 302/4/5 291/4/5 296/4/5
f 302/4/5 296/4/5 301/4/5
f 305/1/5 304/1/5 303/1/5
f 306/1/5 304/1/5 305/1/5
f 308/1/5 304/1/5 306/1/5
f 309/1/5 308/1/5 307/1/5
f 310/1/5 304/1/5 308/1/5
f 310/1/5 308/1/5 309/1/5
f 311/3/6 312/3/6 313/3/6
f 313/3/6 312/3/6 314/3/6
f 315/3/6 316/3/6 317/3/6
f 317/3/6 316/3/6 318/3/6
f 319/4/6 320/4/6 323/4/6
f 321/4/6 322/4/6 323/4/6
f 320/4/6 321/4/6 323/4/6
f 323/4/6 322/4/6 324/4/6
f 325/4/6 326/4/6 327/4/6
f 327/4/6 326/4/6 328/4/6
f 328/4/6 326/4/6 329/4/6
f 329/4/6 326/4/6 330/4/6
f 331/1/6 332/1/6 334/1/6
f 334/1/6 332/1/6 335/1/6
f 333/4/6 334/4/6 337/4/6
f 335/4/6 336/4/6 337/4/6
f 334/4/6 335/4/6 337/4/6
f 337/4/6 336/4/6 338/4/6
f 338/4/6 336/4/6 339/4/6
f 339/4/6 336/4/6 340/4/6
f 340/4/6 336/4/6 342/4/6
f 341/4/6 342/4/6 343/4/6
f 342/4/6 336/4/6 344/4/6
f 343/4/6 342/4/6 344/4/6
f 345/4/6 346/4/6 347/4/6
f 347/4/6 346/4/6 348/4/6
f 348/4/6 346/4/6 349/4/6
f 349/4/6 346/4/6 350/4/6
f 348/1/6 349/1/6 351/1/6
f 351/1/6 349/1/6 352/1/6
f 353/2/6 354/2/6 355/2/6
f 355/2/6 354/2/6 356/2/6
f 357/2/6 358/2/6 359/2/6
f 359/2/6 358/2/6 360/2/6
f 361/2/6 362/2/6 363/2/6
f 363/2/6 362/2/6 364/2/6
