# MagicaVoxel @ ephtracy

# material
mtllib iso_deer.mtl
usemtl palette

# normals
vn -1 0 0
vn 1 0 0
vn 0 0 1
vn 0 0 -1
vn 0 -1 0
vn 0 1 0

# texcoords
vt 0.306641 0.5
vt 0.513672 0.5
vt 0.962891 0.5
vt 0.974609 0.5
vt 0.978516 0.5
vt 0.982422 0.5
vt 0.990234 0.5
vt 0.994141 0.5

# verts
v -7 33 -1.5
v -7 33 -2.5
v -7 34 -1.5
v -7 34 -2.5
v -6 32 -1.5
v -6 32 -2.5
v -6 33 -1.5
v -6 33 -2.5
v -6 34 -1.5
v -6 34 -2.5
v -6 35 -1.5
v -6 35 -2.5
v -5 29 -1.5
v -5 29 -2.5
v -5 30 -1.5
v -5 30 -2.5
v -4 10 -1.5
v -4 10 -2.5
v -4 11 -1.5
v -4 11 -2.5
v -4 17 -1.5
v -4 17 -2.5
v -3 0 -1.5
v -3 0 -2.5
v -3 1 -1.5
v -3 1 -2.5
v -3 6 -0.5
v -3 6 -1.5
v -3 6 -2.5
v -3 6 -3.5
v -3 8 -0.5
v -3 8 -3.5
v -3 9 0.5
v -3 9 -0.5
v -3 10 -1.5
v -3 10 -2.5
v -3 11 -1.5
v -3 11 -2.5
v -3 17 -1.5
v -3 17 -2.5
v -3 18 0.5
v -3 18 -3.5
v -3 27 -1.5
v -3 27 -2.5
v -3 29 -1.5
v -3 29 -2.5
v -3 30 -1.5
v -3 30 -2.5
v -3 32 -1.5
v -3 32 -2.5
v -3 33 -1.5
v -3 33 -2.5
v -3 35 -1.5
v -3 35 -2.5
v -2 11 1.5
v -2 11 0.5
v -2 15 -3.5
v -2 15 -4.5
v -2 18 0.5
v -2 18 -3.5
v -2 24 3.5
v -2 24 1.5
v -2 24 0.5
v -2 25 4.5
v -2 25 3.5
v -2 25 -0.5
v -2 25 -1.5
v -2 26 -0.5
v -2 26 -1.5
v -2 27 4.5
v -2 27 -1.5
v -2 27 -2.5
v -2 27 -3.5
v -2 27 -4.5
v -1 8 -3.5
v -1 8 -4.5
v -1 9 -3.5
v -1 9 -4.5
v -1 10 1.5
v -1 10 0.5
v -1 11 1.5
v -1 11 0.5
v 1 6 -0.5
v 1 6 -3.5
v 1 8 -0.5
v 1 8 -3.5
v 1 27 -1.5
v 1 27 -2.5
v 1 28 -1.5
v 1 28 -2.5
v 2 0 -1.5
v 2 0 -2.5
v 2 1 -1.5
v 2 1 -2.5
v 2 6 -1.5
v 2 6 -2.5
v 2 28 -1.5
v 2 28 -2.5
v 2 35 -1.5
v 2 35 -2.5
v 5 33 -1.5
v 5 33 -2.5
v 5 35 -1.5
v 5 35 -2.5
v -5 33 -1.5
v -5 33 -2.5
v -5 35 -1.5
v -5 35 -2.5
v -2 0 -1.5
v -2 0 -2.5
v -2 1 -1.5
v -2 1 -2.5
v -2 6 -1.5
v -2 6 -2.5
v -2 28 -1.5
v -2 28 -2.5
v -2 35 -1.5
v -2 35 -2.5
v -1 6 -0.5
v -1 6 -3.5
v -1 8 -0.5
v -1 8 -3.5
v -1 27 -1.5
v -1 27 -2.5
v -1 28 -1.5
v -1 28 -2.5
v 1 8 -3.5
v 1 8 -4.5
v 1 9 -3.5
v 1 9 -4.5
v 1 10 1.5
v 1 10 0.5
v 1 11 1.5
v 1 11 0.5
v 2 11 1.5
v 2 11 0.5
v 2 15 -3.5
v 2 15 -4.5
v 2 18 0.5
v 2 18 -3.5
v 2 24 3.5
v 2 24 1.5
v 2 24 0.5
v 2 25 4.5
v 2 25 3.5
v 2 25 -0.5
v 2 25 -1.5
v 2 26 -0.5
v 2 26 -1.5
v 2 27 4.5
v 2 27 -1.5
v 2 27 -2.5
v 2 27 -3.5
v 2 27 -4.5
v 3 0 -1.5
v 3 0 -2.5
v 3 1 -1.5
v 3 1 -2.5
v 3 6 -0.5
v 3 6 -1.5
v 3 6 -2.5
v 3 6 -3.5
v 3 8 -0.5
v 3 8 -3.5
v 3 9 0.5
v 3 9 -0.5
v 3 10 -1.5
v 3 10 -2.5
v 3 11 -1.5
v 3 11 -2.5
v 3 17 -1.5
v 3 17 -2.5
v 3 18 0.5
v 3 18 -3.5
v 3 27 -1.5
v 3 27 -2.5
v 3 29 -1.5
v 3 29 -2.5
v 3 30 -1.5
v 3 30 -2.5
v 3 32 -1.5
v 3 32 -2.5
v 3 33 -1.5
v 3 33 -2.5
v 3 35 -1.5
v 3 35 -2.5
v 4 10 -1.5
v 4 10 -2.5
v 4 11 -1.5
v 4 11 -2.5
v 4 17 -1.5
v 4 17 -2.5
v 5 29 -1.5
v 5 29 -2.5
v 5 30 -1.5
v 5 30 -2.5
v 6 32 -1.5
v 6 32 -2.5
v 6 33 -1.5
v 6 33 -2.5
v 6 34 -1.5
v 6 34 -2.5
v 6 35 -1.5
v 6 35 -2.5
v 7 33 -1.5
v 7 33 -2.5
v 7 34 -1.5
v 7 34 -2.5
v -2 25 4.5
v -2 27 4.5
v -1 26 4.5
v -1 27 4.5
v 1 26 4.5
v 1 27 4.5
v 2 25 4.5
v 2 27 4.5
v -2 24 3.5
v -2 25 3.5
v -1 24 3.5
v -1 25 3.5
v 1 24 3.5
v 1 25 3.5
v 2 24 3.5
v 2 25 3.5
v -2 11 1.5
v -2 24 1.5
v -1 10 1.5
v -1 11 1.5
v 1 10 1.5
v 1 11 1.5
v 2 11 1.5
v 2 24 1.5
v -3 9 0.5
v -3 18 0.5
v -2 11 0.5
v -2 18 0.5
v -1 10 0.5
v -1 11 0.5
v 1 10 0.5
v 1 11 0.5
v 2 11 0.5
v 2 18 0.5
v 3 9 0.5
v 3 18 0.5
v -3 6 -0.5
v -3 8 -0.5
v -3 9 -0.5
v -1 6 -0.5
v -1 8 -0.5
v 1 6 -0.5
v 1 8 -0.5
v 3 6 -0.5
v 3 8 -0.5
v 3 9 -0.5
v -7 33 -1.5
v -7 34 -1.5
v -6 32 -1.5
v -6 33 -1.5
v -6 34 -1.5
v -6 35 -1.5
v -5 29 -1.5
v -5 30 -1.5
v -5 33 -1.5
v -5 35 -1.5
v -4 10 -1.5
v -4 11 -1.5
v -4 17 -1.5
v -3 0 -1.5
v -3 1 -1.5
v -3 6 -1.5
v -3 10 -1.5
v -3 11 -1.5
v -3 17 -1.5
v -3 27 -1.5
v -3 29 -1.5
v -3 30 -1.5
v -3 32 -1.5
v -3 33 -1.5
v -3 35 -1.5
v -2 0 -1.5
v -2 1 -1.5
v -2 6 -1.5
v -2 27 -1.5
v -2 28 -1.5
v -2 35 -1.5
v -1 27 -1.5
v -1 28 -1.5
v 1 27 -1.5
v 1 28 -1.5
v 2 0 -1.5
v 2 1 -1.5
v 2 6 -1.5
v 2 27 -1.5
v 2 28 -1.5
v 2 35 -1.5
v 3 0 -1.5
v 3 1 -1.5
v 3 6 -1.5
v 3 10 -1.5
v 3 11 -1.5
v 3 17 -1.5
v 3 27 -1.5
v 3 29 -1.5
v 3 30 -1.5
v 3 32 -1.5
v 3 33 -1.5
v 3 35 -1.5
v 4 10 -1.5
v 4 11 -1.5
v 4 17 -1.5
v 5 29 -1.5
v 5 30 -1.5
v 5 33 -1.5
v 5 35 -1.5
v 6 32 -1.5
v 6 33 -1.5
v 6 34 -1.5
v 6 35 -1.5
v 7 33 -1.5
v 7 34 -1.5
v -7 33 -2.5
v -7 34 -2.5
v -6 32 -2.5
v -6 33 -2.5
v -6 34 -2.5
v -6 35 -2.5
v -5 29 -2.5
v -5 30 -2.5
v -5 33 -2.5
v -5 35 -2.5
v -4 10 -2.5
v -4 11 -2.5
v -4 17 -2.5
v -3 0 -2.5
v -3 1 -2.5
v -3 6 -2.5
v -3 10 -2.5
v -3 11 -2.5
v -3 17 -2.5
v -3 27 -2.5
v -3 29 -2.5
v -3 30 -2.5
v -3 32 -2.5
v -3 33 -2.5
v -3 35 -2.5
v -2 0 -2.5
v -2 1 -2.5
v -2 6 -2.5
v -2 27 -2.5
v -2 28 -2.5
v -2 35 -2.5
v -1 27 -2.5
v -1 28 -2.5
v 1 27 -2.5
v 1 28 -2.5
v 2 0 -2.5
v 2 1 -2.5
v 2 6 -2.5
v 2 27 -2.5
v 2 28 -2.5
v 2 35 -2.5
v 3 0 -2.5
v 3 1 -2.5
v 3 6 -2.5
v 3 10 -2.5
v 3 11 -2.5
v 3 17 -2.5
v 3 27 -2.5
v 3 29 -2.5
v 3 30 -2.5
v 3 32 -2.5
v 3 33 -2.5
v 3 35 -2.5
v 4 10 -2.5
v 4 11 -2.5
v 4 17 -2.5
v 5 29 -2.5
v 5 30 -2.5
v 5 33 -2.5
v 5 35 -2.5
v 6 32 -2.5
v 6 33 -2.5
v 6 34 -2.5
v 6 35 -2.5
v 7 33 -2.5
v 7 34 -2.5
v -3 6 -3.5
v -3 8 -3.5
v -3 18 -3.5
v -2 15 -3.5
v -2 18 -3.5
v -1 6 -3.5
v -1 8 -3.5
v -1 9 -3.5
v 1 6 -3.5
v 1 8 -3.5
v 1 9 -3.5
v 2 15 -3.5
v 2 18 -3.5
v 3 6 -3.5
v 3 8 -3.5
v 3 18 -3.5
v -2 15 -4.5
v -2 27 -4.5
v -1 8 -4.5
v -1 9 -4.5
v 1 8 -4.5
v 1 9 -4.5
v 2 15 -4.5
v 2 27 -4.5
v -3 0 -1.5
v -2 0 -1.5
v 2 0 -1.5
v 3 0 -1.5
v -3 0 -2.5
v -2 0 -2.5
v 2 0 -2.5
v 3 0 -2.5
v -3 6 -0.5
v -1 6 -0.5
v 1 6 -0.5
v 3 6 -0.5
v -3 6 -1.5
v -2 6 -1.5
v 2 6 -1.5
v 3 6 -1.5
v -3 6 -2.5
v -2 6 -2.5
v 2 6 -2.5
v 3 6 -2.5
v -3 6 -3.5
v -1 6 -3.5
v 1 6 -3.5
v 3 6 -3.5
v -1 8 -0.5
v 1 8 -0.5
v -1 8 -3.5
v 1 8 -3.5
v -1 8 -4.5
v 1 8 -4.5
v -3 9 0.5
v 3 9 0.5
v -3 9 -0.5
v 3 9 -0.5
v -1 10 1.5
v 1 10 1.5
v -1 10 0.5
v 1 10 0.5
v -4 10 -1.5
v -3 10 -1.5
v 3 10 -1.5
v 4 10 -1.5
v -4 10 -2.5
v -3 10 -2.5
v 3 10 -2.5
v 4 10 -2.5
v -2 11 1.5
v -1 11 1.5
v 1 11 1.5
v 2 11 1.5
v -2 11 0.5
v -1 11 0.5
v 1 11 0.5
v 2 11 0.5
v -2 15 -3.5
v 2 15 -3.5
v -2 15 -4.5
v 2 15 -4.5
v -2 24 3.5
v -1 24 3.5
v 1 24 3.5
v 2 24 3.5
v -1 24 2.5
v 1 24 2.5
v -2 24 1.5
v 2 24 1.5
v -2 25 4.5
v 2 25 4.5
v -2 25 3.5
v -1 25 3.5
v 1 25 3.5
v 2 25 3.5
v -3 27 -1.5
v -2 27 -1.5
v 2 27 -1.5
v 3 27 -1.5
v -3 27 -2.5
v -2 27 -2.5
v 2 27 -2.5
v 3 27 -2.5
v -5 29 -1.5
v -3 29 -1.5
v 3 29 -1.5
v 5 29 -1.5
v -5 29 -2.5
v -3 29 -2.5
v 3 29 -2.5
v 5 29 -2.5
v -6 32 -1.5
v -3 32 -1.5
v 3 32 -1.5
v 6 32 -1.5
v -6 32 -2.5
v -3 32 -2.5
v 3 32 -2.5
v 6 32 -2.5
v -7 33 -1.5
v -6 33 -1.5
v 6 33 -1.5
v 7 33 -1.5
v -7 33 -2.5
v -6 33 -2.5
v 6 33 -2.5
v 7 33 -2.5
v -1 9 -3.5
v 1 9 -3.5
v -1 9 -4.5
v 1 9 -4.5
v -4 17 -1.5
v -3 17 -1.5
v 3 17 -1.5
v 4 17 -1.5
v -4 17 -2.5
v -3 17 -2.5
v 3 17 -2.5
v 4 17 -2.5
v -3 18 0.5
v -2 18 0.5
v 2 18 0.5
v 3 18 0.5
v -3 18 -3.5
v -2 18 -3.5
v 2 18 -3.5
v 3 18 -3.5
v -2 27 4.5
v -1 27 4.5
v 1 27 4.5
v 2 27 4.5
v -1 27 3.5
v 1 27 3.5
v -2 27 -1.5
v -1 27 -1.5
v 1 27 -1.5
v 2 27 -1.5
v -2 27 -2.5
v -1 27 -2.5
v 1 27 -2.5
v 2 27 -2.5
v -2 27 -3.5
v 2 27 -3.5
v -2 27 -4.5
v 2 27 -4.5
v -2 28 -1.5
v -1 28 -1.5
v 1 28 -1.5
v 2 28 -1.5
v -2 28 -2.5
v -1 28 -2.5
v 1 28 -2.5
v 2 28 -2.5
v -5 30 -1.5
v -3 30 -1.5
v 3 30 -1.5
v 5 30 -1.5
v -5 30 -2.5
v -3 30 -2.5
v 3 30 -2.5
v 5 30 -2.5
v -5 33 -1.5
v -3 33 -1.5
v 3 33 -1.5
v 5 33 -1.5
v -5 33 -2.5
v -3 33 -2.5
v 3 33 -2.5
v 5 33 -2.5
v -7 34 -1.5
v -6 34 -1.5
v 6 34 -1.5
v 7 34 -1.5
v -7 34 -2.5
v -6 34 -2.5
v 6 34 -2.5
v 7 34 -2.5
v -6 35 -1.5
v -5 35 -1.5
v -3 35 -1.5
v -2 35 -1.5
v 2 35 -1.5
v 3 35 -1.5
v 5 35 -1.5
v 6 35 -1.5
v -6 35 -2.5
v -5 35 -2.5
v -3 35 -2.5
v -2 35 -2.5
v 2 35 -2.5
v 3 35 -2.5
v 5 35 -2.5
v 6 35 -2.5

# faces
f 3/3/1 2/3/1 1/3/1
f 4/3/1 2/3/1 3/3/1
f 7/3/1 6/3/1 5/3/1
f 8/3/1 6/3/1 7/3/1
f 11/3/1 10/3/1 9/3/1
f 12/3/1 10/3/1 11/3/1
f 15/3/1 14/3/1 13/3/1
f 16/3/1 14/3/1 15/3/1
f 19/7/1 18/7/1 17/7/1
f 20/7/1 18/7/1 19/7/1
f 21/6/1 20/6/1 19/6/1
f 22/6/1 20/6/1 21/6/1
f 25/7/1 24/7/1 23/7/1
f 26/7/1 24/7/1 25/7/1
f 28/6/1 26/6/1 25/6/1
f 29/6/1 26/6/1 28/6/1
f 31/8/1 29/8/1 28/8/1
f 31/8/1 30/8/1 29/8/1
f 31/8/1 28/8/1 27/8/1
f 32/8/1 30/8/1 31/8/1
f 34/5/1 32/5/1 31/5/1
f 35/5/1 32/5/1 34/5/1
f 35/5/1 34/5/1 33/5/1
f 36/5/1 32/5/1 35/5/1
f 37/5/1 35/5/1 33/5/1
f 38/5/1 32/5/1 36/5/1
f 39/5/1 37/5/1 33/5/1
f 40/5/1 32/5/1 38/5/1
f 41/5/1 39/5/1 33/5/1
f 41/5/1 40/5/1 39/5/1
f 42/5/1 32/5/1 40/5/1
f 42/5/1 40/5/1 41/5/1
f 45/3/1 44/3/1 43/3/1
f 46/3/1 44/3/1 45/3/1
f 49/3/1 48/3/1 47/3/1
f 50/3/1 48/3/1 49/3/1
f 53/3/1 52/3/1 51/3/1
f 54/3/1 52/3/1 53/3/1
f 59/8/1 56/8/1 55/8/1
f 60/6/1 58/6/1 57/6/1
f 62/8/1 59/8/1 55/8/1
f 63/5/1 60/5/1 59/5/1
f 63/8/1 59/8/1 62/8/1
f 65/5/1 62/5/1 61/5/1
f 65/5/1 63/5/1 62/5/1
f 66/5/1 60/5/1 63/5/1
f 66/5/1 63/5/1 65/5/1
f 67/5/1 60/5/1 66/5/1
f 68/5/1 65/5/1 64/5/1
f 68/5/1 66/5/1 65/5/1
f 68/7/1 67/7/1 66/7/1
f 69/5/1 60/5/1 67/5/1
f 69/7/1 67/7/1 68/7/1
f 70/5/1 68/5/1 64/5/1
f 70/5/1 69/5/1 68/5/1
f 71/5/1 60/5/1 69/5/1
f 71/5/1 69/5/1 70/5/1
f 72/5/1 60/5/1 71/5/1
f 73/6/1 58/6/1 60/6/1
f 73/5/1 60/5/1 72/5/1
f 74/6/1 58/6/1 73/6/1
f 77/6/1 76/6/1 75/6/1
f 78/6/1 76/6/1 77/6/1
f 81/8/1 80/8/1 79/8/1
f 82/8/1 80/8/1 81/8/1
f 85/8/1 84/8/1 83/8/1
f 86/8/1 84/8/1 85/8/1
f 89/3/1 88/3/1 87/3/1
f 90/3/1 88/3/1 89/3/1
f 93/7/1 92/7/1 91/7/1
f 94/7/1 92/7/1 93/7/1
f 95/6/1 94/6/1 93/6/1
f 96/6/1 94/6/1 95/6/1
f 99/3/1 98/3/1 97/3/1
f 100/3/1 98/3/1 99/3/1
f 103/3/1 102/3/1 101/3/1
f 104/3/1 102/3/1 103/3/1
f 105/3/2 106/3/2 107/3/2
f 107/3/2 106/3/2 108/3/2
f 109/7/2 110/7/2 111/7/2
f 111/7/2 110/7/2 112/7/2
f 111/6/2 112/6/2 113/6/2
f 113/6/2 112/6/2 114/6/2
f 115/3/2 116/3/2 117/3/2
f 117/3/2 116/3/2 118/3/2
f 119/8/2 120/8/2 121/8/2
f 121/8/2 120/8/2 122/8/2
f 123/3/2 124/3/2 125/3/2
f 125/3/2 124/3/2 126/3/2
f 127/6/2 128/6/2 129/6/2
f 129/6/2 128/6/2 130/6/2
f 131/8/2 132/8/2 133/8/2
f 133/8/2 132/8/2 134/8/2
f 135/8/2 136/8/2 139/8/2
f 137/6/2 138/6/2 140/6/2
f 135/8/2 139/8/2 142/8/2
f 139/5/2 140/5/2 143/5/2
f 142/8/2 139/8/2 143/8/2
f 141/5/2 142/5/2 145/5/2
f 142/5/2 143/5/2 145/5/2
f 143/5/2 140/5/2 146/5/2
f 145/5/2 143/5/2 146/5/2
f 146/5/2 140/5/2 147/5/2
f 144/5/2 145/5/2 148/5/2
f 145/5/2 146/5/2 148/5/2
f 146/7/2 147/7/2 148/7/2
f 147/5/2 140/5/2 149/5/2
f 148/7/2 147/7/2 149/7/2
f 144/5/2 148/5/2 150/5/2
f 148/5/2 149/5/2 150/5/2
f 149/5/2 140/5/2 151/5/2
f 150/5/2 149/5/2 151/5/2
f 151/5/2 140/5/2 152/5/2
f 140/6/2 138/6/2 153/6/2
f 152/5/2 140/5/2 153/5/2
f 153/6/2 138/6/2 154/6/2
f 155/7/2 156/7/2 157/7/2
f 157/7/2 156/7/2 158/7/2
f 157/6/2 158/6/2 160/6/2
f 160/6/2 158/6/2 161/6/2
f 160/8/2 161/8/2 163/8/2
f 161/8/2 162/8/2 163/8/2
f 159/8/2 160/8/2 163/8/2
f 163/8/2 162/8/2 164/8/2
f 163/5/2 164/5/2 166/5/2
f 166/5/2 164/5/2 167/5/2
f 165/5/2 166/5/2 167/5/2
f 167/5/2 164/5/2 168/5/2
f 165/5/2 167/5/2 169/5/2
f 168/5/2 164/5/2 170/5/2
f 165/5/2 169/5/2 171/5/2
f 170/5/2 164/5/2 172/5/2
f 165/5/2 171/5/2 173/5/2
f 171/5/2 172/5/2 173/5/2
f 172/5/2 164/5/2 174/5/2
f 173/5/2 172/5/2 174/5/2
f 175/3/2 176/3/2 177/3/2
f 177/3/2 176/3/2 178/3/2
f 179/3/2 180/3/2 181/3/2
f 181/3/2 180/3/2 182/3/2
f 183/3/2 184/3/2 185/3/2
f 185/3/2 184/3/2 186/3/2
f 187/7/2 188/7/2 189/7/2
f 189/7/2 188/7/2 190/7/2
f 189/6/2 190/6/2 191/6/2
f 191/6/2 190/6/2 192/6/2
f 193/3/2 194/3/2 195/3/2
f 195/3/2 194/3/2 196/3/2
f 197/3/2 198/3/2 199/3/2
f 199/3/2 198/3/2 200/3/2
f 201/3/2 202/3/2 203/3/2
f 203/3/2 202/3/2 204/3/2
f 205/3/2 206/3/2 207/3/2
f 207/3/2 206/3/2 208/3/2
f 211/5/3 210/5/3 209/5/3
f 212/5/3 210/5/3 211/5/3
f 213/5/3 211/5/3 209/5/3
f 213/7/3 212/7/3 211/7/3
f 214/7/3 212/7/3 213/7/3
f 215/5/3 213/5/3 209/5/3
f 215/5/3 214/5/3 213/5/3
f 216/5/3 214/5/3 215/5/3
f 219/5/3 218/5/3 217/5/3
f 220/5/3 218/5/3 219/5/3
f 221/4/3 220/4/3 219/4/3
f 222/4/3 220/4/3 221/4/3
f 223/5/3 222/5/3 221/5/3
f 224/5/3 222/5/3 223/5/3
f 228/8/3 226/8/3 225/8/3
f 229/8/3 228/8/3 227/8/3
f 230/8/3 226/8/3 228/8/3
f 230/8/3 228/8/3 229/8/3
f 231/8/3 226/8/3 230/8/3
f 232/8/3 226/8/3 231/8/3
f 235/5/3 234/5/3 233/5/3
f 236/5/3 234/5/3 235/5/3
f 237/5/3 235/5/3 233/5/3
f 238/5/3 235/5/3 237/5/3
f 239/5/3 237/5/3 233/5/3
f 241/5/3 240/5/3 239/5/3
f 243/5/3 241/5/3 239/5/3
f 243/5/3 242/5/3 241/5/3
f 243/5/3 239/5/3 233/5/3
f 244/5/3 242/5/3 243/5/3
f 248/8/3 246/8/3 245/8/3
f 249/5/3 247/5/3 246/5/3
f 249/8/3 246/8/3 248/8/3
f 251/5/3 247/5/3 249/5/3
f 252/8/3 251/8/3 250/8/3
f 253/5/3 247/5/3 251/5/3
f 253/8/3 251/8/3 252/8/3
f 254/5/3 247/5/3 253/5/3
f 258/3/3 256/3/3 255/3/3
f 259/3/3 256/3/3 258/3/3
f 263/3/3 258/3/3 257/3/3
f 263/3/3 259/3/3 258/3/3
f 263/3/3 260/3/3 259/3/3
f 264/3/3 260/3/3 263/3/3
f 271/7/3 266/7/3 265/7/3
f 272/6/3 267/6/3 266/6/3
f 272/7/3 266/7/3 271/7/3
f 273/6/3 267/6/3 272/6/3
f 275/3/3 262/3/3 261/3/3
f 276/3/3 262/3/3 275/3/3
f 277/3/3 263/3/3 257/3/3
f 278/3/3 263/3/3 277/3/3
f 280/7/3 269/7/3 268/7/3
f 281/6/3 270/6/3 269/6/3
f 281/7/3 269/7/3 280/7/3
f 282/6/3 270/6/3 281/6/3
f 283/3/3 279/3/3 278/3/3
f 283/3/3 276/3/3 275/3/3
f 283/3/3 278/3/3 277/3/3
f 283/3/3 277/3/3 276/3/3
f 283/3/3 275/3/3 274/3/3
f 284/3/3 279/3/3 283/3/3
f 285/3/3 279/3/3 284/3/3
f 286/3/3 284/3/3 283/3/3
f 287/3/3 284/3/3 286/3/3
f 293/3/3 289/3/3 288/3/3
f 294/3/3 289/3/3 293/3/3
f 296/7/3 291/7/3 290/7/3
f 297/6/3 292/6/3 291/6/3
f 297/7/3 291/7/3 296/7/3
f 298/6/3 292/6/3 297/6/3
f 302/3/3 294/3/3 293/3/3
f 302/3/3 295/3/3 294/3/3
f 303/3/3 295/3/3 302/3/3
f 304/3/3 295/3/3 303/3/3
f 305/3/3 295/3/3 304/3/3
f 306/3/3 295/3/3 305/3/3
f 307/3/3 295/3/3 306/3/3
f 308/7/3 300/7/3 299/7/3
f 309/6/3 301/6/3 300/6/3
f 309/7/3 300/7/3 308/7/3
f 310/6/3 301/6/3 309/6/3
f 311/3/3 304/3/3 303/3/3
f 312/3/3 304/3/3 311/3/3
f 313/3/3 306/3/3 305/3/3
f 315/3/3 314/3/3 313/3/3
f 315/3/3 313/3/3 305/3/3
f 316/3/3 314/3/3 315/3/3
f 317/3/3 314/3/3 316/3/3
f 318/3/3 314/3/3 317/3/3
f 319/3/3 317/3/3 316/3/3
f 320/3/3 317/3/3 319/3/3
f 321/3/4 322/3/4 324/3/4
f 324/3/4 322/3/4 325/3/4
f 323/3/4 324/3/4 329/3/4
f 324/3/4 325/3/4 329/3/4
f 325/3/4 326/3/4 329/3/4
f 329/3/4 326/3/4 330/3/4
f 331/7/4 332/7/4 337/7/4
f 332/6/4 333/6/4 338/6/4
f 337/7/4 332/7/4 338/7/4
f 338/6/4 333/6/4 339/6/4
f 327/3/4 328/3/4 341/3/4
f 341/3/4 328/3/4 342/3/4
f 323/3/4 329/3/4 343/3/4
f 343/3/4 329/3/4 344/3/4
f 334/7/4 335/7/4 346/7/4
f 335/6/4 336/6/4 347/6/4
f 346/7/4 335/7/4 347/7/4
f 347/6/4 336/6/4 348/6/4
f 344/3/4 345/3/4 349/3/4
f 341/3/4 342/3/4 349/3/4
f 343/3/4 344/3/4 349/3/4
f 342/3/4 343/3/4 349/3/4
f 340/3/4 341/3/4 349/3/4
f 349/3/4 345/3/4 350/3/4
f 350/3/4 345/3/4 351/3/4
f 349/3/4 350/3/4 352/3/4
f 352/3/4 350/3/4 353/3/4
f 354/3/4 355/3/4 359/3/4
f 359/3/4 355/3/4 360/3/4
f 356/7/4 357/7/4 362/7/4
f 357/6/4 358/6/4 363/6/4
f 362/7/4 357/7/4 363/7/4
f 363/6/4 358/6/4 364/6/4
f 359/3/4 360/3/4 368/3/4
f 360/3/4 361/3/4 368/3/4
f 368/3/4 361/3/4 369/3/4
f 369/3/4 361/3/4 370/3/4
f 370/3/4 361/3/4 371/3/4
f 371/3/4 361/3/4 372/3/4
f 372/3/4 361/3/4 373/3/4
f 365/7/4 366/7/4 374/7/4
f 366/6/4 367/6/4 375/6/4
f 374/7/4 366/7/4 375/7/4
f 375/6/4 367/6/4 376/6/4
f 369/3/4 370/3/4 377/3/4
f 377/3/4 370/3/4 378/3/4
f 371/3/4 372/3/4 379/3/4
f 379/3/4 380/3/4 381/3/4
f 371/3/4 379/3/4 381/3/4
f 381/3/4 380/3/4 382/3/4
f 382/3/4 380/3/4 383/3/4
f 383/3/4 380/3/4 384/3/4
f 382/3/4 383/3/4 385/3/4
f 385/3/4 383/3/4 386/3/4
f 388/5/4 389/5/4 390/5/4
f 390/5/4 389/5/4 391/5/4
f 387/8/4 388/8/4 392/8/4
f 388/5/4 390/5/4 393/5/4
f 392/8/4 388/8/4 393/8/4
f 393/5/4 390/5/4 394/5/4
f 394/5/4 390/5/4 397/5/4
f 397/5/4 390/5/4 398/5/4
f 396/5/4 397/5/4 398/5/4
f 395/8/4 396/8/4 400/8/4
f 398/5/4 399/5/4 401/5/4
f 400/8/4 396/8/4 401/8/4
f 396/5/4 398/5/4 401/5/4
f 401/5/4 399/5/4 402/5/4
f 405/6/4 406/6/4 407/6/4
f 407/6/4 406/6/4 408/6/4
f 403/6/4 404/6/4 409/6/4
f 409/6/4 404/6/4 410/6/4
f 415/7/5 412/7/5 411/7/5
f 416/7/5 412/7/5 415/7/5
f 417/7/5 414/7/5 413/7/5
f 418/7/5 414/7/5 417/7/5
f 423/8/5 420/8/5 419/8/5
f 424/8/5 420/8/5 423/8/5
f 425/8/5 422/8/5 421/8/5
f 426/8/5 422/8/5 425/8/5
f 428/8/5 420/8/5 424/8/5
f 429/8/5 425/8/5 421/8/5
f 431/8/5 428/8/5 427/8/5
f 432/8/5 420/8/5 428/8/5
f 432/8/5 428/8/5 431/8/5
f 433/8/5 430/8/5 429/8/5
f 433/8/5 429/8/5 421/8/5
f 434/8/5 430/8/5 433/8/5
f 437/5/5 436/5/5 435/5/5
f 438/5/5 436/5/5 437/5/5
f 439/6/5 438/6/5 437/6/5
f 440/6/5 438/6/5 439/6/5
f 443/5/5 442/5/5 441/5/5
f 444/5/5 442/5/5 443/5/5
f 447/8/5 446/8/5 445/8/5
f 448/8/5 446/8/5 447/8/5
f 453/7/5 450/7/5 449/7/5
f 454/7/5 450/7/5 453/7/5
f 455/7/5 452/7/5 451/7/5
f 456/7/5 452/7/5 455/7/5
f 461/8/5 458/8/5 457/8/5
f 462/8/5 458/8/5 461/8/5
f 463/8/5 460/8/5 459/8/5
f 464/8/5 460/8/5 463/8/5
f 467/6/5 466/6/5 465/6/5
f 468/6/5 466/6/5 467/6/5
f 473/5/5 470/5/5 469/5/5
f 473/4/5 471/4/5 470/4/5
f 474/5/5 472/5/5 471/5/5
f 474/4/5 471/4/5 473/4/5
f 475/5/5 473/5/5 469/5/5
f 475/5/5 474/5/5 473/5/5
f 476/5/5 472/5/5 474/5/5
f 476/5/5 474/5/5 475/5/5
f 479/5/5 478/5/5 477/5/5
f 480/5/5 478/5/5 479/5/5
f 481/5/5 478/5/5 480/5/5
f 482/5/5 478/5/5 481/5/5
f 487/3/5 484/3/5 483/3/5
f 488/3/5 484/3/5 487/3/5
f 489/3/5 486/3/5 485/3/5
f 490/3/5 486/3/5 489/3/5
f 495/3/5 492/3/5 491/3/5
f 496/3/5 492/3/5 495/3/5
f 497/3/5 494/3/5 493/3/5
f 498/3/5 494/3/5 497/3/5
f 503/3/5 500/3/5 499/3/5
f 504/3/5 500/3/5 503/3/5
f 505/3/5 502/3/5 501/3/5
f 506/3/5 502/3/5 505/3/5
f 511/3/5 508/3/5 507/3/5
f 512/3/5 508/3/5 511/3/5
f 513/3/5 510/3/5 509/3/5
f 514/3/5 510/3/5 513/3/5
f 515/6/6 516/6/6 517/6/6
f 517/6/6 516/6/6 518/6/6
f 519/6/6 520/6/6 523/6/6
f 523/6/6 520/6/6 524/6/6
f 521/6/6 522/6/6 525/6/6
f 525/6/6 522/6/6 526/6/6
f 527/5/6 528/5/6 531/5/6
f 531/5/6 528/5/6 532/5/6
f 529/5/6 530/5/6 533/5/6
f 533/5/6 530/5/6 534/5/6
f 535/5/6 536/5/6 539/5/6
f 536/7/6 537/7/6 539/7/6
f 537/5/6 538/5/6 540/5/6
f 539/7/6 537/7/6 540/7/6
f 535/5/6 539/5/6 541/5/6
f 539/5/6 540/5/6 541/5/6
f 541/5/6 540/5/6 542/5/6
f 540/5/6 538/5/6 543/5/6
f 542/5/6 540/5/6 543/5/6
f 543/5/6 538/5/6 544/5/6
f 542/5/6 543/5/6 546/5/6
f 546/5/6 543/5/6 547/5/6
f 545/5/6 546/5/6 549/5/6
f 547/5/6 548/5/6 549/5/6
f 546/5/6 547/5/6 549/5/6
f 549/5/6 548/5/6 550/5/6
f 549/6/6 550/6/6 551/6/6
f 551/6/6 550/6/6 552/6/6
f 553/3/6 554/3/6 557/3/6
f 557/3/6 554/3/6 558/3/6
f 555/3/6 556/3/6 559/3/6
f 559/3/6 556/3/6 560/3/6
f 561/3/6 562/3/6 565/3/6
f 565/3/6 562/3/6 566/3/6
f 563/3/6 564/3/6 567/3/6
f 567/3/6 564/3/6 568/3/6
f 569/3/6 570/3/6 573/3/6
f 573/3/6 570/3/6 574/3/6
f 571/3/6 572/3/6 575/3/6
f 575/3/6 572/3/6 576/3/6
f 577/3/6 578/3/6 581/3/6
f 581/3/6 578/3/6 582/3/6
f 579/3/6 580/3/6 583/3/6
f 583/3/6 580/3/6 584/3/6
f 585/3/6 586/3/6 593/3/6
f 593/3/6 586/3/6 594/3/6
f 587/3/6 588/3/6 595/3/6
f 595/3/6 588/3/6 596/3/6
f 589/3/6 590/3/6 597/3/6
f 597/3/6 590/3/6 598/3/6
f 591/3/6 592/3/6 599/3/6
f 599/3/6 592/3/6 600/3/6
