# MagicaVoxel @ Ephtracy

# material
mtllib iso_misha.mtl
usemtl palette

# normals
vn -1 0 0
vn 1 0 0
vn 0 0 1
vn 0 0 -1
vn 0 -1 0
vn 0 1 0

# texcoords
vt 0.0332031 0.5
vt 0.201172 0.5
vt 0.205078 0.5
vt 0.232422 0.5
vt 0.369141 0.5
vt 0.615234 0.5
vt 0.962891 0.5
vt 0.966797 0.5
vt 0.970703 0.5
vt 0.982422 0.5
vt 0.986328 0.5

# verts
v -5 0 -4
v -5 0 -5
v -5 2 -3
v -5 2 -4
v -5 3 -3
v -5 3 -4
v -5 3 -5
v -5 11 -4
v -5 11 -5
v -3 0 5
v -3 0 4
v -3 0 2
v -3 0 1
v -3 0 -5
v -3 0 -6
v -3 1 5
v -3 1 4
v -3 1 2
v -3 1 1
v -3 2 -5
v -3 3 4
v -3 3 2
v -3 3 -5
v -3 4 6
v -3 4 5
v -3 4 1
v -3 5 -1
v -3 5 -2
v -3 6 1
v -3 6 -1
v -3 7 -0
v -3 7 -1
v -3 8 6
v -3 8 5
v -3 8 1
v -3 8 -0
v -3 8 -1
v -3 8 -2
v -3 9 6
v -3 9 4
v -3 9 2
v -3 9 -0
v -3 9 -1
v -3 9 -2
v -3 9 -5
v -3 9 -6
v -3 10 4
v -3 10 2
v -3 10 -1
v -3 10 -2
v -3 12 4
v -3 12 2
v 0 0 -4
v 0 0 -5
v 0 2 -4
v 0 2 -5
v 1 0 -0
v 1 0 -2
v 1 2 -0
v 1 2 -2
v 1 3 -0
v 1 3 -2
v 3 0 -3
v 3 0 -5
v 3 1 -3
v 3 1 -5
v 3 2 -3
v 3 2 -5
v -4 0 -4
v -4 0 -5
v -4 2 -4
v -4 2 -5
v -2 1 5
v -2 1 4
v -2 1 2
v -2 1 1
v -2 3 4
v -2 3 2
v -2 4 6
v -2 4 5
v -2 4 1
v -2 5 5
v -2 5 1
v -2 5 -1
v -2 5 -2
v -2 6 1
v -2 6 -1
v -2 7 -0
v -2 7 -1
v -2 8 6
v -2 8 5
v -2 8 1
v -2 8 -0
v -2 8 -1
v -2 8 -2
v -2 9 6
v -2 9 5
v -2 9 1
v -2 9 -0
v -2 9 -1
v -2 9 -2
v -2 10 -1
v -2 10 -2
v -1 0 5
v -1 0 4
v -1 0 2
v -1 0 1
v -1 0 -5
v -1 0 -6
v -1 1 5
v -1 1 4
v -1 1 2
v -1 1 1
v -1 2 -5
v -1 3 -5
v -1 5 5
v -1 5 1
v -1 8 -5
v -1 9 5
v -1 9 4
v -1 9 2
v -1 9 1
v -1 9 -5
v -1 9 -6
v -1 11 4
v -1 11 2
v -1 12 4
v -1 12 2
v 1 0 -4
v 1 0 -5
v 1 2 -3
v 1 2 -4
v 1 3 -3
v 1 3 -4
v 1 3 -5
v 1 11 -4
v 1 11 -5
v 3 0 -0
v 3 0 -2
v 3 1 -1
v 3 1 -2
v 3 2 -0
v 3 2 -1
v 3 3 -0
v 3 3 -2
v 5 0 -3
v 5 0 -5
v 5 1 -3
v 5 1 -5
v 5 2 -3
v 5 2 -5
v -3 4 6
v -3 8 6
v -3 9 6
v -2 4 6
v -2 8 6
v -2 9 6
v -3 0 5
v -3 1 5
v -3 4 5
v -2 1 5
v -2 4 5
v -2 5 5
v -2 8 5
v -2 9 5
v -1 0 5
v -1 1 5
v -1 5 5
v -1 9 5
v -3 9 4
v -3 10 4
v -3 12 4
v -2 10 4
v -2 11 4
v -1 9 4
v -1 11 4
v -1 12 4
v -3 0 2
v -3 1 2
v -3 3 2
v -2 1 2
v -2 3 2
v -1 0 2
v -1 1 2
v 1 0 -0
v 1 2 -0
v 1 3 -0
v 3 0 -0
v 3 2 -0
v 3 3 -0
v -3 5 -1
v -3 6 -1
v -3 7 -1
v -3 8 -1
v -3 9 -1
v -3 10 -1
v -2 5 -1
v -2 6 -1
v -2 7 -1
v -2 8 -1
v -2 9 -1
v -2 10 -1
v -5 2 -3
v -5 3 -3
v 1 2 -3
v 1 3 -3
v 3 0 -3
v 3 1 -3
v 3 2 -3
v 5 0 -3
v 5 1 -3
v 5 2 -3
v -5 0 -4
v -5 2 -4
v -5 3 -4
v -5 11 -4
v -4 0 -4
v -4 2 -4
v -3 5 -4
v -3 6 -4
v -3 8 -4
v -3 10 -4
v -2 5 -4
v -2 6 -4
v -2 8 -4
v -1 6 -4
v -1 8 -4
v -1 9 -4
v -1 10 -4
v 0 0 -4
v 0 2 -4
v 0 8 -4
v 0 9 -4
v 1 0 -4
v 1 2 -4
v 1 3 -4
v 1 11 -4
v -3 0 -5
v -3 2 -5
v -1 0 -5
v -1 2 -5
v -3 0 4
v -3 1 4
v -3 3 4
v -2 1 4
v -2 3 4
v -1 0 4
v -1 1 4
v -3 9 2
v -3 10 2
v -3 12 2
v -2 10 2
v -2 11 2
v -1 9 2
v -1 11 2
v -1 12 2
v -3 0 1
v -3 1 1
v -3 4 1
v -3 6 1
v -2 1 1
v -2 4 1
v -2 5 1
v -2 6 1
v -2 8 1
v -2 9 1
v -1 0 1
v -1 1 1
v -1 5 1
v -1 9 1
v -3 7 -0
v -3 8 -0
v -3 9 -0
v -2 7 -0
v -2 8 -0
v -2 9 -0
v -3 5 -2
v -3 8 -2
v -3 9 -2
v -3 10 -2
v -2 5 -2
v -2 8 -2
v -2 9 -2
v -2 10 -2
v 1 0 -2
v 1 2 -2
v 1 3 -2
v 2 1 -2
v 2 2 -2
v 3 0 -2
v 3 1 -2
v 3 3 -2
v -5 0 -5
v -5 3 -5
v -5 11 -5
v -4 0 -5
v -4 2 -5
v -3 2 -5
v -3 3 -5
v -3 9 -5
v -3 10 -5
v -1 2 -5
v -1 3 -5
v -1 8 -5
v -1 9 -5
v -1 10 -5
v 0 0 -5
v 0 2 -5
v 0 8 -5
v 0 9 -5
v 1 0 -5
v 1 3 -5
v 1 11 -5
v 3 0 -5
v 3 1 -5
v 3 2 -5
v 5 0 -5
v 5 1 -5
v 5 2 -5
v -3 0 -6
v -3 9 -6
v -1 0 -6
v -1 9 -6
v -3 0 5
v -1 0 5
v -3 0 4
v -1 0 4
v -3 0 2
v -1 0 2
v -3 0 1
v -1 0 1
v 1 0 -0
v 3 0 -0
v 1 0 -2
v 3 0 -2
v 3 0 -3
v 5 0 -3
v -5 0 -4
v -4 0 -4
v 0 0 -4
v 1 0 -4
v -5 0 -5
v -4 0 -5
v -3 0 -5
v -1 0 -5
v 0 0 -5
v 1 0 -5
v 3 0 -5
v 5 0 -5
v -3 0 -6
v -1 0 -6
v -5 2 -3
v 1 2 -3
v -5 2 -4
v -4 2 -4
v 0 2 -4
v 1 2 -4
v -4 2 -5
v -3 2 -5
v -1 2 -5
v 0 2 -5
v -3 3 4
v -2 3 4
v -3 3 2
v -2 3 2
v -3 4 6
v -2 4 6
v -3 4 5
v -2 4 5
v -2 5 5
v -1 5 5
v -2 5 1
v -1 5 1
v -3 5 -1
v -2 5 -1
v -3 5 -2
v -2 5 -2
v -3 6 1
v -2 6 1
v -3 6 -1
v -2 6 -1
v -2 1 5
v -1 1 5
v -2 1 4
v -1 1 4
v -2 1 2
v -1 1 2
v -2 1 1
v -1 1 1
v 3 2 -3
v 5 2 -3
v 3 2 -5
v 5 2 -5
v 1 3 -0
v 3 3 -0
v 1 3 -2
v 3 3 -2
v -5 3 -3
v 1 3 -3
v -5 3 -4
v 1 3 -4
v -3 7 -0
v -2 7 -0
v -3 7 -1
v -2 7 -1
v -3 9 6
v -2 9 6
v -2 9 5
v -1 9 5
v -3 9 4
v -1 9 4
v -3 9 2
v -1 9 2
v -2 9 1
v -1 9 1
v -3 9 -0
v -2 9 -0
v -3 9 -5
v -1 9 -5
v -3 9 -6
v -1 9 -6
v -3 10 -1
v -2 10 -1
v -3 10 -2
v -2 10 -2
v -5 11 -4
v 1 11 -4
v -5 11 -5
v 1 11 -5
v -3 12 4
v -1 12 4
v -3 12 2
v -1 12 2

# faces
f 4/5/1 2/5/1 1/5/1
f 5/5/1 4/5/1 3/5/1
f 6/5/1 2/5/1 4/5/1
f 6/5/1 4/5/1 5/5/1
f 7/5/1 2/5/1 6/5/1
f 8/7/1 7/7/1 6/7/1
f 9/7/1 7/7/1 8/7/1
f 16/11/1 11/11/1 10/11/1
f 17/11/1 11/11/1 16/11/1
f 18/11/1 13/11/1 12/11/1
f 19/11/1 13/11/1 18/11/1
f 20/5/1 15/5/1 14/5/1
f 21/3/1 17/3/1 16/3/1
f 22/3/1 19/3/1 18/3/1
f 23/5/1 15/5/1 20/5/1
f 25/3/1 21/3/1 16/3/1
f 25/3/1 22/3/1 21/3/1
f 26/3/1 19/3/1 22/3/1
f 26/3/1 22/3/1 25/3/1
f 29/6/1 26/6/1 25/6/1
f 30/2/1 28/2/1 27/2/1
f 31/1/1 30/1/1 29/1/1
f 32/2/1 28/2/1 30/2/1
f 32/1/1 30/1/1 31/1/1
f 33/1/1 25/1/1 24/1/1
f 34/6/1 29/6/1 25/6/1
f 34/1/1 25/1/1 33/1/1
f 35/1/1 31/1/1 29/1/1
f 35/6/1 29/6/1 34/6/1
f 36/1/1 31/1/1 35/1/1
f 37/2/1 28/2/1 32/2/1
f 38/2/1 28/2/1 37/2/1
f 39/6/1 36/6/1 35/6/1
f 39/6/1 34/6/1 33/6/1
f 39/6/1 35/6/1 34/6/1
f 40/6/1 36/6/1 39/6/1
f 41/6/1 36/6/1 40/6/1
f 42/6/1 36/6/1 41/6/1
f 43/8/1 38/8/1 37/8/1
f 44/8/1 38/8/1 43/8/1
f 45/5/1 15/5/1 23/5/1
f 46/5/1 15/5/1 45/5/1
f 47/1/1 41/1/1 40/1/1
f 48/1/1 41/1/1 47/1/1
f 49/4/1 44/4/1 43/4/1
f 50/4/1 44/4/1 49/4/1
f 51/11/1 48/11/1 47/11/1
f 52/11/1 48/11/1 51/11/1
f 55/5/1 54/5/1 53/5/1
f 56/5/1 54/5/1 55/5/1
f 59/7/1 58/7/1 57/7/1
f 60/7/1 58/7/1 59/7/1
f 61/4/1 60/4/1 59/4/1
f 62/4/1 60/4/1 61/4/1
f 65/7/1 64/7/1 63/7/1
f 66/7/1 64/7/1 65/7/1
f 67/10/1 66/10/1 65/10/1
f 68/10/1 66/10/1 67/10/1
f 69/5/2 70/5/2 71/5/2
f 71/5/2 70/5/2 72/5/2
f 73/3/2 74/3/2 77/3/2
f 75/3/2 76/3/2 78/3/2
f 73/3/2 77/3/2 80/3/2
f 77/3/2 78/3/2 80/3/2
f 78/3/2 76/3/2 81/3/2
f 80/3/2 78/3/2 81/3/2
f 79/1/2 80/1/2 82/1/2
f 80/6/2 81/6/2 82/6/2
f 82/6/2 81/6/2 83/6/2
f 84/2/2 85/2/2 87/2/2
f 86/1/2 87/1/2 88/1/2
f 87/2/2 85/2/2 89/2/2
f 88/1/2 87/1/2 89/1/2
f 79/1/2 82/1/2 90/1/2
f 90/1/2 82/1/2 91/1/2
f 86/1/2 88/1/2 92/1/2
f 92/1/2 88/1/2 93/1/2
f 89/2/2 85/2/2 94/2/2
f 94/2/2 85/2/2 95/2/2
f 90/6/2 91/6/2 96/6/2
f 96/6/2 91/6/2 97/6/2
f 92/6/2 93/6/2 98/6/2
f 98/6/2 93/6/2 99/6/2
f 94/8/2 95/8/2 100/8/2
f 100/8/2 95/8/2 101/8/2
f 100/4/2 101/4/2 102/4/2
f 102/4/2 101/4/2 103/4/2
f 104/11/2 105/11/2 110/11/2
f 110/11/2 105/11/2 111/11/2
f 106/11/2 107/11/2 112/11/2
f 112/11/2 107/11/2 113/11/2
f 108/5/2 109/5/2 114/5/2
f 114/5/2 109/5/2 115/5/2
f 115/5/2 109/5/2 118/5/2
f 116/6/2 117/6/2 119/6/2
f 119/6/2 117/6/2 120/6/2
f 120/6/2 117/6/2 121/6/2
f 121/6/2 117/6/2 122/6/2
f 118/5/2 109/5/2 123/5/2
f 123/5/2 109/5/2 124/5/2
f 120/1/2 121/1/2 125/1/2
f 125/1/2 121/1/2 126/1/2
f 125/11/2 126/11/2 127/11/2
f 127/11/2 126/11/2 128/11/2
f 129/5/2 130/5/2 132/5/2
f 131/5/2 132/5/2 133/5/2
f 132/5/2 130/5/2 134/5/2
f 133/5/2 132/5/2 134/5/2
f 134/5/2 130/5/2 135/5/2
f 134/7/2 135/7/2 136/7/2
f 136/7/2 135/7/2 137/7/2
f 138/7/2 139/7/2 140/7/2
f 140/7/2 139/7/2 141/7/2
f 138/7/2 140/7/2 142/7/2
f 140/4/2 141/4/2 143/4/2
f 142/7/2 140/7/2 143/7/2
f 142/4/2 143/4/2 144/4/2
f 143/4/2 141/4/2 145/4/2
f 144/4/2 143/4/2 145/4/2
f 146/7/2 147/7/2 148/7/2
f 148/7/2 147/7/2 149/7/2
f 148/10/2 149/10/2 150/10/2
f 150/10/2 149/10/2 151/10/2
f 155/1/3 153/1/3 152/1/3
f 156/6/3 154/6/3 153/6/3
f 156/1/3 153/1/3 155/1/3
f 157/6/3 154/6/3 156/6/3
f 161/11/3 159/11/3 158/11/3
f 161/3/3 160/3/3 159/3/3
f 162/3/3 160/3/3 161/3/3
f 166/11/3 161/11/3 158/11/3
f 167/11/3 161/11/3 166/11/3
f 168/6/3 165/6/3 164/6/3
f 168/6/3 164/6/3 163/6/3
f 169/6/3 165/6/3 168/6/3
f 173/1/3 171/1/3 170/1/3
f 173/11/3 172/11/3 171/11/3
f 174/11/3 172/11/3 173/11/3
f 175/1/3 173/1/3 170/1/3
f 175/1/3 174/1/3 173/1/3
f 176/11/3 172/11/3 174/11/3
f 176/1/3 174/1/3 175/1/3
f 177/11/3 172/11/3 176/11/3
f 181/11/3 179/11/3 178/11/3
f 181/3/3 180/3/3 179/3/3
f 182/3/3 180/3/3 181/3/3
f 183/11/3 181/11/3 178/11/3
f 184/11/3 181/11/3 183/11/3
f 188/7/3 186/7/3 185/7/3
f 189/4/3 187/4/3 186/4/3
f 189/7/3 186/7/3 188/7/3
f 190/4/3 187/4/3 189/4/3
f 197/2/3 192/2/3 191/2/3
f 198/2/3 192/2/3 197/2/3
f 199/2/3 194/2/3 193/2/3
f 200/8/3 195/8/3 194/8/3
f 200/2/3 194/2/3 199/2/3
f 201/4/3 196/4/3 195/4/3
f 201/8/3 195/8/3 200/8/3
f 202/4/3 196/4/3 201/4/3
f 205/5/3 204/5/3 203/5/3
f 206/5/3 204/5/3 205/5/3
f 210/7/3 208/7/3 207/7/3
f 211/10/3 209/10/3 208/10/3
f 211/7/3 208/7/3 210/7/3
f 212/10/3 209/10/3 211/10/3
f 217/5/3 214/5/3 213/5/3
f 218/5/3 214/5/3 217/5/3
f 219/7/3 216/7/3 215/7/3
f 220/7/3 216/7/3 219/7/3
f 221/7/3 216/7/3 220/7/3
f 222/7/3 216/7/3 221/7/3
f 223/7/3 219/7/3 215/7/3
f 223/9/3 220/9/3 219/9/3
f 224/10/3 221/10/3 220/10/3
f 224/9/3 220/9/3 223/9/3
f 225/4/3 222/4/3 221/4/3
f 225/10/3 221/10/3 224/10/3
f 226/7/3 224/7/3 223/7/3
f 226/1/3 225/1/3 224/1/3
f 227/4/3 222/4/3 225/4/3
f 227/1/3 225/1/3 226/1/3
f 228/4/3 222/4/3 227/4/3
f 229/7/3 216/7/3 222/7/3
f 229/4/3 222/4/3 228/4/3
f 232/4/3 228/4/3 227/4/3
f 232/7/3 227/7/3 226/7/3
f 233/7/3 229/7/3 228/7/3
f 233/4/3 228/4/3 232/4/3
f 234/5/3 231/5/3 230/5/3
f 235/5/3 231/5/3 234/5/3
f 236/7/3 226/7/3 223/7/3
f 236/7/3 223/7/3 215/7/3
f 236/7/3 232/7/3 226/7/3
f 236/7/3 233/7/3 232/7/3
f 237/7/3 229/7/3 233/7/3
f 237/7/3 233/7/3 236/7/3
f 237/7/3 216/7/3 229/7/3
f 240/5/3 239/5/3 238/5/3
f 241/5/3 239/5/3 240/5/3
f 242/11/4 243/11/4 245/11/4
f 243/3/4 244/3/4 245/3/4
f 245/3/4 244/3/4 246/3/4
f 242/11/4 245/11/4 247/11/4
f 247/11/4 245/11/4 248/11/4
f 249/1/4 250/1/4 252/1/4
f 250/11/4 251/11/4 252/11/4
f 252/11/4 251/11/4 253/11/4
f 249/1/4 252/1/4 254/1/4
f 252/1/4 253/1/4 254/1/4
f 253/11/4 251/11/4 255/11/4
f 254/1/4 253/1/4 255/1/4
f 255/11/4 251/11/4 256/11/4
f 257/11/4 258/11/4 261/11/4
f 258/3/4 259/3/4 261/3/4
f 259/6/4 260/6/4 262/6/4
f 261/3/4 259/3/4 262/3/4
f 262/6/4 260/6/4 263/6/4
f 263/6/4 260/6/4 264/6/4
f 257/11/4 261/11/4 267/11/4
f 267/11/4 261/11/4 268/11/4
f 265/6/4 266/6/4 269/6/4
f 264/6/4 265/6/4 269/6/4
f 263/6/4 264/6/4 269/6/4
f 269/6/4 266/6/4 270/6/4
f 271/1/4 272/1/4 274/1/4
f 272/6/4 273/6/4 275/6/4
f 274/1/4 272/1/4 275/1/4
f 275/6/4 273/6/4 276/6/4
f 277/2/4 278/2/4 281/2/4
f 278/8/4 279/8/4 282/8/4
f 281/2/4 278/2/4 282/2/4
f 279/4/4 280/4/4 283/4/4
f 282/8/4 279/8/4 283/8/4
f 283/4/4 280/4/4 284/4/4
f 285/7/4 286/7/4 288/7/4
f 286/4/4 287/4/4 289/4/4
f 288/7/4 286/7/4 289/7/4
f 285/7/4 288/7/4 290/7/4
f 288/4/4 289/4/4 291/4/4
f 290/7/4 288/7/4 291/7/4
f 289/4/4 287/4/4 292/4/4
f 291/4/4 289/4/4 292/4/4
f 293/5/4 294/5/4 296/5/4
f 296/5/4 294/5/4 297/5/4
f 297/5/4 294/5/4 298/5/4
f 294/7/4 295/7/4 299/7/4
f 298/5/4 294/5/4 299/5/4
f 299/7/4 295/7/4 300/7/4
f 300/7/4 295/7/4 301/7/4
f 300/4/4 301/4/4 305/4/4
f 301/7/4 295/7/4 306/7/4
f 305/4/4 301/4/4 306/4/4
f 302/5/4 303/5/4 308/5/4
f 304/4/4 305/4/4 309/4/4
f 303/7/4 304/7/4 309/7/4
f 305/7/4 306/7/4 310/7/4
f 309/4/4 305/4/4 310/4/4
f 307/5/4 308/5/4 311/5/4
f 308/5/4 303/5/4 312/5/4
f 311/5/4 308/5/4 312/5/4
f 303/7/4 309/7/4 312/7/4
f 309/7/4 310/7/4 312/7/4
f 310/7/4 306/7/4 313/7/4
f 312/7/4 310/7/4 313/7/4
f 306/7/4 295/7/4 313/7/4
f 314/7/4 315/7/4 317/7/4
f 315/10/4 316/10/4 318/10/4
f 317/7/4 315/7/4 318/7/4
f 318/10/4 316/10/4 319/10/4
f 320/5/4 321/5/4 322/5/4
f 322/5/4 321/5/4 323/5/4
f 326/11/5 325/11/5 324/11/5
f 327/11/5 325/11/5 326/11/5
f 330/11/5 329/11/5 328/11/5
f 331/11/5 329/11/5 330/11/5
f 334/7/5 333/7/5 332/7/5
f 335/7/5 333/7/5 334/7/5
f 342/5/5 339/5/5 338/5/5
f 343/5/5 339/5/5 342/5/5
f 346/5/5 341/5/5 340/5/5
f 347/5/5 341/5/5 346/5/5
f 348/7/5 337/7/5 336/7/5
f 349/7/5 337/7/5 348/7/5
f 350/5/5 345/5/5 344/5/5
f 351/5/5 345/5/5 350/5/5
f 354/5/5 353/5/5 352/5/5
f 355/5/5 353/5/5 354/5/5
f 356/5/5 353/5/5 355/5/5
f 357/5/5 353/5/5 356/5/5
f 358/5/5 356/5/5 355/5/5
f 359/5/5 356/5/5 358/5/5
f 360/5/5 356/5/5 359/5/5
f 361/5/5 356/5/5 360/5/5
f 364/3/5 363/3/5 362/3/5
f 365/3/5 363/3/5 364/3/5
f 368/1/5 367/1/5 366/1/5
f 369/1/5 367/1/5 368/1/5
f 372/6/5 371/6/5 370/6/5
f 373/6/5 371/6/5 372/6/5
f 376/2/5 375/2/5 374/2/5
f 377/2/5 375/2/5 376/2/5
f 380/1/5 379/1/5 378/1/5
f 381/1/5 379/1/5 380/1/5
f 382/11/6 383/11/6 384/11/6
f 384/11/6 383/11/6 385/11/6
f 386/11/6 387/11/6 388/11/6
f 388/11/6 387/11/6 389/11/6
f 390/10/6 391/10/6 392/10/6
f 392/10/6 391/10/6 393/10/6
f 394/4/6 395/4/6 396/4/6
f 396/4/6 395/4/6 397/4/6
f 398/5/6 399/5/6 400/5/6
f 400/5/6 399/5/6 401/5/6
f 402/1/6 403/1/6 404/1/6
f 404/1/6 403/1/6 405/1/6
f 406/6/6 407/6/6 408/6/6
f 406/6/6 408/6/6 410/6/6
f 408/6/6 409/6/6 410/6/6
f 410/6/6 409/6/6 411/6/6
f 412/6/6 413/6/6 414/6/6
f 414/6/6 413/6/6 415/6/6
f 412/6/6 414/6/6 416/6/6
f 416/6/6 414/6/6 417/6/6
f 418/5/6 419/5/6 420/5/6
f 420/5/6 419/5/6 421/5/6
f 422/4/6 423/4/6 424/4/6
f 424/4/6 423/4/6 425/4/6
f 426/7/6 427/7/6 428/7/6
f 428/7/6 427/7/6 429/7/6
f 430/11/6 431/11/6 432/11/6
f 432/11/6 431/11/6 433/11/6
