# MagicaVoxel @ ephtracy

# material
mtllib knife.mtl
usemtl palette

# normals
vn -1 0 0
vn 1 0 0
vn 0 0 1
vn 0 0 -1
vn 0 -1 0
vn 0 1 0

# texcoords
vt 0.0449219 0.5
vt 0.962891 0.5
vt 0.966797 0.5
vt 0.986328 0.5
vt 0.990234 0.5
vt 0.994141 0.5

# verts
v -2 0 3.5
v -2 0 2.5
v -2 0 -9.5
v -2 0 -10.5
v -2 1 2.5
v -2 1 -9.5
v -2 2 3.5
v -2 2 -9.5
v -2 3 3.5
v -2 3 -9.5
v -2 3 -10.5
v -2 4 2.5
v -2 4 -7.5
v -2 4 -8.5
v -2 4 -9.5
v -2 5 3.5
v -2 5 2.5
v -2 5 -7.5
v -2 5 -8.5
v -1 1 10.5
v -1 1 3.5
v -1 2 10.5
v -1 2 3.5
v -1 2 -7.5
v -1 2 -9.5
v -1 3 10.5
v -1 3 9.5
v -1 3 3.5
v -1 3 -7.5
v -1 3 -9.5
v -1 4 9.5
v -1 4 3.5
v 1 2 -2.5
v 1 2 -3.5
v 1 2 -4.5
v 1 2 -5.5
v 1 3 -2.5
v 1 3 -3.5
v 1 3 -4.5
v 1 3 -5.5
v 0 1 10.5
v 0 1 3.5
v 0 2 10.5
v 0 2 3.5
v 0 2 -3.5
v 0 2 -4.5
v 0 2 -7.5
v 0 2 -9.5
v 0 3 10.5
v 0 3 9.5
v 0 3 3.5
v 0 3 -3.5
v 0 3 -4.5
v 0 3 -7.5
v 0 3 -9.5
v 0 4 9.5
v 0 4 3.5
v 1 0 3.5
v 1 0 2.5
v 1 0 -9.5
v 1 0 -10.5
v 1 1 2.5
v 1 1 -2.5
v 1 1 -5.5
v 1 1 -9.5
v 1 2 3.5
v 1 2 -2.5
v 1 2 -5.5
v 1 2 -9.5
v 1 3 3.5
v 1 3 -2.5
v 1 3 -5.5
v 1 3 -9.5
v 1 3 -10.5
v 1 4 2.5
v 1 4 -2.5
v 1 4 -5.5
v 1 4 -7.5
v 1 4 -8.5
v 1 4 -9.5
v 1 5 3.5
v 1 5 2.5
v 1 5 -7.5
v 1 5 -8.5
v 2 1 -2.5
v 2 1 -5.5
v 2 2 -3.5
v 2 2 -4.5
v 2 3 -3.5
v 2 3 -4.5
v 2 4 -2.5
v 2 4 -5.5
v -1 1 10.5
v -1 2 10.5
v -1 3 10.5
v 0 1 10.5
v 0 2 10.5
v 0 3 10.5
v -1 3 9.5
v -1 4 9.5
v 0 3 9.5
v 0 4 9.5
v -2 0 3.5
v -2 2 3.5
v -2 3 3.5
v -2 5 3.5
v -1 1 3.5
v -1 2 3.5
v -1 3 3.5
v -1 4 3.5
v 0 1 3.5
v 0 2 3.5
v 0 3 3.5
v 0 4 3.5
v 1 0 3.5
v 1 2 3.5
v 1 3 3.5
v 1 5 3.5
v 1 1 -2.5
v 1 2 -2.5
v 1 3 -2.5
v 1 4 -2.5
v 2 1 -2.5
v 2 4 -2.5
v 0 2 -3.5
v 0 3 -3.5
v 1 2 -3.5
v 1 3 -3.5
v -2 2 -9.5
v -2 3 -9.5
v -1 2 -9.5
v -1 3 -9.5
v 0 2 -9.5
v 0 3 -9.5
v 1 2 -9.5
v 1 3 -9.5
v 0 2 -4.5
v 0 3 -4.5
v 1 2 -4.5
v 1 3 -4.5
v 1 1 -5.5
v 1 2 -5.5
v 1 3 -5.5
v 1 4 -5.5
v 2 1 -5.5
v 2 4 -5.5
v -2 4 -8.5
v -2 5 -8.5
v 1 4 -8.5
v 1 5 -8.5
v -2 3 -9.5
v -2 4 -9.5
v 1 3 -9.5
v 1 4 -9.5
v -2 0 -10.5
v -2 3 -10.5
v 1 0 -10.5
v 1 3 -10.5
v -2 0 3.5
v 1 0 3.5
v -2 0 2.5
v 1 0 2.5
v -2 0 -9.5
v 1 0 -9.5
v -2 0 -10.5
v 1 0 -10.5
v -1 1 10.5
v 0 1 10.5
v -1 1 3.5
v 0 1 3.5
v 1 1 -2.5
v 2 1 -2.5
v 1 1 -5.5
v 2 1 -5.5
v -2 3 3.5
v -1 3 3.5
v 0 3 3.5
v 1 3 3.5
v 1 3 -2.5
v 0 3 -3.5
v 1 3 -3.5
v 0 3 -4.5
v 1 3 -4.5
v 1 3 -5.5
v -1 3 -7.5
v 0 3 -7.5
v -2 3 -9.5
v -1 3 -9.5
v 0 3 -9.5
v 1 3 -9.5
v -2 2 3.5
v -1 2 3.5
v 0 2 3.5
v 1 2 3.5
v 1 2 -2.5
v 0 2 -3.5
v 1 2 -3.5
v 0 2 -4.5
v 1 2 -4.5
v 1 2 -5.5
v -1 2 -7.5
v 0 2 -7.5
v -2 2 -9.5
v -1 2 -9.5
v 0 2 -9.5
v 1 2 -9.5
v -1 3 10.5
v 0 3 10.5
v -1 3 9.5
v 0 3 9.5
v -2 3 -9.5
v 1 3 -9.5
v -2 3 -10.5
v 1 3 -10.5
v -1 4 9.5
v 0 4 9.5
v -1 4 3.5
v 0 4 3.5
v 1 4 -2.5
v 2 4 -2.5
v 1 4 -5.5
v 2 4 -5.5
v -2 4 -8.5
v 1 4 -8.5
v -2 4 -9.5
v 1 4 -9.5
v -2 5 3.5
v 1 5 3.5
v -2 5 2.5
v 1 5 2.5
v -2 5 -7.5
v 1 5 -7.5
v -2 5 -8.5
v 1 5 -8.5

# faces
f 5/1/1 2/1/1 1/1/1
f 5/5/1 3/5/1 2/5/1
f 6/1/1 4/1/1 3/1/1
f 6/5/1 3/5/1 5/5/1
f 7/1/1 5/1/1 1/1/1
f 7/1/1 6/1/1 5/1/1
f 8/1/1 4/1/1 6/1/1
f 8/1/1 6/1/1 7/1/1
f 10/1/1 4/1/1 8/1/1
f 11/1/1 4/1/1 10/1/1
f 12/1/1 10/1/1 9/1/1
f 13/1/1 10/1/1 12/1/1
f 14/1/1 10/1/1 13/1/1
f 15/1/1 10/1/1 14/1/1
f 16/1/1 12/1/1 9/1/1
f 17/5/1 13/5/1 12/5/1
f 17/1/1 12/1/1 16/1/1
f 18/1/1 14/1/1 13/1/1
f 18/5/1 13/5/1 17/5/1
f 19/1/1 14/1/1 18/1/1
f 22/2/1 21/2/1 20/2/1
f 23/2/1 21/2/1 22/2/1
f 26/3/1 23/3/1 22/3/1
f 26/3/1 24/3/1 23/3/1
f 27/3/1 24/3/1 26/3/1
f 28/3/1 24/3/1 27/3/1
f 29/1/1 25/1/1 24/1/1
f 29/3/1 24/3/1 28/3/1
f 30/1/1 25/1/1 29/1/1
f 31/3/1 28/3/1 27/3/1
f 32/3/1 28/3/1 31/3/1
f 37/4/1 34/4/1 33/4/1
f 38/4/1 34/4/1 37/4/1
f 39/4/1 36/4/1 35/4/1
f 40/4/1 36/4/1 39/4/1
f 41/2/2 42/2/2 43/2/2
f 43/2/2 42/2/2 44/2/2
f 43/3/2 44/3/2 49/3/2
f 44/3/2 45/3/2 49/3/2
f 49/3/2 45/3/2 50/3/2
f 50/3/2 45/3/2 51/3/2
f 51/3/2 45/3/2 52/3/2
f 46/3/2 47/3/2 53/3/2
f 47/1/2 48/1/2 54/1/2
f 53/3/2 47/3/2 54/3/2
f 54/1/2 48/1/2 55/1/2
f 50/3/2 51/3/2 56/3/2
f 56/3/2 51/3/2 57/3/2
f 58/1/2 59/1/2 62/1/2
f 59/5/2 60/5/2 62/5/2
f 62/5/2 60/5/2 63/5/2
f 63/5/2 60/5/2 64/5/2
f 60/1/2 61/1/2 65/1/2
f 64/5/2 60/5/2 65/5/2
f 58/1/2 62/1/2 66/1/2
f 62/1/2 63/1/2 66/1/2
f 66/1/2 63/1/2 67/1/2
f 64/1/2 65/1/2 68/1/2
f 65/1/2 61/1/2 69/1/2
f 68/1/2 65/1/2 69/1/2
f 69/1/2 61/1/2 73/1/2
f 73/1/2 61/1/2 74/1/2
f 70/1/2 71/1/2 75/1/2
f 75/1/2 71/1/2 76/1/2
f 72/1/2 73/1/2 77/1/2
f 77/1/2 73/1/2 78/1/2
f 78/1/2 73/1/2 79/1/2
f 79/1/2 73/1/2 80/1/2
f 70/1/2 75/1/2 81/1/2
f 75/5/2 76/5/2 82/5/2
f 81/1/2 75/1/2 82/1/2
f 76/5/2 77/5/2 82/5/2
f 77/5/2 78/5/2 82/5/2
f 78/1/2 79/1/2 83/1/2
f 82/5/2 78/5/2 83/5/2
f 83/1/2 79/1/2 84/1/2
f 85/4/2 86/4/2 87/4/2
f 87/4/2 86/4/2 88/4/2
f 85/4/2 87/4/2 89/4/2
f 87/3/2 88/3/2 89/3/2
f 88/4/2 86/4/2 90/4/2
f 89/3/2 88/3/2 90/3/2
f 85/4/2 89/4/2 91/4/2
f 89/4/2 90/4/2 91/4/2
f 90/4/2 86/4/2 92/4/2
f 91/4/2 90/4/2 92/4/2
f 96/2/3 94/2/3 93/2/3
f 97/3/3 95/3/3 94/3/3
f 97/2/3 94/2/3 96/2/3
f 98/3/3 95/3/3 97/3/3
f 101/3/3 100/3/3 99/3/3
f 102/3/3 100/3/3 101/3/3
f 107/1/3 104/1/3 103/1/3
f 108/1/3 104/1/3 107/1/3
f 109/1/3 106/1/3 105/1/3
f 110/1/3 106/1/3 109/1/3
f 111/1/3 107/1/3 103/1/3
f 114/1/3 106/1/3 110/1/3
f 115/1/3 112/1/3 111/1/3
f 115/1/3 111/1/3 103/1/3
f 116/1/3 112/1/3 115/1/3
f 117/1/3 114/1/3 113/1/3
f 118/1/3 106/1/3 114/1/3
f 118/1/3 114/1/3 117/1/3
f 123/4/3 120/4/3 119/4/3
f 123/4/3 122/4/3 121/4/3
f 123/4/3 121/4/3 120/4/3
f 124/4/3 122/4/3 123/4/3
f 127/6/3 126/6/3 125/6/3
f 128/6/3 126/6/3 127/6/3
f 131/1/3 130/1/3 129/1/3
f 132/1/3 130/1/3 131/1/3
f 135/1/3 134/1/3 133/1/3
f 136/1/3 134/1/3 135/1/3
f 137/6/4 138/6/4 139/6/4
f 139/6/4 138/6/4 140/6/4
f 141/4/4 142/4/4 145/4/4
f 143/4/4 144/4/4 145/4/4
f 142/4/4 143/4/4 145/4/4
f 145/4/4 144/4/4 146/4/4
f 147/1/4 148/1/4 149/1/4
f 149/1/4 148/1/4 150/1/4
f 151/1/4 152/1/4 153/1/4
f 153/1/4 152/1/4 154/1/4
f 155/1/4 156/1/4 157/1/4
f 157/1/4 156/1/4 158/1/4
f 161/1/5 160/1/5 159/1/5
f 162/1/5 160/1/5 161/1/5
f 163/5/5 162/5/5 161/5/5
f 164/5/5 162/5/5 163/5/5
f 165/1/5 164/1/5 163/1/5
f 166/1/5 164/1/5 165/1/5
f 169/2/5 168/2/5 167/2/5
f 170/2/5 168/2/5 169/2/5
f 173/4/5 172/4/5 171/4/5
f 174/4/5 172/4/5 173/4/5
f 179/1/5 178/1/5 177/1/5
f 180/1/5 179/1/5 177/1/5
f 181/1/5 179/1/5 180/1/5
f 184/1/5 183/1/5 182/1/5
f 185/1/5 176/1/5 175/1/5
f 186/1/5 184/1/5 182/1/5
f 187/1/5 185/1/5 175/1/5
f 188/1/5 185/1/5 187/1/5
f 189/1/5 184/1/5 186/1/5
f 190/1/5 184/1/5 189/1/5
f 193/1/6 194/1/6 195/1/6
f 193/1/6 195/1/6 196/1/6
f 196/1/6 195/1/6 197/1/6
f 198/1/6 199/1/6 200/1/6
f 191/1/6 192/1/6 201/1/6
f 198/1/6 200/1/6 202/1/6
f 191/1/6 201/1/6 203/1/6
f 203/1/6 201/1/6 204/1/6
f 202/1/6 200/1/6 205/1/6
f 205/1/6 200/1/6 206/1/6
f 207/3/6 208/3/6 209/3/6
f 209/3/6 208/3/6 210/3/6
f 211/1/6 212/1/6 213/1/6
f 213/1/6 212/1/6 214/1/6
f 215/3/6 216/3/6 217/3/6
f 217/3/6 216/3/6 218/3/6
f 219/4/6 220/4/6 221/4/6
f 221/4/6 220/4/6 222/4/6
f 223/1/6 224/1/6 225/1/6
f 225/1/6 224/1/6 226/1/6
f 227/1/6 228/1/6 229/1/6
f 229/1/6 228/1/6 230/1/6
f 229/5/6 230/5/6 231/5/6
f 231/5/6 230/5/6 232/5/6
f 231/1/6 232/1/6 233/1/6
f 233/1/6 232/1/6 234/1/6
