# MagicaVoxel @ ephtracy

# material
mtllib iso_cube.mtl
usemtl palette

# normals
vn -1 0 0
vn 1 0 0
vn 0 0 1
vn 0 0 -1
vn 0 -1 0
vn 0 1 0

# texcoords
vt 0.208984 0.5
vt 0.306641 0.5
vt 0.994141 0.5

# verts
v -3.5 0 3.5
v -3.5 0 -3.5
v -3.5 1 2.5
v -3.5 1 1.5
v -3.5 1 -1.5
v -3.5 1 -2.5
v -3.5 2 2.5
v -3.5 2 1.5
v -3.5 2 -1.5
v -3.5 2 -2.5
v -3.5 5 2.5
v -3.5 5 1.5
v -3.5 5 -1.5
v -3.5 5 -2.5
v -3.5 6 2.5
v -3.5 6 1.5
v -3.5 6 -1.5
v -3.5 6 -2.5
v -3.5 7 3.5
v -3.5 7 -3.5
v 3.5 0 3.5
v 3.5 0 -3.5
v 3.5 1 2.5
v 3.5 1 1.5
v 3.5 2 2.5
v 3.5 2 1.5
v 3.5 3 0.5
v 3.5 3 -0.5
v 3.5 4 0.5
v 3.5 4 -0.5
v 3.5 5 -1.5
v 3.5 5 -2.5
v 3.5 6 -1.5
v 3.5 6 -2.5
v 3.5 7 3.5
v 3.5 7 -3.5
v -3.5 0 3.5
v -3.5 7 3.5
v -2.5 1 3.5
v -2.5 2 3.5
v -2.5 5 3.5
v -2.5 6 3.5
v -1.5 1 3.5
v -1.5 2 3.5
v -1.5 5 3.5
v -1.5 6 3.5
v -0.5 3 3.5
v -0.5 4 3.5
v 0.5 3 3.5
v 0.5 4 3.5
v 1.5 1 3.5
v 1.5 2 3.5
v 1.5 5 3.5
v 1.5 6 3.5
v 2.5 1 3.5
v 2.5 2 3.5
v 2.5 5 3.5
v 2.5 6 3.5
v 3.5 0 3.5
v 3.5 7 3.5
v -3.5 0 -3.5
v -3.5 7 -3.5
v -2.5 5 -3.5
v -2.5 6 -3.5
v -1.5 5 -3.5
v -1.5 6 -3.5
v 1.5 1 -3.5
v 1.5 2 -3.5
v 2.5 1 -3.5
v 2.5 2 -3.5
v 3.5 0 -3.5
v 3.5 7 -3.5
v -3.5 0 3.5
v 3.5 0 3.5
v -0.5 0 0.5
v 0.5 0 0.5
v -0.5 0 -0.5
v 0.5 0 -0.5
v -3.5 0 -3.5
v 3.5 0 -3.5
v -3.5 7 3.5
v 3.5 7 3.5
v -2.5 7 2.5
v -1.5 7 2.5
v -0.5 7 2.5
v 0.5 7 2.5
v 1.5 7 2.5
v 2.5 7 2.5
v -2.5 7 1.5
v -1.5 7 1.5
v -0.5 7 1.5
v 0.5 7 1.5
v 1.5 7 1.5
v 2.5 7 1.5
v -2.5 7 -1.5
v -1.5 7 -1.5
v -0.5 7 -1.5
v 0.5 7 -1.5
v 1.5 7 -1.5
v 2.5 7 -1.5
v -2.5 7 -2.5
v -1.5 7 -2.5
v -0.5 7 -2.5
v 0.5 7 -2.5
v 1.5 7 -2.5
v 2.5 7 -2.5
v -3.5 7 -3.5
v 3.5 7 -3.5

# faces
f 3/1/1 2/1/1 1/1/1
f 4/1/1 2/1/1 3/1/1
f 5/1/1 2/1/1 4/1/1
f 6/1/1 2/1/1 5/1/1
f 7/1/1 3/1/1 1/1/1
f 7/3/1 4/3/1 3/3/1
f 8/1/1 5/1/1 4/1/1
f 8/3/1 4/3/1 7/3/1
f 9/3/1 6/3/1 5/3/1
f 9/1/1 5/1/1 8/1/1
f 10/1/1 2/1/1 6/1/1
f 10/3/1 6/3/1 9/3/1
f 11/1/1 9/1/1 8/1/1
f 11/1/1 8/1/1 7/1/1
f 11/1/1 10/1/1 9/1/1
f 11/1/1 7/1/1 1/1/1
f 12/1/1 10/1/1 11/1/1
f 13/1/1 10/1/1 12/1/1
f 14/1/1 2/1/1 10/1/1
f 14/1/1 10/1/1 13/1/1
f 15/1/1 11/1/1 1/1/1
f 15/3/1 12/3/1 11/3/1
f 16/1/1 13/1/1 12/1/1
f 16/3/1 12/3/1 15/3/1
f 17/3/1 14/3/1 13/3/1
f 17/1/1 13/1/1 16/1/1
f 18/1/1 2/1/1 14/1/1
f 18/3/1 14/3/1 17/3/1
f 19/1/1 15/1/1 1/1/1
f 19/1/1 17/1/1 16/1/1
f 19/1/1 18/1/1 17/1/1
f 19/1/1 16/1/1 15/1/1
f 20/1/1 2/1/1 18/1/1
f 20/1/1 18/1/1 19/1/1
f 21/1/2 22/1/2 23/1/2
f 23/1/2 22/1/2 24/1/2
f 21/1/2 23/1/2 25/1/2
f 23/3/2 24/3/2 25/3/2
f 24/1/2 22/1/2 26/1/2
f 25/3/2 24/3/2 26/3/2
f 25/1/2 26/1/2 27/1/2
f 26/1/2 22/1/2 27/1/2
f 27/1/2 22/1/2 28/1/2
f 25/1/2 27/1/2 29/1/2
f 27/3/2 28/3/2 29/3/2
f 28/1/2 22/1/2 30/1/2
f 29/3/2 28/3/2 30/3/2
f 29/1/2 30/1/2 31/1/2
f 30/1/2 22/1/2 31/1/2
f 31/1/2 22/1/2 32/1/2
f 29/1/2 31/1/2 33/1/2
f 31/3/2 32/3/2 33/3/2
f 32/1/2 22/1/2 34/1/2
f 33/3/2 32/3/2 34/3/2
f 21/1/2 25/1/2 35/1/2
f 25/1/2 29/1/2 35/1/2
f 33/1/2 34/1/2 35/1/2
f 29/1/2 33/1/2 35/1/2
f 34/1/2 22/1/2 36/1/2
f 35/1/2 34/1/2 36/1/2
f 39/1/3 38/1/3 37/1/3
f 40/1/3 38/1/3 39/1/3
f 41/1/3 38/1/3 40/1/3
f 42/1/3 38/1/3 41/1/3
f 43/1/3 39/1/3 37/1/3
f 43/3/3 40/3/3 39/3/3
f 44/1/3 41/1/3 40/1/3
f 44/3/3 40/3/3 43/3/3
f 45/3/3 42/3/3 41/3/3
f 45/1/3 41/1/3 44/1/3
f 46/1/3 38/1/3 42/1/3
f 46/3/3 42/3/3 45/3/3
f 47/1/3 45/1/3 44/1/3
f 47/1/3 44/1/3 43/1/3
f 47/1/3 46/1/3 45/1/3
f 48/1/3 46/1/3 47/1/3
f 49/1/3 47/1/3 43/1/3
f 49/3/3 48/3/3 47/3/3
f 50/1/3 46/1/3 48/1/3
f 50/3/3 48/3/3 49/3/3
f 51/1/3 43/1/3 37/1/3
f 51/1/3 49/1/3 43/1/3
f 51/1/3 50/1/3 49/1/3
f 52/1/3 50/1/3 51/1/3
f 53/1/3 46/1/3 50/1/3
f 53/1/3 50/1/3 52/1/3
f 54/1/3 38/1/3 46/1/3
f 54/1/3 46/1/3 53/1/3
f 55/3/3 52/3/3 51/3/3
f 55/1/3 51/1/3 37/1/3
f 56/1/3 53/1/3 52/1/3
f 56/3/3 52/3/3 55/3/3
f 57/3/3 54/3/3 53/3/3
f 57/1/3 53/1/3 56/1/3
f 58/1/3 38/1/3 54/1/3
f 58/3/3 54/3/3 57/3/3
f 59/1/3 55/1/3 37/1/3
f 59/1/3 57/1/3 56/1/3
f 59/1/3 58/1/3 57/1/3
f 59/1/3 56/1/3 55/1/3
f 60/1/3 38/1/3 58/1/3
f 60/1/3 58/1/3 59/1/3
f 61/1/4 62/1/4 63/1/4
f 63/1/4 62/1/4 64/1/4
f 61/1/4 63/1/4 65/1/4
f 63/3/4 64/3/4 65/3/4
f 64/1/4 62/1/4 66/1/4
f 65/3/4 64/3/4 66/3/4
f 61/1/4 65/1/4 67/1/4
f 65/1/4 66/1/4 67/1/4
f 67/1/4 66/1/4 68/1/4
f 61/1/4 67/1/4 69/1/4
f 67/3/4 68/3/4 69/3/4
f 68/1/4 66/1/4 70/1/4
f 69/3/4 68/3/4 70/3/4
f 61/1/4 69/1/4 71/1/4
f 69/1/4 70/1/4 71/1/4
f 66/1/4 62/1/4 72/1/4
f 71/1/4 70/1/4 72/1/4
f 70/1/4 66/1/4 72/1/4
f 75/1/5 74/1/5 73/1/5
f 76/1/5 74/1/5 75/1/5
f 77/1/5 75/1/5 73/1/5
f 77/3/5 76/3/5 75/3/5
f 78/1/5 74/1/5 76/1/5
f 78/3/5 76/3/5 77/3/5
f 79/1/5 77/1/5 73/1/5
f 79/1/5 78/1/5 77/1/5
f 80/1/5 74/1/5 78/1/5
f 80/1/5 78/1/5 79/1/5
f 81/1/6 82/1/6 83/1/6
f 83/1/6 82/1/6 84/1/6
f 84/1/6 82/1/6 85/1/6
f 85/1/6 82/1/6 86/1/6
f 86/1/6 82/1/6 87/1/6
f 87/1/6 82/1/6 88/1/6
f 81/1/6 83/1/6 89/1/6
f 83/3/6 84/3/6 89/3/6
f 84/1/6 85/1/6 90/1/6
f 89/3/6 84/3/6 90/3/6
f 85/3/6 86/3/6 91/3/6
f 90/1/6 85/1/6 91/1/6
f 86/1/6 87/1/6 92/1/6
f 91/3/6 86/3/6 92/3/6
f 87/3/6 88/3/6 93/3/6
f 92/1/6 87/1/6 93/1/6
f 88/1/6 82/1/6 94/1/6
f 93/3/6 88/3/6 94/3/6
f 92/1/6 93/1/6 95/1/6
f 91/1/6 92/1/6 95/1/6
f 93/1/6 94/1/6 95/1/6
f 90/1/6 91/1/6 95/1/6
f 89/1/6 90/1/6 95/1/6
f 81/1/6 89/1/6 95/1/6
f 95/1/6 94/1/6 96/1/6
f 96/1/6 94/1/6 97/1/6
f 97/1/6 94/1/6 98/1/6
f 98/1/6 94/1/6 99/1/6
f 94/1/6 82/1/6 100/1/6
f 99/1/6 94/1/6 100/1/6
f 81/1/6 95/1/6 101/1/6
f 95/3/6 96/3/6 101/3/6
f 96/1/6 97/1/6 102/1/6
f 101/3/6 96/3/6 102/3/6
f 97/3/6 98/3/6 103/3/6
f 102/1/6 97/1/6 103/1/6
f 98/1/6 99/1/6 104/1/6
f 103/3/6 98/3/6 104/3/6
f 99/3/6 100/3/6 105/3/6
f 104/1/6 99/1/6 105/1/6
f 100/1/6 82/1/6 106/1/6
f 105/3/6 100/3/6 106/3/6
f 102/1/6 103/1/6 107/1/6
f 104/1/6 105/1/6 107/1/6
f 105/1/6 106/1/6 107/1/6
f 101/1/6 102/1/6 107/1/6
f 81/1/6 101/1/6 107/1/6
f 103/1/6 104/1/6 107/1/6
f 106/1/6 82/1/6 108/1/6
f 107/1/6 106/1/6 108/1/6
