# MagicaVoxel @ ephtracy

# material
mtllib iso_fez.mtl
usemtl palette

# normals
vn -1 0 0
vn 1 0 0
vn 0 0 1
vn 0 0 -1
vn 0 -1 0
vn 0 1 0

# texcoords
vt 0.0683594 0.5
vt 0.849609 0.5
vt 0.958984 0.5
vt 0.962891 0.5
vt 0.966797 0.5
vt 0.994141 0.5

# verts
v -2.5 9 5.5
v -2.5 9 -5.5
v -2.5 10 4.5
v -2.5 10 -4.5
v -2.5 15 4.5
v -2.5 15 -4.5
v -2.5 16 5.5
v -2.5 16 -5.5
v -1.5 2 2.5
v -1.5 2 -2.5
v -1.5 3 1.5
v -1.5 3 -1.5
v -1.5 7 1.5
v -1.5 7 -1.5
v -1.5 8 2.5
v -1.5 8 1.5
v -1.5 8 -1.5
v -1.5 8 -2.5
v -1.5 9 1.5
v -1.5 9 -1.5
v -1.5 16 4.5
v -1.5 16 1.5
v -1.5 19 4.5
v -1.5 19 1.5
v -0.5 0 2.5
v -0.5 0 1.5
v -0.5 0 -1.5
v -0.5 0 -2.5
v -0.5 2 2.5
v -0.5 2 1.5
v -0.5 2 -1.5
v -0.5 2 -2.5
v -0.5 5 4.5
v -0.5 5 3.5
v -0.5 5 -3.5
v -0.5 5 -4.5
v -0.5 6 4.5
v -0.5 6 3.5
v -0.5 6 2.5
v -0.5 6 -2.5
v -0.5 6 -3.5
v -0.5 6 -4.5
v -0.5 7 3.5
v -0.5 7 2.5
v -0.5 7 -2.5
v -0.5 7 -3.5
v -0.5 17 5.5
v -0.5 17 4.5
v -0.5 18 5.5
v -0.5 18 4.5
v 0.5 0 2.5
v 0.5 0 1.5
v 0.5 0 -1.5
v 0.5 0 -2.5
v 0.5 2 2.5
v 0.5 2 1.5
v 0.5 2 -1.5
v 0.5 2 -2.5
v 0.5 5 4.5
v 0.5 5 3.5
v 0.5 5 -3.5
v 0.5 5 -4.5
v 0.5 6 4.5
v 0.5 6 3.5
v 0.5 6 2.5
v 0.5 6 -2.5
v 0.5 6 -3.5
v 0.5 6 -4.5
v 0.5 7 3.5
v 0.5 7 2.5
v 0.5 7 -2.5
v 0.5 7 -3.5
v 0.5 17 5.5
v 0.5 17 4.5
v 0.5 18 5.5
v 0.5 18 4.5
v 1.5 2 2.5
v 1.5 2 -2.5
v 1.5 3 1.5
v 1.5 3 -1.5
v 1.5 7 1.5
v 1.5 7 -1.5
v 1.5 8 2.5
v 1.5 8 1.5
v 1.5 8 -1.5
v 1.5 8 -2.5
v 1.5 9 1.5
v 1.5 9 -1.5
v 1.5 16 4.5
v 1.5 16 1.5
v 1.5 19 4.5
v 1.5 19 1.5
v 2.5 9 5.5
v 2.5 9 -5.5
v 2.5 10 4.5
v 2.5 10 -4.5
v 2.5 11 0.5
v 2.5 11 -0.5
v 2.5 12 1.5
v 2.5 12 0.5
v 2.5 12 -0.5
v 2.5 13 4.5
v 2.5 13 3.5
v 2.5 13 1.5
v 2.5 13 -0.5
v 2.5 13 -3.5
v 2.5 13 -4.5
v 2.5 14 4.5
v 2.5 14 3.5
v 2.5 14 -3.5
v 2.5 14 -4.5
v 2.5 15 4.5
v 2.5 15 -4.5
v 2.5 16 5.5
v 2.5 16 -5.5
v -2.5 9 5.5
v -2.5 16 5.5
v -0.5 17 5.5
v -0.5 18 5.5
v 0.5 17 5.5
v 0.5 18 5.5
v 2.5 9 5.5
v 2.5 16 5.5
v -1.5 16 4.5
v -1.5 19 4.5
v -0.5 5 4.5
v -0.5 6 4.5
v -0.5 17 4.5
v -0.5 18 4.5
v -0.5 19 4.5
v 0.5 5 4.5
v 0.5 6 4.5
v 0.5 17 4.5
v 0.5 18 4.5
v 0.5 19 4.5
v 1.5 16 4.5
v 1.5 19 4.5
v -0.5 6 3.5
v -0.5 7 3.5
v 0.5 6 3.5
v 0.5 7 3.5
v -1.5 2 2.5
v -1.5 8 2.5
v -0.5 0 2.5
v -0.5 2 2.5
v -0.5 6 2.5
v -0.5 7 2.5
v 0.5 0 2.5
v 0.5 2 2.5
v 0.5 6 2.5
v 0.5 7 2.5
v 1.5 2 2.5
v 1.5 8 2.5
v -1.5 8 1.5
v -1.5 9 1.5
v 1.5 8 1.5
v 1.5 9 1.5
v -0.5 0 -1.5
v -0.5 2 -1.5
v 0.5 0 -1.5
v 0.5 2 -1.5
v -0.5 5 -3.5
v -0.5 6 -3.5
v 0.5 5 -3.5
v 0.5 6 -3.5
v -0.5 5 3.5
v -0.5 6 3.5
v 0.5 5 3.5
v 0.5 6 3.5
v -1.5 16 1.5
v -1.5 19 1.5
v -0.5 0 1.5
v -0.5 2 1.5
v 0.5 0 1.5
v 0.5 2 1.5
v 1.5 16 1.5
v 1.5 19 1.5
v -1.5 8 -1.5
v -1.5 9 -1.5
v 1.5 8 -1.5
v 1.5 9 -1.5
v -1.5 2 -2.5
v -1.5 8 -2.5
v -0.5 0 -2.5
v -0.5 2 -2.5
v -0.5 6 -2.5
v -0.5 7 -2.5
v 0.5 0 -2.5
v 0.5 2 -2.5
v 0.5 6 -2.5
v 0.5 7 -2.5
v 1.5 2 -2.5
v 1.5 8 -2.5
v -0.5 6 -3.5
v -0.5 7 -3.5
v 0.5 6 -3.5
v 0.5 7 -3.5
v -0.5 5 -4.5
v -0.5 6 -4.5
v 0.5 5 -4.5
v 0.5 6 -4.5
v -2.5 9 -5.5
v -2.5 16 -5.5
v 2.5 9 -5.5
v 2.5 16 -5.5
v -0.5 0 2.5
v 0.5 0 2.5
v -0.5 0 1.5
v 0.5 0 1.5
v -0.5 0 -1.5
v 0.5 0 -1.5
v -0.5 0 -2.5
v 0.5 0 -2.5
v -1.5 2 2.5
v -0.5 2 2.5
v 0.5 2 2.5
v 1.5 2 2.5
v -0.5 2 1.5
v 0.5 2 1.5
v -0.5 2 -1.5
v 0.5 2 -1.5
v -1.5 2 -2.5
v -0.5 2 -2.5
v 0.5 2 -2.5
v 1.5 2 -2.5
v -0.5 5 4.5
v 0.5 5 4.5
v -0.5 5 3.5
v 0.5 5 3.5
v -0.5 5 -3.5
v 0.5 5 -3.5
v -0.5 5 -4.5
v 0.5 5 -4.5
v -0.5 6 3.5
v 0.5 6 3.5
v -0.5 6 2.5
v 0.5 6 2.5
v -0.5 6 -2.5
v 0.5 6 -2.5
v -0.5 6 -3.5
v 0.5 6 -3.5
v -2.5 9 5.5
v 2.5 9 5.5
v -1.5 9 1.5
v 1.5 9 1.5
v -1.5 9 -1.5
v 1.5 9 -1.5
v -2.5 9 -5.5
v 2.5 9 -5.5
v -0.5 17 5.5
v 0.5 17 5.5
v -0.5 17 4.5
v 0.5 17 4.5
v -0.5 6 4.5
v 0.5 6 4.5
v -0.5 6 3.5
v 0.5 6 3.5
v -0.5 6 -3.5
v 0.5 6 -3.5
v -0.5 6 -4.5
v 0.5 6 -4.5
v -0.5 7 3.5
v 0.5 7 3.5
v -0.5 7 2.5
v 0.5 7 2.5
v -0.5 7 -2.5
v 0.5 7 -2.5
v -0.5 7 -3.5
v 0.5 7 -3.5
v -1.5 8 2.5
v 1.5 8 2.5
v -1.5 8 1.5
v 1.5 8 1.5
v -1.5 8 -1.5
v 1.5 8 -1.5
v -1.5 8 -2.5
v 1.5 8 -2.5
v -2.5 16 5.5
v 2.5 16 5.5
v -1.5 16 4.5
v 1.5 16 4.5
v -1.5 16 1.5
v 1.5 16 1.5
v -2.5 16 -5.5
v 2.5 16 -5.5
v -0.5 18 5.5
v 0.5 18 5.5
v -0.5 18 4.5
v 0.5 18 4.5
v -1.5 19 4.5
v -0.5 19 4.5
v 0.5 19 4.5
v 1.5 19 4.5
v -0.5 19 3.5
v 0.5 19 3.5
v -1.5 19 1.5
v 1.5 19 1.5

# faces
f 3/5/1 2/5/1 1/5/1
f 4/5/1 2/5/1 3/5/1
f 5/5/1 3/5/1 1/5/1
f 5/3/1 4/3/1 3/3/1
f 6/5/1 2/5/1 4/5/1
f 6/3/1 4/3/1 5/3/1
f 7/5/1 5/5/1 1/5/1
f 7/5/1 6/5/1 5/5/1
f 8/5/1 2/5/1 6/5/1
f 8/5/1 6/5/1 7/5/1
f 11/5/1 10/5/1 9/5/1
f 12/5/1 10/5/1 11/5/1
f 13/5/1 11/5/1 9/5/1
f 13/3/1 12/3/1 11/3/1
f 14/5/1 10/5/1 12/5/1
f 14/3/1 12/3/1 13/3/1
f 15/5/1 13/5/1 9/5/1
f 15/5/1 14/5/1 13/5/1
f 16/5/1 14/5/1 15/5/1
f 17/5/1 10/5/1 14/5/1
f 17/5/1 14/5/1 16/5/1
f 18/5/1 10/5/1 17/5/1
f 19/5/1 17/5/1 16/5/1
f 20/5/1 17/5/1 19/5/1
f 23/2/1 22/2/1 21/2/1
f 24/2/1 22/2/1 23/2/1
f 29/5/1 26/5/1 25/5/1
f 30/5/1 26/5/1 29/5/1
f 31/5/1 28/5/1 27/5/1
f 32/5/1 28/5/1 31/5/1
f 37/5/1 34/5/1 33/5/1
f 38/5/1 34/5/1 37/5/1
f 41/5/1 36/5/1 35/5/1
f 42/5/1 36/5/1 41/5/1
f 43/5/1 39/5/1 38/5/1
f 44/5/1 39/5/1 43/5/1
f 45/5/1 41/5/1 40/5/1
f 46/5/1 41/5/1 45/5/1
f 49/1/1 48/1/1 47/1/1
f 50/1/1 48/1/1 49/1/1
f 51/5/2 52/5/2 55/5/2
f 55/5/2 52/5/2 56/5/2
f 53/5/2 54/5/2 57/5/2
f 57/5/2 54/5/2 58/5/2
f 59/5/2 60/5/2 63/5/2
f 63/5/2 60/5/2 64/5/2
f 61/5/2 62/5/2 67/5/2
f 67/5/2 62/5/2 68/5/2
f 64/5/2 65/5/2 69/5/2
f 69/5/2 65/5/2 70/5/2
f 66/5/2 67/5/2 71/5/2
f 71/5/2 67/5/2 72/5/2
f 73/1/2 74/1/2 75/1/2
f 75/1/2 74/1/2 76/1/2
f 77/5/2 78/5/2 79/5/2
f 79/5/2 78/5/2 80/5/2
f 77/5/2 79/5/2 81/5/2
f 79/3/2 80/3/2 81/3/2
f 80/5/2 78/5/2 82/5/2
f 81/3/2 80/3/2 82/3/2
f 77/5/2 81/5/2 83/5/2
f 81/5/2 82/5/2 83/5/2
f 83/5/2 82/5/2 84/5/2
f 82/5/2 78/5/2 85/5/2
f 84/5/2 82/5/2 85/5/2
f 85/5/2 78/5/2 86/5/2
f 84/5/2 85/5/2 87/5/2
f 87/5/2 85/5/2 88/5/2
f 89/2/2 90/2/2 91/2/2
f 91/2/2 90/2/2 92/2/2
f 93/5/2 94/5/2 95/5/2
f 95/5/2 94/5/2 96/5/2
f 95/3/2 96/3/2 97/3/2
f 97/3/2 96/3/2 98/3/2
f 95/3/2 97/3/2 99/3/2
f 97/4/2 98/4/2 100/4/2
f 99/3/2 97/3/2 100/3/2
f 98/3/2 96/3/2 101/3/2
f 100/4/2 98/4/2 101/4/2
f 93/5/2 95/5/2 102/5/2
f 95/3/2 99/3/2 102/3/2
f 102/3/2 99/3/2 103/3/2
f 99/5/2 100/5/2 104/5/2
f 103/3/2 99/3/2 104/3/2
f 100/5/2 101/5/2 104/5/2
f 101/3/2 96/3/2 105/3/2
f 104/5/2 101/5/2 105/5/2
f 105/3/2 96/3/2 106/3/2
f 96/5/2 94/5/2 107/5/2
f 106/3/2 96/3/2 107/3/2
f 102/6/2 103/6/2 108/6/2
f 93/5/2 102/5/2 108/5/2
f 103/3/2 104/3/2 109/3/2
f 108/6/2 103/6/2 109/6/2
f 105/3/2 106/3/2 109/3/2
f 104/3/2 105/3/2 109/3/2
f 106/6/2 107/6/2 110/6/2
f 109/3/2 106/3/2 110/3/2
f 107/5/2 94/5/2 111/5/2
f 110/6/2 107/6/2 111/6/2
f 93/5/2 108/5/2 112/5/2
f 108/3/2 109/3/2 112/3/2
f 110/3/2 111/3/2 112/3/2
f 109/3/2 110/3/2 112/3/2
f 111/5/2 94/5/2 113/5/2
f 112/3/2 111/3/2 113/3/2
f 93/5/2 112/5/2 114/5/2
f 112/5/2 113/5/2 114/5/2
f 113/5/2 94/5/2 115/5/2
f 114/5/2 113/5/2 115/5/2
f 120/1/3 119/1/3 118/1/3
f 121/1/3 119/1/3 120/1/3
f 122/5/3 117/5/3 116/5/3
f 123/5/3 117/5/3 122/5/3
f 128/2/3 125/2/3 124/2/3
f 129/2/3 125/2/3 128/2/3
f 130/2/3 125/2/3 129/2/3
f 131/5/3 127/5/3 126/5/3
f 132/5/3 127/5/3 131/5/3
f 133/2/3 128/2/3 124/2/3
f 134/1/3 130/1/3 129/1/3
f 135/1/3 130/1/3 134/1/3
f 136/2/3 133/2/3 124/2/3
f 136/2/3 135/2/3 134/2/3
f 136/2/3 134/2/3 133/2/3
f 137/2/3 135/2/3 136/2/3
f 140/5/3 139/5/3 138/5/3
f 141/5/3 139/5/3 140/5/3
f 145/5/3 143/5/3 142/5/3
f 146/5/3 143/5/3 145/5/3
f 147/5/3 143/5/3 146/5/3
f 148/5/3 145/5/3 144/5/3
f 148/5/3 146/5/3 145/5/3
f 149/5/3 146/5/3 148/5/3
f 150/5/3 146/5/3 149/5/3
f 151/5/3 143/5/3 147/5/3
f 152/5/3 150/5/3 149/5/3
f 152/5/3 151/5/3 150/5/3
f 153/5/3 143/5/3 151/5/3
f 153/5/3 151/5/3 152/5/3
f 156/5/3 155/5/3 154/5/3
f 157/5/3 155/5/3 156/5/3
f 160/5/3 159/5/3 158/5/3
f 161/5/3 159/5/3 160/5/3
f 164/5/3 163/5/3 162/5/3
f 165/5/3 163/5/3 164/5/3
f 166/5/4 167/5/4 168/5/4
f 168/5/4 167/5/4 169/5/4
f 172/5/4 173/5/4 174/5/4
f 174/5/4 173/5/4 175/5/4
f 170/2/4 171/2/4 176/2/4
f 176/2/4 171/2/4 177/2/4
f 178/5/4 179/5/4 180/5/4
f 180/5/4 179/5/4 181/5/4
f 182/5/4 183/5/4 185/5/4
f 185/5/4 183/5/4 186/5/4
f 186/5/4 183/5/4 187/5/4
f 184/5/4 185/5/4 188/5/4
f 185/5/4 186/5/4 188/5/4
f 188/5/4 186/5/4 189/5/4
f 189/5/4 186/5/4 190/5/4
f 187/5/4 183/5/4 191/5/4
f 189/5/4 190/5/4 192/5/4
f 190/5/4 191/5/4 192/5/4
f 191/5/4 183/5/4 193/5/4
f 192/5/4 191/5/4 193/5/4
f 194/5/4 195/5/4 196/5/4
f 196/5/4 195/5/4 197/5/4
f 198/5/4 199/5/4 200/5/4
f 200/5/4 199/5/4 201/5/4
f 202/5/4 203/5/4 204/5/4
f 204/5/4 203/5/4 205/5/4
f 208/5/5 207/5/5 206/5/5
f 209/5/5 207/5/5 208/5/5
f 212/5/5 211/5/5 210/5/5
f 213/5/5 211/5/5 212/5/5
f 218/5/5 215/5/5 214/5/5
f 219/5/5 217/5/5 216/5/5
f 220/5/5 218/5/5 214/5/5
f 220/5/5 219/5/5 218/5/5
f 221/5/5 217/5/5 219/5/5
f 221/5/5 219/5/5 220/5/5
f 222/5/5 220/5/5 214/5/5
f 223/5/5 220/5/5 222/5/5
f 224/5/5 217/5/5 221/5/5
f 225/5/5 217/5/5 224/5/5
f 228/5/5 227/5/5 226/5/5
f 229/5/5 227/5/5 228/5/5
f 232/5/5 231/5/5 230/5/5
f 233/5/5 231/5/5 232/5/5
f 236/5/5 235/5/5 234/5/5
f 237/5/5 235/5/5 236/5/5
f 240/5/5 239/5/5 238/5/5
f 241/5/5 239/5/5 240/5/5
f 244/5/5 243/5/5 242/5/5
f 245/5/5 243/5/5 244/5/5
f 246/5/5 244/5/5 242/5/5
f 247/5/5 243/5/5 245/5/5
f 248/5/5 246/5/5 242/5/5
f 248/5/5 247/5/5 246/5/5
f 249/5/5 243/5/5 247/5/5
f 249/5/5 247/5/5 248/5/5
f 252/1/5 251/1/5 250/1/5
f 253/1/5 251/1/5 252/1/5
f 254/5/6 255/5/6 256/5/6
f 256/5/6 255/5/6 257/5/6
f 258/5/6 259/5/6 260/5/6
f 260/5/6 259/5/6 261/5/6
f 262/5/6 263/5/6 264/5/6
f 264/5/6 263/5/6 265/5/6
f 266/5/6 267/5/6 268/5/6
f 268/5/6 267/5/6 269/5/6
f 270/5/6 271/5/6 272/5/6
f 272/5/6 271/5/6 273/5/6
f 274/5/6 275/5/6 276/5/6
f 276/5/6 275/5/6 277/5/6
f 278/5/6 279/5/6 280/5/6
f 280/5/6 279/5/6 281/5/6
f 278/5/6 280/5/6 282/5/6
f 281/5/6 279/5/6 283/5/6
f 278/5/6 282/5/6 284/5/6
f 282/5/6 283/5/6 284/5/6
f 283/5/6 279/5/6 285/5/6
f 284/5/6 283/5/6 285/5/6
f 286/1/6 287/1/6 288/1/6
f 288/1/6 287/1/6 289/1/6
f 290/2/6 291/2/6 294/2/6
f 291/1/6 292/1/6 294/1/6
f 292/2/6 293/2/6 295/2/6
f 294/1/6 292/1/6 295/1/6
f 290/2/6 294/2/6 296/2/6
f 294/2/6 295/2/6 296/2/6
f 295/2/6 293/2/6 297/2/6
f 296/2/6 295/2/6 297/2/6
