# MagicaVoxel @ ephtracy

# material
mtllib menu2.mtl
usemtl palette

# normals
vn -1 0 0
vn 1 0 0
vn 0 0 1
vn 0 0 -1
vn 0 -1 0
vn 0 1 0

# texcoords
vt 0.00195313 0.5
vt 0.00976563 0.5
vt 0.0214844 0.5
vt 0.0332031 0.5
vt 0.0449219 0.5
vt 0.0917969 0.5
vt 0.208984 0.5
vt 0.232422 0.5
vt 0.306641 0.5
vt 0.373047 0.5
vt 0.587891 0.5
vt 0.611328 0.5
vt 0.623047 0.5
vt 0.845703 0.5
vt 0.982422 0.5

# verts
v -24 0 39.5
v -24 0 -39.5
v -24 8 0.5
v -24 8 -0.5
v -24 9 0.5
v -24 9 -0.5
v -24 14 39.5
v -24 14 0.5
v -24 15 39.5
v -24 15 0.5
v -24 26 0.5
v -24 26 -39.5
v -16 26 -8.5
v -16 26 -22.5
v -16 26 -23.5
v -16 26 -31.5
v -16 27 -8.5
v -16 27 -22.5
v -16 27 -23.5
v -16 27 -31.5
v -6 26 -1.5
v -6 26 -5.5
v -6 27 -1.5
v -6 27 -5.5
v -8 26 -8.5
v -8 26 -22.5
v -8 26 -23.5
v -8 26 -27.5
v -8 26 -28.5
v -8 26 -31.5
v -8 27 -8.5
v -8 27 -22.5
v -8 27 -23.5
v -8 27 -31.5
v -2 26 -1.5
v -2 26 -5.5
v -2 27 -1.5
v -2 27 -5.5
v 0 0 39.5
v 0 0 0.5
v 0 11 0.5
v 0 12 0.5
v 0 12 -39.5
v 0 14 39.5
v 0 14 0.5
v 0 15 39.5
v 0 15 0.5
v 0 19 -18.5
v 0 19 -31.5
v 0 24 -18.5
v 0 24 -27.5
v 0 24 -28.5
v 0 24 -31.5
v 0 25 -27.5
v 0 25 -28.5
v 0 26 0.5
v 0 26 -27.5
v 0 26 -28.5
v 0 26 -39.5
v 2 19 -18.5
v 2 19 -31.5
v 2 24 -18.5
v 2 24 -31.5
v 24 0 0.5
v 24 0 -39.5
v 24 11 0.5
v 24 11 -39.5
v 24 12 0.5
v 24 12 -39.5
v -24 0 39.5
v -24 14 39.5
v -24 15 39.5
v 0 0 39.5
v 0 14 39.5
v 0 15 39.5
v -24 15 0.5
v -24 26 0.5
v 0 0 0.5
v 0 11 0.5
v 0 12 0.5
v 0 15 0.5
v 0 26 0.5
v 24 0 0.5
v 24 11 0.5
v 24 12 0.5
v -6 26 -1.5
v -6 27 -1.5
v -2 26 -1.5
v -2 27 -1.5
v -16 26 -8.5
v -16 27 -8.5
v -8 26 -8.5
v -8 27 -8.5
v 0 19 -18.5
v 0 24 -18.5
v 2 19 -18.5
v 2 24 -18.5
v -16 26 -23.5
v -16 27 -23.5
v -8 26 -23.5
v -8 27 -23.5
v -6 26 -5.5
v -6 27 -5.5
v -2 26 -5.5
v -2 27 -5.5
v -16 26 -22.5
v -16 27 -22.5
v -8 26 -22.5
v -8 27 -22.5
v -16 26 -31.5
v -16 27 -31.5
v -8 26 -31.5
v -8 27 -31.5
v 0 19 -31.5
v 0 24 -31.5
v 2 19 -31.5
v 2 24 -31.5
v -24 0 -39.5
v -24 26 -39.5
v 0 11 -39.5
v 0 12 -39.5
v 0 26 -39.5
v 24 0 -39.5
v 24 11 -39.5
v 24 12 -39.5
v -24 0 39.5
v 0 0 39.5
v 0 0 0.5
v 24 0 0.5
v -24 0 -39.5
v 24 0 -39.5
v 0 19 -18.5
v 2 19 -18.5
v 0 19 -31.5
v 2 19 -31.5
v 0 12 0.5
v 24 12 0.5
v 0 12 -39.5
v 24 12 -39.5
v -24 15 39.5
v 0 15 39.5
v -24 15 0.5
v 0 15 0.5
v 0 24 -18.5
v 2 24 -18.5
v 0 24 -27.5
v 1 24 -27.5
v 0 24 -28.5
v 1 24 -28.5
v 0 24 -31.5
v 2 24 -31.5
v -24 26 0.5
v 0 26 0.5
v -6 26 -1.5
v -2 26 -1.5
v -6 26 -5.5
v -2 26 -5.5
v -16 26 -8.5
v -8 26 -8.5
v -16 26 -22.5
v -8 26 -22.5
v -16 26 -23.5
v -8 26 -23.5
v -8 26 -27.5
v -7 26 -27.5
v -5 26 -27.5
v -3 26 -27.5
v -2 26 -27.5
v -1 26 -27.5
v 0 26 -27.5
v -8 26 -28.5
v -7 26 -28.5
v -5 26 -28.5
v -3 26 -28.5
v -2 26 -28.5
v -1 26 -28.5
v 0 26 -28.5
v -16 26 -31.5
v -8 26 -31.5
v -24 26 -39.5
v 0 26 -39.5
v -6 27 -1.5
v -2 27 -1.5
v -6 27 -5.5
v -2 27 -5.5
v -16 27 -8.5
v -8 27 -8.5
v -16 27 -22.5
v -8 27 -22.5
v -16 27 -23.5
v -8 27 -23.5
v -16 27 -31.5
v -8 27 -31.5

# faces
f 3/15/1 2/15/1 1/15/1
f 4/15/1 2/15/1 3/15/1
f 5/15/1 3/15/1 1/15/1
f 5/11/1 4/11/1 3/11/1
f 6/15/1 2/15/1 4/15/1
f 6/11/1 4/11/1 5/11/1
f 7/15/1 5/15/1 1/15/1
f 7/15/1 6/15/1 5/15/1
f 8/15/1 6/15/1 7/15/1
f 9/11/1 8/11/1 7/11/1
f 10/15/1 6/15/1 8/15/1
f 10/11/1 8/11/1 9/11/1
f 11/15/1 6/15/1 10/15/1
f 12/15/1 2/15/1 6/15/1
f 12/15/1 6/15/1 11/15/1
f 17/13/1 14/13/1 13/13/1
f 18/13/1 14/13/1 17/13/1
f 19/1/1 16/1/1 15/1/1
f 20/1/1 16/1/1 19/1/1
f 23/14/1 22/14/1 21/14/1
f 24/14/1 22/14/1 23/14/1
f 25/13/2 26/13/2 31/13/2
f 31/13/2 26/13/2 32/13/2
f 29/1/2 30/1/2 33/1/2
f 27/1/2 28/1/2 33/1/2
f 28/1/2 29/1/2 33/1/2
f 33/1/2 30/1/2 34/1/2
f 35/14/2 36/14/2 37/14/2
f 37/14/2 36/14/2 38/14/2
f 39/15/2 40/15/2 41/15/2
f 39/15/2 41/15/2 42/15/2
f 39/15/2 42/15/2 44/15/2
f 42/15/2 43/15/2 44/15/2
f 44/15/2 43/15/2 45/15/2
f 44/11/2 45/11/2 46/11/2
f 45/15/2 43/15/2 47/15/2
f 46/11/2 45/11/2 47/11/2
f 47/15/2 43/15/2 48/15/2
f 48/15/2 43/15/2 49/15/2
f 47/15/2 48/15/2 50/15/2
f 49/15/2 43/15/2 53/15/2
f 51/5/2 52/5/2 54/5/2
f 50/15/2 51/15/2 54/15/2
f 52/15/2 53/15/2 55/15/2
f 54/5/2 52/5/2 55/5/2
f 50/15/2 54/15/2 56/15/2
f 47/15/2 50/15/2 56/15/2
f 54/7/2 55/7/2 57/7/2
f 56/15/2 54/15/2 57/15/2
f 55/15/2 53/15/2 58/15/2
f 57/7/2 55/7/2 58/7/2
f 53/15/2 43/15/2 59/15/2
f 58/15/2 53/15/2 59/15/2
f 60/5/2 61/5/2 62/5/2
f 62/5/2 61/5/2 63/5/2
f 64/15/2 65/15/2 66/15/2
f 66/15/2 65/15/2 67/15/2
f 66/11/2 67/11/2 68/11/2
f 68/11/2 67/11/2 69/11/2
f 73/15/3 71/15/3 70/15/3
f 74/11/3 72/11/3 71/11/3
f 74/15/3 71/15/3 73/15/3
f 75/11/3 72/11/3 74/11/3
f 81/15/3 77/15/3 76/15/3
f 82/15/3 77/15/3 81/15/3
f 83/15/3 79/15/3 78/15/3
f 84/11/3 80/11/3 79/11/3
f 84/15/3 79/15/3 83/15/3
f 85/11/3 80/11/3 84/11/3
f 88/14/3 87/14/3 86/14/3
f 89/14/3 87/14/3 88/14/3
f 92/13/3 91/13/3 90/13/3
f 93/13/3 91/13/3 92/13/3
f 96/5/3 95/5/3 94/5/3
f 97/5/3 95/5/3 96/5/3
f 100/1/3 99/1/3 98/1/3
f 101/1/3 99/1/3 100/1/3
f 102/14/4 103/14/4 104/14/4
f 104/14/4 103/14/4 105/14/4
f 106/13/4 107/13/4 108/13/4
f 108/13/4 107/13/4 109/13/4
f 110/1/4 111/1/4 112/1/4
f 112/1/4 111/1/4 113/1/4
f 114/5/4 115/5/4 116/5/4
f 116/5/4 115/5/4 117/5/4
f 118/15/4 119/15/4 120/15/4
f 120/15/4 119/15/4 121/15/4
f 121/15/4 119/15/4 122/15/4
f 118/15/4 120/15/4 123/15/4
f 120/11/4 121/11/4 124/11/4
f 123/15/4 120/15/4 124/15/4
f 124/11/4 121/11/4 125/11/4
f 128/15/5 127/15/5 126/15/5
f 130/15/5 128/15/5 126/15/5
f 130/15/5 129/15/5 128/15/5
f 131/15/5 129/15/5 130/15/5
f 134/5/5 133/5/5 132/5/5
f 135/5/5 133/5/5 134/5/5
f 136/11/6 137/11/6 138/11/6
f 138/11/6 137/11/6 139/11/6
f 140/11/6 141/11/6 142/11/6
f 142/11/6 141/11/6 143/11/6
f 144/5/6 145/5/6 146/5/6
f 146/5/6 145/5/6 147/5/6
f 146/4/6 147/4/6 148/4/6
f 147/5/6 145/5/6 149/5/6
f 148/4/6 147/4/6 149/4/6
f 148/5/6 149/5/6 150/5/6
f 149/5/6 145/5/6 151/5/6
f 150/5/6 149/5/6 151/5/6
f 152/15/6 153/15/6 154/15/6
f 154/15/6 153/15/6 155/15/6
f 152/15/6 154/15/6 156/15/6
f 155/15/6 153/15/6 157/15/6
f 152/15/6 156/15/6 158/15/6
f 156/15/6 157/15/6 158/15/6
f 158/15/6 157/15/6 159/15/6
f 152/15/6 158/15/6 160/15/6
f 159/15/6 157/15/6 161/15/6
f 152/15/6 160/15/6 162/15/6
f 160/15/6 161/15/6 162/15/6
f 161/15/6 157/15/6 163/15/6
f 162/15/6 161/15/6 163/15/6
f 163/15/6 157/15/6 164/15/6
f 164/15/6 157/15/6 165/15/6
f 165/15/6 157/15/6 166/15/6
f 166/15/6 157/15/6 167/15/6
f 157/15/6 153/15/6 168/15/6
f 167/15/6 157/15/6 168/15/6
f 168/15/6 153/15/6 169/15/6
f 169/15/6 153/15/6 170/15/6
f 164/2/6 165/2/6 171/2/6
f 165/3/6 166/3/6 172/3/6
f 171/2/6 165/2/6 172/2/6
f 166/5/6 167/5/6 173/5/6
f 172/3/6 166/3/6 173/3/6
f 167/4/6 168/4/6 174/4/6
f 173/5/6 167/5/6 174/5/6
f 168/10/6 169/10/6 175/10/6
f 174/4/6 168/4/6 175/4/6
f 169/7/6 170/7/6 176/7/6
f 175/10/6 169/10/6 176/10/6
f 176/7/6 170/7/6 177/7/6
f 152/15/6 162/15/6 178/15/6
f 171/15/6 172/15/6 179/15/6
f 172/15/6 173/15/6 179/15/6
f 176/15/6 177/15/6 179/15/6
f 175/15/6 176/15/6 179/15/6
f 174/15/6 175/15/6 179/15/6
f 173/15/6 174/15/6 179/15/6
f 152/15/6 178/15/6 180/15/6
f 178/15/6 179/15/6 180/15/6
f 179/15/6 177/15/6 181/15/6
f 180/15/6 179/15/6 181/15/6
f 182/14/6 183/14/6 184/14/6
f 184/14/6 183/14/6 185/14/6
f 186/13/6 187/13/6 188/13/6
f 188/13/6 187/13/6 189/13/6
f 190/1/6 191/1/6 192/1/6
f 192/1/6 191/1/6 193/1/6
